/* XPM */
static char *e926a17957024e1a815606a520dfe5b0NRDXTV25EwUygmBk[] = {
/* columns rows colors chars-per-pixel */
"48 48 171 2 ",
"   c None",
".  c #030303",
"X  c #0D0700",
"o  c #0E0904",
"O  c #0B0B0B",
"+  c #130C04",
"@  c #14110C",
"#  c #1B1208",
"$  c #141413",
"%  c #181512",
"&  c #1E1B15",
"*  c #1C1C1C",
"=  c #271500",
"-  c #2D1701",
";  c #2E1901",
":  c #221608",
">  c #381F03",
",  c #211A11",
"<  c #201E19",
"1  c #222015",
"2  c #2F2516",
"3  c #24221C",
"4  c #2D281F",
"5  c #2A261E",
"6  c #382913",
"7  c #392C1A",
"8  c #232323",
"9  c #282522",
"0  c #2F2C25",
"q  c #2C2C2B",
"w  c #312E29",
"e  c #3E382B",
"r  c #38332A",
"t  c #333333",
"y  c #3B3B3B",
"u  c #3B3832",
"i  c #47361B",
"p  c #683703",
"a  c #483C27",
"s  c #443723",
"d  c #533E21",
"f  c #413F3C",
"g  c #63471F",
"h  c #6F4B1C",
"j  c #41402F",
"k  c #59482A",
"l  c #444331",
"z  c #4A4336",
"x  c #48453D",
"c  c #514B3A",
"v  c #5D563E",
"b  c #624C29",
"n  c #6A542C",
"m  c #7E5C2A",
"M  c #6B5934",
"N  c #6C5E3D",
"B  c #63573E",
"V  c #785C30",
"C  c #73653C",
"Z  c #7C693E",
"A  c #4A4843",
"S  c #5F5746",
"D  c #5B5649",
"F  c #635B44",
"G  c #645B48",
"H  c #6C664D",
"J  c #706143",
"K  c #786F47",
"L  c #6D6552",
"P  c #7A6D53",
"I  c #8B6228",
"U  c #9E6F2E",
"Y  c #96692B",
"T  c #836735",
"R  c #946F33",
"E  c #9F7735",
"W  c #947236",
"Q  c #A66E2D",
"!  c #AF7A2F",
"~  c #A17230",
"^  c #AD7631",
"/  c #AC7831",
"(  c #A57834",
")  c #B07732",
"_  c #B47D32",
"`  c #867046",
"'  c #8F7342",
"]  c #837354",
"[  c #8A7751",
"{  c #837A58",
"}  c #B68136",
"|  c #B98232",
" . c #BF8835",
".. c #B98538",
"X. c #BE8C3C",
"o. c #B4863B",
"O. c #C08735",
"+. c #C08835",
"@. c #C08F3F",
"#. c #C0903E",
"$. c #CA953E",
"%. c #85825F",
"&. c #938854",
"*. c #AC904C",
"=. c #B89147",
"-. c #878665",
";. c #878768",
":. c #9D9261",
">. c #988B70",
",. c #A58E62",
"<. c #B39A6B",
"1. c #A6A377",
"2. c #B8A57D",
"3. c #BEB87F",
"4. c #C49646",
"5. c #C59847",
"6. c #C69948",
"7. c #CA9F4E",
"8. c #D19F42",
"9. c #C9A04F",
"0. c #D4A245",
"q. c #D2A249",
"w. c #DAAB4B",
"e. c #CBA351",
"r. c #CEA957",
"t. c #CFA958",
"y. c #C4A154",
"u. c #D1AD5B",
"i. c #DFB151",
"p. c #E0B251",
"a. c #C3AF6A",
"s. c #C8B069",
"d. c #D5B462",
"f. c #D7B867",
"g. c #D8B967",
"h. c #D8B968",
"j. c #C0B87C",
"k. c #DFC574",
"l. c #DAC67A",
"z. c #E0C674",
"x. c #E2C876",
"c. c #BFBE90",
"v. c #CBB78C",
"b. c #CEBA8F",
"n. c #D1BC91",
"m. c #D8CD87",
"M. c #CDC990",
"N. c #E7D281",
"B. c #E9D381",
"V. c #EEDD8C",
"C. c #F0DF8E",
"Z. c #F2E494",
"A. c #F6EB9A",
"S. c #F8EC9C",
"D. c #EAD3A2",
"F. c #FBF3A6",
"G. c #FBF4A9",
"H. c #FCF5AA",
"J. c #FCF5A9",
"K. c #FCF4A9",
"L. c #FCF7B0",
"P. c #FDF7B1",
"I. c #FDF8B1",
"U. c #FDF9B4",
"Y. c #FDF9B5",
"T. c #FDF9B3",
"R. c #FEFCBB",
"E. c #FEFDBE",
"W. c #FFFEBF",
"Q. c #FFFDBC",
"!. c #FEFCBC",
/* pixels */
"                                                                                                ",
"                                              Z.Z.                                              ",
"                                              S.V.                                              ",
"                                            F.A.V.B.                                            ",
"                                            F.A.V.N.                                            ",
"                                          L.F.A.V.N.z.                                          ",
"                                        R.I.F.A.V.N.k.g.                                        ",
"                                        R.L.F.A.V.N.k.g.                                        ",
"                                      Q.R.I.F.A.V.N.k.g.u.                                      ",
"                                    U.Q.R.I.F.A.V.N.k.g.u.e.                                    ",
"                                  H.U.Q.R.L.F.A.V.N.k.g.u.e.6.                                  ",
"                                S.H.U.Q.R.L.F.A.V.N.k.g.u.e.6.4.                                ",
"                              V.S.H.U.Q.R.I.F.A.V.N.k.g.u.e.6.@.X.                              ",
"                            z.V.S.G.U.Q.R.L.F.A.V.N.k.g.u.e.6.X.X...                            ",
"                          d.z.V.S.G.U.Q.R.I.F.A.V.N.z.g.u.e.6.@.X...}                           ",
"                      7.r.d.z.V.S.H.U.Q.Q.L.F.A.V.B.k.g.u.e.6.@.X...} _ _                       ",
"                    5.9.t.d.z.V.S.H.U.Q.R.L.F.A.V.N.z.h.u.e.6.@.X...~ _ _ _                     ",
"                  X.5.7.r.d.z.V.S.H.U.Q.R.L.F.A.V.N.z.g.u.=.T b s w q 7 _ _ |                   ",
"                X.X.4.7.r.d.z.V.j.H 1.Q.R.I.F.A.V.N.a.N & $ * q t y y t I _ |  .                ",
"            X.X.X.@.5.9.r.d.s.c $ O O ;.R.L.F.A.V.a.< * O O * 8 q f v.A s _ |  .$.8.            ",
"          X.X.X.X.X.4.9.y.N 8 3 5 O . . -.I.F.A.:.. . $ * c n.q q q >.A q I |  .$.0.w.          ",
"        X.X.X.X.X.X.=.Z r 8 * 2.b.O . . . %.F.{ . . . . q O H w 8 8 q q q d |  .$.0.w.          ",
"        X.X.X.X.X.V w q u n.G O c b.0 . . . l . . . . . 8 $ O O $ * 8 8 8 3 ! +.$.0.w.i.        ",
"      } X.X.X.X.R 8 8 * 9 F P v 3 e { z . . . + = . . . $ t . % O $ $ G v.$ g  .$.0.w.i.q.      ",
"    ^ } X.X.X.X.E 8 8 $ $ O ] F r @ ] 4 . $ $ @ p . . . . t $ J <.O O 3 ] O @ } $.0.w.i.q.      ",
"    ^ } X.X.X.X.X.0 q 8 O O . [ ,.@ . * q q t 8 > . . . ; $ t & k . . . O . O m $.0.w.p.q.@.    ",
"    ^ } X.X.X.X.X.a 8 q * . . . . * t t y y q 8 . . . X p + q O . . O $ $ $ O / $.0.w.p.q.X.    ",
"  Q ^ } X.X.X.X.X.n 8 * q 8 $ * t t t y t t q 8 . . . . > X q y q q 8 $ O @ I  .$.0.w.i.q.X.^   ",
"  Q ^ } X.X.X.X.X.R * & O 8 t q 8 D x q q q 8 $ O . . . . . q 9 2 . . B , Y |  .$.0.w.i.q.X.^   ",
"  Q ^ } X.X.X.X.X.o.$ 7 i O q $ 9 D.L x S * $ O . . . . O 8 O # : 6 o , U _ | +.$.0.w.i.q.@.^   ",
"  Q ^ } X.X.X.X.X.X.7 O h . * O @ z $ 2.] 5 ` @ . . . . * + - . . # 7 ~ _ _ |  .$.0.w.i.q.X.^   ",
"  Q ^ } X.X.X.X.X.X.W . @ . O O O O O % O M ' . . 1 . O O @ 2 k m ( } _ _ _ | +.$.0.w.i.q.X.^   ",
"  Q ^ } X.X.X.X.X.X.4.n . . . . . . . . . . . @ K l.C Z *.e.6.#.X...} _ _ _ | +.$.0.w.i.q.X.^   ",
"    ^ } X.X.X.X.X.X.4.9.n . . . . . . . . . F m.V.N.z.g.u.e.5.@.X...} _ _ _ |  .$.0.w.i.q.X.)   ",
"    ^ } X.X.X.X.X.X.4.9.r.M . . . . . . l M.F.A.V.N.k.g.u.e.6.@.X...} _ _ _ | +.$.0.w.p.q.X.    ",
"    ^ } X.X.X.X.X.X.4.9.t.d.C . . . j c.R.L.K.A.V.N.k.g.u.e.6.@.X...} _ _ _ | +.$.0.w.p.q.@.    ",
"      } X.X.X.X.X.X.4.9.t.d.x.&.v 3.U.Q.R.L.  A.V.  k.g.u.e.6.#.X...} _ _ _ |  .$.0.w.i.q.      ",
"        X.X.X.X.X.@.4.9.r.d.z.V.S.G.U.Q.Q.    A.V.    f.u.e.6.@.X...} _ _ _ |  .$.0.w.i.        ",
"          X.X.X.X.@.4.9.r.d.z.V.S.H.U.Q.    F.A.V.B.    u.e.6.@.X...} _ _ _ |  .$.0.w.          ",
"            X.X.X.X.5.9.r.d.z.V.S.H.I.      F.A.V.B.      e.6.X.X...} _ _ _ | +.$.0.            ",
"                X.@.4.9.r.d.z.V.A.          F.A.V.N.          X.X...} _ _ _ | O.                ",
"                      9.r.d.                F.A.V.N.                } _ _ _                     ",
"                                            F.A.V.N.                                            ",
"                                          I.F.A.C.N.x.                                          ",
"                                          L.F.A.V.N.z.                                          ",
"                                          I.F.A.V.N.k.                                          ",
"                                          L.F.A.V.N.k.                                          ",
"                                                                                                "
};
