/* XPM */
static char *f86e5f7244444f0df69c4bdaf639de57PBMljUeXydYIW4iL[] = {
/* columns rows colors chars-per-pixel */
"32 32 132 2 ",
"   c None",
".  c #030303",
"X  c #0D0700",
"o  c #0D0801",
"O  c #0B0B0B",
"+  c #140E07",
"@  c #120F0A",
"#  c #14120D",
"$  c #1F190F",
"%  c #131313",
"&  c #181612",
"*  c #1C1914",
"=  c #1C1C1B",
"-  c #201100",
";  c #221608",
":  c #211B12",
">  c #2F210F",
",  c #352109",
"<  c #24211B",
"1  c #2A261D",
"2  c #362816",
"3  c #372E1E",
"4  c #232323",
"5  c #2C2925",
"6  c #2B2B2B",
"7  c #332D23",
"8  c #3C3526",
"9  c #35322C",
"0  c #393329",
"q  c #343434",
"w  c #3E3A32",
"e  c #402201",
"r  c #433C2A",
"t  c #4B3F2A",
"y  c #443F32",
"u  c #41402F",
"i  c #5E4B2E",
"p  c #4D473A",
"a  c #4E483A",
"s  c #594F3C",
"d  c #604620",
"f  c #634924",
"g  c #75592D",
"h  c #6F5E3D",
"j  c #785C30",
"k  c #7E6330",
"l  c #776239",
"z  c #7D6B3D",
"x  c #474542",
"c  c #565144",
"v  c #695E45",
"b  c #635B4B",
"n  c #6B674B",
"m  c #746743",
"M  c #766A41",
"N  c #706D4D",
"B  c #6D6450",
"V  c #776C53",
"C  c #736B5A",
"Z  c #9B6D2D",
"A  c #826A38",
"S  c #946F32",
"D  c #91763E",
"F  c #A0702F",
"G  c #AA712F",
"H  c #AF7A2F",
"J  c #A07130",
"K  c #AC7330",
"L  c #A37E3D",
"P  c #B47E33",
"I  c #806F4F",
"U  c #867B4E",
"Y  c #8A7752",
"T  c #817C54",
"R  c #B58036",
"E  c #B88234",
"W  c #B6853A",
"Q  c #B98538",
"!  c #B6883C",
"~  c #BE8C3C",
"^  c #C38C37",
"/  c #C48E39",
"(  c #C1903F",
")  c #96824A",
"_  c #84815C",
"`  c #9A8F5C",
"'  c #BC8F41",
"]  c #AF9C5F",
"[  c #878666",
"{  c #968667",
"}  c #93866A",
"|  c #BDB67D",
" . c #C29444",
".. c #C79C4B",
"X. c #C89C4B",
"o. c #C19C50",
"O. c #D3A145",
"+. c #D3A248",
"@. c #DDAE4F",
"#. c #C4A255",
"$. c #CCA554",
"%. c #CFA857",
"&. c #CFAA58",
"*. c #DEAF50",
"=. c #D6B663",
"-. c #DCBF6C",
";. c #D0BF78",
":. c #DDC06F",
">. c #D2C27C",
",. c #E2C876",
"<. c #E3CB7A",
"1. c #EDDB8B",
"2. c #E9DE93",
"3. c #F7EC9C",
"4. c #F8ED9D",
"5. c #DFDEA5",
"6. c #FBF4A6",
"7. c #FBF2A6",
"8. c #FCF5AD",
"9. c #FCF6AE",
"0. c #FCF6AF",
"q. c #FDF7AF",
"w. c #FCF6AE",
"e. c #FDFAB5",
"r. c #FDFAB6",
"t. c #FEFAB6",
"y. c #FEFBB6",
"u. c #FDFAB6",
"i. c #FEFDBC",
"p. c #FEFDBD",
"a. c #FFFDBD",
"s. c #FEFDBD",
/* pixels */
"                                                                ",
"                              3.                                ",
"                              4.1.                              ",
"                            8.4.1.<.                            ",
"                            8.4.1.,.                            ",
"                          p.8.4.1.,.=.                          ",
"                        t.p.8.4.1.,.=.$.                        ",
"                      7.t.p.8.4.1.,.=.$. .                      ",
"                    1.7.t.p.8.4.1.,.=.$. .~                     ",
"                  :.1.6.t.p.8.4.1.,.=.$. .~ Q                   ",
"                &.-.1.7.t.p.8.4.1.,.=.$. .~ Q P                 ",
"            ' X.&.-.1.7.t.p.8.4.1.,.=.o.L g i f P P             ",
"          ~  .X.&.-.>.n [ p.8.4.1.] r % 4 q x q Z E ^           ",
"        ~ ~  ...#.m 4 O O [ 8.4.` . = 1 B 6 C C f E / O.        ",
"      ~ ~ ~ ! l w 9 B a # . _ T . . % % y = 5 6 5 H / O.@.      ",
"    W ~ ~ ~ 7 4 a { < V V @ . . X . . 6 O * % p p f / O.@.@.    ",
"    R ~ ~ ~ 5 4 O r I 8 s O = * e . . 4 < Y O < 7 # / O.@.+.    ",
"  K R ~ ~ ~ t 6 = . 1 = 5 q q 5 . . - , 5 . O O O # Q O.@.+.Q   ",
"  G R ~ ~ ~ j = 4 4 6 q q q 6 4 . . . o q 5 = 0 : Z / O.@.+.P   ",
"  G R ~ ~ ~ S & 2 4 = } c b = % . . . % O ; + * F E / O.@.+.P   ",
"  G R ~ ~ ~ W # > O O * 5 v h 3 . . O + + $ d J P E / O.@.+.P   ",
"  G R ~ ~ ~ ( k . . O . . O @ # U M z D ' ~ Q P P E / O.@.+.P   ",
"  G R ~ ~ ~ ( ..A . . . . . N 2.1.,.=.$. .~ Q P P E / O.*.+.Q   ",
"    R ~ ~ ~  ...&.) @ . u 5.8.4.1.,.=.$. .~ Q P P E / O.@.+.    ",
"    R ~ ~ ~ ~ X.&.-.;.| t.p.  4.1.  =.$. .~ Q P P E / O.@.+.    ",
"      ~ ~ ~ ~ X.&.-.1.7.t.    4.1.    $. .~ Q P P E / O.@.      ",
"          ~  ...&.-.1.7.      4.1.       .~ Q P P E /           ",
"              ..%.            4.1.          Q P P               ",
"                            8.4.1.<.                            ",
"                            8.4.1.,.                            ",
"                            8.4.1.,.                            ",
"                                                                "
};
