/* XPM */
static char *_5392a103e3740f9fe2f6378bbabdeb6SXDF0hKDC1lyKivX[] = {
/* columns rows colors chars-per-pixel */
"16 16 120 2 ",
"   c None",
".  c black",
"X  c #020202",
"o  c gray1",
"O  c #0D0A07",
"+  c #090909",
"@  c #120C05",
"#  c #1A0E01",
"$  c #13100C",
"%  c #12100D",
"&  c #101010",
"*  c #171612",
"=  c #171613",
"-  c #1E1D17",
";  c #1D1B18",
":  c #1E1E1E",
">  c gray12",
",  c #24211D",
"<  c #24221E",
"1  c #27241D",
"2  c #30281D",
"3  c #3C321E",
"4  c #252525",
"5  c #282724",
"6  c #332E25",
"7  c #383020",
"8  c #3F3321",
"9  c #3C3622",
"0  c #3E3628",
"q  c #3E3B35",
"w  c #3F3C36",
"e  c #4B3F2B",
"r  c #42402D",
"t  c #594420",
"y  c #424131",
"u  c #484131",
"i  c #46433C",
"p  c #4E483B",
"a  c #5C4B30",
"s  c #59543C",
"d  c #634821",
"f  c #71572A",
"g  c #6B5A31",
"h  c #5C5441",
"j  c #5A564C",
"k  c #92672E",
"l  c #956A2E",
"z  c #8A6633",
"x  c #AA7230",
"c  c #AA7330",
"v  c #A37C3B",
"b  c #B57E31",
"n  c #B67E31",
"m  c #B47F32",
"M  c #B67F33",
"N  c #897D51",
"B  c #B68135",
"V  c #B78136",
"C  c #B78236",
"Z  c #B28537",
"A  c #B98237",
"S  c #B4853A",
"D  c #BA833A",
"F  c #BB873A",
"G  c #BB883A",
"H  c #BB893A",
"J  c #BB883B",
"K  c #BC8A3B",
"L  c #BE8C3B",
"P  c #BE8B3C",
"I  c #BD8C3D",
"U  c #BE8C3C",
"Y  c #BF8D3D",
"T  c #C6903B",
"R  c #C8933C",
"E  c #C9943C",
"W  c #C9943D",
"Q  c #AA9254",
"!  c #858464",
"~  c #BCB67B",
"^  c #C09040",
"/  c #C09140",
"(  c #C19140",
")  c #C09141",
"_  c #C19344",
"`  c #C49847",
"'  c #C59847",
"]  c #C59947",
"[  c #C69A4A",
"{  c #DAAB4C",
"}  c #DAAA4D",
"|  c #DAAB4D",
" . c #DBAC4D",
".. c #D0AD5A",
"X. c #D1AE5C",
"o. c #D2AE5C",
"O. c #D3B360",
"+. c #D7B765",
"@. c #D7B766",
"#. c #DBBF6E",
"$. c #C8BE7E",
"%. c #E7D281",
"&. c #E8D281",
"*. c #E9D483",
"=. c #EAD785",
"-. c #EBD886",
";. c #ECDA88",
":. c #F4E99A",
">. c #F5E99B",
",. c #F6E99B",
"<. c #F9EFA0",
"1. c #FAF1A3",
"2. c #F9F1A5",
"3. c #FAF1A6",
"4. c #FAF2A6",
"5. c #FCF3A8",
"6. c #FEFBB9",
"7. c #FDFBBB",
"8. c #FDFCB9",
"9. c #FEFCBA",
/* pixels */
"                                ",
"              1.=.              ",
"            7.3.&.O.            ",
"            7.3.%.o._           ",
"        #.>.9.3.%.o./ B         ",
"      [ @.>.7.3.%.o.v z n       ",
"    P ' Q s ! 3.N - q j k T     ",
"  H L e p h % r o & ; > a W  .  ",
"  F S 4 1 0 5 4 # @ u + = Z }   ",
"c H U 8 < w i > o O < 2 d W } D ",
"c H U f % = 6 7 9 3 t l n R } A ",
"  H U ' g o y ~ %.o./ B n W }   ",
"  K L ' @.$.9.<.-.../ B n W }   ",
"    U ' @.>.  <.;.  / B n       ",
"              1.*.              ",
"              5.%.              "
};
