<svg width="750" height="520" viewBox="0 0 750 520" fill="none" xmlns="http://www.w3.org/2000/svg">
<g clip-path="url(#clip0_35_873)">
<rect width="750" height="520" fill="#121212"/>
<g opacity="0.06">
<mask id="mask0_35_873" style="mask-type:alpha" maskUnits="userSpaceOnUse" x="-20" y="-4" width="790" height="528">
<mask id="mask1_35_873" style="mask-type:luminance" maskUnits="userSpaceOnUse" x="-20" y="-4" width="790" height="528">
<path d="M769.537 -3.02441H-19.5366V523.025H769.537V-3.02441Z" fill="white"/>
</mask>
<g mask="url(#mask1_35_873)">
<path d="M392.759 495.512V463.055L362.101 445.359V480.151L333.558 496.627V462.413L303.457 479.804L274.377 462.971V431.092C274.817 430.971 275.205 430.711 275.484 430.351C275.763 429.99 275.917 429.549 275.924 429.093C275.922 428.911 275.893 428.731 275.84 428.557L303.72 412.46L303.983 412.312V376.962L273.83 394.353L244.224 377.256L214.618 394.353L185.549 377.519V343.989L215.67 326.598L185.549 309.207V274.414L155.111 291.963L154.848 292.11V325.693L127.757 310.048C127.812 309.875 127.84 309.694 127.841 309.512C127.832 309.058 127.677 308.619 127.398 308.261C127.119 307.902 126.732 307.644 126.294 307.523V241.452L155.637 224.513L155.901 224.365V188.962L125.547 206.511L125.284 206.659V240.841L96.215 257.675L67.6611 241.146L96.478 224.513L96.741 224.365V188.962L66.3459 206.511L66.0829 206.659V274.424L38.9914 258.78C39.0466 258.606 39.075 258.425 39.0756 258.243C39.0674 257.79 38.9136 257.353 38.6369 256.994C38.3602 256.636 37.9753 256.377 37.5395 256.255V223.755L8.4595 206.922L37.0134 190.435L37.5395 190.74V190.13L38.0655 189.825L37.5395 189.52V155.39L9.39587 139.146C9.44244 138.97 9.46717 138.79 9.46952 138.609C9.4807 138.211 9.37889 137.818 9.1759 137.476C8.97291 137.134 8.67706 136.856 8.32267 136.676C7.96828 136.495 7.56987 136.418 7.17367 136.454C6.77746 136.491 6.39969 136.639 6.08418 136.881C5.76868 137.124 5.52836 137.451 5.39111 137.824C5.25386 138.197 5.22531 138.602 5.30876 138.991C5.39221 139.38 5.58425 139.738 5.86259 140.022C6.14094 140.306 6.49419 140.506 6.88136 140.597V172.486L-23.2507 189.878L6.35531 206.974L-22.4617 223.608L-22.7247 223.755V257.896L-23.2507 258.201L-22.7247 258.506V292.689L6.34479 309.501L-22.4827 326.145L-22.6931 326.282V361.675L7.64939 344.168L7.91241 344.021V310.417V275.634L35.5195 259.695C35.7826 259.954 36.1091 260.139 36.4664 260.231V292.72L65.5358 309.554L36.7504 326.145L36.4874 326.293V360.486L8.86982 376.415C8.65065 376.161 8.37406 375.963 8.06309 375.838C7.75212 375.713 7.41576 375.664 7.08203 375.695C6.74829 375.727 6.42683 375.837 6.14442 376.018C5.86201 376.198 5.62681 376.444 5.45842 376.733C5.29002 377.023 5.1933 377.349 5.1763 377.684C5.15931 378.019 5.22253 378.353 5.3607 378.658C5.49888 378.963 5.70801 379.231 5.97068 379.44C6.23336 379.648 6.54197 379.79 6.87084 379.855V445.885L-22.4827 462.855L-22.6931 463.055V498.405V532.009L6.9024 549.095V549.706L7.42845 549.401L7.9545 549.706V549.095L37.2765 532.125L37.5395 531.978V496.585L8.86982 513.124C8.47789 512.736 7.9489 512.516 7.39688 512.514C6.84852 512.519 6.3238 512.738 5.93447 513.124L-21.1465 497.48L6.9024 481.288L37.0345 463.897L67.1561 481.319V446.516L96.478 429.598L96.741 429.44V396.952C97.1282 396.86 97.4815 396.66 97.7598 396.376C98.0382 396.092 98.2302 395.734 98.3136 395.345C98.3971 394.956 98.3685 394.552 98.2313 394.178C98.094 393.805 97.8537 393.478 97.5382 393.235C97.2227 392.993 96.8449 392.845 96.4487 392.809C96.0525 392.772 95.6541 392.849 95.2997 393.03C94.9453 393.211 94.6495 393.488 94.4465 393.83C94.2435 394.173 94.1417 394.565 94.1529 394.963C94.1552 395.144 94.18 395.325 94.2265 395.5L66.3459 411.597L66.0829 411.744V445.306L37.5605 428.841V361.065L66.609 344.294L96.741 361.685V326.903L124.348 310.964C124.608 311.221 124.931 311.406 125.284 311.5V344L153.428 360.244C153.334 360.588 153.334 360.952 153.428 361.296L125.547 377.393L125.284 377.551V445.864L97.8457 461.719C97.6641 461.42 97.4107 461.171 97.1087 460.994C96.8066 460.818 96.4652 460.72 96.1156 460.708C95.7659 460.697 95.419 460.773 95.1061 460.93C94.7932 461.086 94.5243 461.318 94.3237 461.605C94.123 461.891 93.997 462.223 93.9571 462.571C93.9171 462.919 93.9644 463.271 94.0947 463.595C94.225 463.92 94.4343 464.207 94.7034 464.43C94.9726 464.654 95.2932 464.807 95.6363 464.875V498.405L125.242 481.309V514.892L155.901 532.588V497.185L126.852 480.415L155.417 463.928L183.034 479.888C182.986 480.064 182.957 480.244 182.95 480.425C182.939 480.822 183.041 481.214 183.244 481.556C183.447 481.898 183.742 482.175 184.096 482.356C184.45 482.536 184.848 482.613 185.243 482.577C185.639 482.541 186.017 482.394 186.332 482.153C186.648 481.911 186.888 481.585 187.026 481.213C187.165 480.84 187.194 480.436 187.112 480.048C187.03 479.659 186.84 479.301 186.563 479.016C186.287 478.731 185.935 478.53 185.549 478.437V412.354L214.618 395.521L243.172 412.007L214.355 428.641L214.092 428.799V463.055L213.566 463.35L214.092 463.655V497.227L184.76 514.166L184.497 514.324V549.716L214.881 532.167L215.144 532.02V498.416L243.698 514.902V515.502L244.224 515.197L274.346 532.599V499.489C274.705 499.402 275.033 499.216 275.293 498.952L302.9 514.892V549.674L332.506 532.588L362.89 515.05L363.153 514.892V481.319L390.245 496.964C390.198 497.139 390.174 497.319 390.171 497.501C390.16 497.898 390.262 498.291 390.465 498.633C390.668 498.975 390.964 499.253 391.318 499.434C391.672 499.615 392.071 499.692 392.467 499.655C392.863 499.619 393.241 499.471 393.557 499.228C393.872 498.986 394.112 498.659 394.25 498.286C394.387 497.912 394.415 497.507 394.332 497.118C394.248 496.729 394.056 496.372 393.778 496.088C393.5 495.803 393.147 495.604 392.759 495.512ZM67.135 207.237L95.6889 190.751V223.724L67.135 240.231V207.237ZM6.86031 343.389L-21.641 359.865V326.903L6.91292 310.427L6.86031 343.389ZM36.5084 498.405V531.368L7.9545 547.854V516.575C8.38893 516.456 8.77365 516.2 9.05205 515.846C9.33046 515.492 9.48785 515.058 9.50108 514.608C9.49452 514.423 9.46627 514.239 9.41691 514.061L36.5084 498.405ZM6.9024 516.575V547.854L-21.641 531.368V498.405L5.4505 514.05C5.3953 514.224 5.36691 514.405 5.36633 514.587C5.37444 515.039 5.52827 515.477 5.80498 515.835C6.0817 516.194 6.46654 516.453 6.9024 516.575ZM332.506 497.185L303.952 513.671V480.72L332.506 464.233V497.185ZM273.294 495.512C272.94 495.607 272.617 495.791 272.357 496.049L245.276 480.415L273.294 464.233V495.512ZM244.75 445.927V412.965L271.894 428.599C271.841 428.773 271.812 428.953 271.81 429.135C271.818 429.588 271.972 430.026 272.249 430.384C272.526 430.742 272.91 431.002 273.346 431.124V462.413L244.75 445.927ZM273.294 427.147C272.94 427.241 272.617 427.426 272.357 427.683L245.276 412.049L273.294 395.868V427.147ZM244.224 446.842L272.768 463.318L259.806 470.809L244.224 479.804L215.67 463.318L228.643 455.838L244.224 446.842ZM244.75 481.319L271.894 496.964C271.84 497.138 271.812 497.319 271.81 497.501C271.811 497.683 271.839 497.864 271.894 498.037L244.75 513.682V481.319ZM302.9 411.744L275.293 427.683C275.03 427.425 274.703 427.24 274.346 427.147V395.268L302.9 378.782V411.744ZM155.943 358.792V327.513L184.497 343.989V376.962L157.405 361.317C157.452 361.142 157.476 360.962 157.479 360.78C157.471 360.328 157.317 359.89 157.04 359.532C156.763 359.174 156.378 358.914 155.943 358.792ZM155.943 362.769C156.298 362.679 156.622 362.494 156.879 362.232L183.96 377.835L155.943 394.016V362.769ZM185.023 343.116L156.469 326.598L170.472 318.518L185.023 310.101L213.566 326.587L185.023 343.116ZM155.943 292.72L184.497 276.234V309.207L155.943 325.693V292.72ZM126.337 207.269L154.89 190.782V223.755L126.337 240.231V207.269ZM125.284 275.024L115.952 280.421L96.741 291.563V258.548L125.284 242.114V275.024ZM95.6889 325.682L81.4646 317.445L67.1876 309.207V276.244L81.4646 284.482L95.7416 292.72L95.6889 325.682ZM67.135 242.114L95.6889 258.601V291.563L81.4646 283.272L67.1876 275.024L67.135 242.114ZM36.4874 256.255C36.1288 256.344 35.8014 256.529 35.5405 256.791L7.93345 240.841V207.879L36.4874 224.365V256.255ZM36.4874 156V188.962L7.93345 172.486V140.597C8.28692 140.503 8.60965 140.318 8.86982 140.061L36.4874 156ZM7.40741 173.391L35.9613 189.878L7.93345 206.059L7.40741 206.364L6.88136 206.059L-21.1465 189.878L7.40741 173.391ZM-21.641 224.365L6.91292 207.879V240.841L-21.641 257.328V224.365ZM-21.641 259.148L6.91292 275.634V308.596L-21.641 292.121V259.148ZM7.40741 274.729L-21.1465 258.243L-8.17417 250.752L7.40741 241.757L35.025 257.706C34.9175 258.049 34.9175 258.416 35.025 258.759L7.40741 274.729ZM37.5395 260.231C37.893 260.137 38.2157 259.952 38.4759 259.695L66.0829 275.634V308.596L37.5395 292.121V260.231ZM37.5395 326.903L66.0829 310.417V343.389L37.5395 359.865V326.903ZM7.9545 379.855C8.39744 379.733 8.78839 379.47 9.06765 379.105C9.3469 378.74 9.49913 378.294 9.50108 377.835C9.49361 377.653 9.46537 377.473 9.41691 377.298L36.5084 361.664V394.669L7.9545 411.144V379.855ZM36.5084 428.841L7.9545 445.317V412.354L36.5084 395.868V428.841ZM6.86031 480.099L-21.641 496.585V463.613L6.91292 447.126L6.86031 480.099ZM7.91241 446.537L36.4664 430.051V463.055L7.9545 479.499L7.91241 446.537ZM67.0929 412.354L94.7105 396.415C94.9707 396.672 95.2934 396.857 95.6469 396.952V428.841L67.135 445.317L67.0929 412.354ZM66.0408 447.126V479.499L37.5605 463.055V430.051L66.0829 446.516V447.137L66.0408 447.126ZM95.6258 359.865L67.135 343.389V310.417L81.4646 318.665L95.7416 326.903L95.6258 359.865ZM96.6779 325.693V292.72L112.985 283.251L125.221 276.192V307.471C124.785 307.593 124.401 307.852 124.124 308.21C123.847 308.569 123.693 309.007 123.685 309.459C123.686 309.641 123.714 309.822 123.769 309.996L96.6779 325.693ZM126.273 343.389V311.553C126.631 311.46 126.957 311.275 127.22 311.016L154.827 326.956V358.792C154.474 358.886 154.151 359.071 153.891 359.329L126.273 343.389ZM126.273 378.172L153.891 362.232C154.148 362.494 154.472 362.679 154.827 362.769V394.669L154.301 394.974L126.273 411.155V378.172ZM126.273 446.558L154.827 430.072V463.055L126.273 479.541V446.558ZM154.827 428.862L126.273 445.338V412.354L154.827 395.868V428.862ZM96.6253 496.606V464.938C97.0631 464.818 97.4503 464.559 97.729 464.201C98.0078 463.843 98.1631 463.404 98.1719 462.95C98.1719 462.887 98.1719 462.823 98.1719 462.76L125.2 447.147V480.099L96.6253 496.606ZM154.785 530.778L126.231 514.303V481.309L154.848 497.774L154.785 530.778ZM184.433 478.437C184.076 478.529 183.75 478.714 183.487 478.973L155.943 463.055V430.051L184.497 446.537L184.433 478.437ZM155.879 428.862V395.868L184.433 412.354V445.317L155.879 428.862ZM184.959 411.46L156.406 394.984L184.949 378.498L185.486 378.803L213.503 394.984L184.959 411.46ZM244.161 378.498L272.704 394.984L244.75 411.144L244.224 411.439L243.698 411.144L215.67 394.963L244.161 378.498ZM215.081 429.461L243.635 412.986V445.948L215.081 462.434V429.461ZM214.029 531.399L185.486 547.886V514.902L214.029 498.416V531.399ZM215.081 497.217V464.233L243.635 480.72V513.682L215.081 497.217ZM245.276 514.608L272.357 498.963C272.614 499.224 272.938 499.41 273.294 499.5V530.778L245.276 514.608ZM274.346 495.523V464.233L302.9 480.72V513.682L275.808 498.037C275.863 497.864 275.892 497.683 275.892 497.501C275.884 497.047 275.728 496.608 275.449 496.249C275.171 495.891 274.784 495.632 274.346 495.512V495.523ZM303.952 547.864V514.892L332.506 498.416V531.368L303.952 547.864ZM362.101 514.292L333.558 530.778V497.774L362.101 481.288V514.292ZM363.153 480.12V447.137L391.707 463.623V495.512C391.354 495.607 391.031 495.791 390.771 496.049L363.153 480.12ZM778.132 281.452L748.495 264.356L777.312 247.722L777.575 247.575V213.392L778.101 213.087L777.575 212.782V178.599L748.495 161.818L777.322 145.174L777.585 145.027V109.634L747.232 127.183L746.969 127.33V160.913V195.706L719.341 211.603C719.084 211.342 718.76 211.157 718.405 211.067V144.427L688.799 127.341V93.1583L660.655 76.9349C660.71 76.7576 660.738 76.5733 660.739 76.3878C660.739 76.2057 660.71 76.0248 660.655 75.8513L688.525 59.7331L688.788 59.5858V26.0239L717.311 42.4892V111.454L745.98 94.9048C746.199 95.1592 746.476 95.3575 746.788 95.483C747.099 95.6086 747.437 95.6577 747.771 95.6263C748.105 95.5949 748.427 95.484 748.71 95.3027C748.993 95.1214 749.228 94.8751 749.396 94.5843C749.564 94.2935 749.66 93.9667 749.676 93.6312C749.692 93.2957 749.628 92.9613 749.488 92.6559C749.348 92.3504 749.137 92.0829 748.873 91.8756C748.609 91.6683 748.299 91.5274 747.969 91.4644V25.4347L777.354 8.47491L777.617 8.3171V-27.0755L747.979 -9.95785L717.847 7.40177L687.726 -9.98941V24.8035L658.404 41.7317L658.141 41.879V74.3783C657.727 74.5214 657.369 74.7899 657.115 75.1462C656.861 75.5026 656.725 75.9293 656.725 76.3668C656.725 76.8043 656.861 77.231 657.115 77.5873C657.369 77.9437 657.727 78.2122 658.141 78.3553V110.855L687.747 127.941V161.513L659.193 177.999V144.416L629.608 127.33V126.72L629.082 127.025L628.556 126.72V127.33L599.202 144.269L598.939 144.416V179.82L627.598 163.27C627.99 163.659 628.519 163.878 629.071 163.88C629.343 163.881 629.613 163.828 629.864 163.723C630.115 163.618 630.343 163.464 630.534 163.27L658.141 179.209V248.185L688.273 230.783L717.353 247.617L746.391 264.356L717.879 280.842L717.353 280.537V281.147L716.827 281.452L717.353 281.747V315.93L746.948 333.026V364.915C746.562 365.009 746.21 365.21 745.934 365.495C745.657 365.78 745.466 366.137 745.385 366.526C745.303 366.915 745.332 367.319 745.47 367.692C745.608 368.064 745.849 368.39 746.165 368.631C746.48 368.873 746.858 369.02 747.253 369.056C747.649 369.092 748.047 369.015 748.401 368.834C748.755 368.653 749.05 368.376 749.253 368.035C749.456 367.693 749.558 367.301 749.547 366.904C749.541 366.722 749.513 366.542 749.463 366.367L777.343 350.27L777.606 350.112V314.709L748 331.795V298.843L778.132 281.452ZM748.021 127.941L776.575 111.454V144.416L748.021 160.903V127.941ZM776.554 246.964L748 263.451V230.478L776.554 214.002V246.964ZM776.554 212.172L748 195.696V162.723L776.554 179.209V212.172ZM747.443 196.601L775.997 213.087L763.024 220.578L747.443 229.573L719.825 213.623C719.933 213.281 719.933 212.914 719.825 212.571L747.443 196.601ZM717.353 179.209V211.098C716.993 211.185 716.665 211.371 716.406 211.635L703.076 203.934L688.799 195.696V162.734L703.076 170.971L717.353 179.209ZM718.405 42.4366L746.927 26.0134V58.9756L718.373 75.4515L718.405 42.4366ZM718.405 109.582V76.6719L746.959 60.1855V91.4644C746.523 91.5866 746.138 91.846 745.861 92.2042C745.585 92.5624 745.431 93.0003 745.423 93.4529C745.425 93.6341 745.45 93.8143 745.496 93.9894L718.405 109.582ZM748.021 -8.76897L776.575 -25.2553V7.70688L748.021 24.1933V-8.76897ZM746.969 24.793L718.373 41.2793V8.3171L746.927 -8.16928L746.969 24.793ZM688.778 -8.16928L717.321 8.3171V41.2793L688.799 24.8035V24.1827L688.778 -8.16928ZM687.726 26.0134V58.9756L660.119 74.9149C659.859 74.651 659.531 74.4651 659.172 74.3783V42.4892L687.726 26.0134ZM659.172 110.244V78.3553C659.528 78.2682 659.853 78.0822 660.108 77.8187L687.747 93.7685V126.731L659.172 110.244ZM717.332 145.037V177.999L703.055 169.762L688.778 161.513V128.551L717.332 145.037ZM599.991 177.989V145.027L628.556 128.54V159.83C628.12 159.952 627.735 160.211 627.458 160.57C627.181 160.928 627.028 161.366 627.02 161.818C627.022 161.999 627.047 162.18 627.093 162.355L599.991 177.989ZM629.608 159.83V128.551L658.151 145.027V177.989L631.07 162.355C631.117 162.18 631.141 161.999 631.144 161.818C631.136 161.366 630.982 160.928 630.705 160.57C630.428 160.211 630.044 159.952 629.608 159.83ZM659.203 179.209L687.757 162.734V195.696L659.203 212.172V179.209ZM659.203 213.392L687.747 196.874V229.847L659.193 246.323L659.203 213.392ZM688.809 229.868V196.874L703.086 205.123L715.901 212.487C715.846 212.661 715.817 212.842 715.817 213.024C715.825 213.478 715.981 213.917 716.259 214.275C716.538 214.633 716.925 214.892 717.363 215.012V246.323L688.809 229.868ZM718.405 215.075C718.758 214.981 719.081 214.796 719.341 214.539L746.948 230.478V263.451L718.405 246.964V215.075ZM746.948 265.26L747.474 264.955L748 265.26L776.028 281.442L747.443 297.928L718.931 281.452L746.948 265.26ZM718.405 282.357L746.948 298.843V331.806L718.405 315.33V282.357ZM776.554 316.54V349.502L748.937 365.452C748.68 365.19 748.356 365.005 748 364.915V333.026L776.554 316.54ZM601.538 110.602C601.531 110.417 601.503 110.233 601.454 110.055L629.334 93.9684L629.608 93.7685V25.4347L657.036 9.60066C657.218 9.89964 657.471 10.1486 657.773 10.325C658.075 10.5015 658.416 10.5998 658.766 10.6111C659.116 10.6224 659.463 10.5464 659.776 10.3899C660.088 10.2333 660.357 10.0013 660.558 9.71468C660.759 9.42808 660.885 9.09598 660.925 8.74843C660.965 8.40088 660.917 8.04884 660.787 7.72418C660.657 7.39951 660.447 7.11247 660.178 6.889C659.909 6.66554 659.588 6.51272 659.245 6.44436V-27.0755L629.608 -9.98941V-43.5619L598.992 -61.2581V-25.8656L628.03 -9.09512L599.465 7.40177L571.847 -8.54803C571.903 -8.72156 571.931 -8.90251 571.932 -9.08461C571.932 -9.64267 571.71 -10.1779 571.315 -10.5725C570.921 -10.9671 570.386 -11.1888 569.827 -11.1888C569.269 -11.1888 568.734 -10.9671 568.34 -10.5725C567.945 -10.1779 567.723 -9.64267 567.723 -9.08461C567.732 -8.63067 567.887 -8.19174 568.166 -7.83336C568.445 -7.47498 568.832 -7.21637 569.27 -7.09614V24.1827V58.9756L540.264 75.7566L511.71 59.2807L540.527 42.6365L540.79 42.4892V8.30657L541.316 8.00147L540.79 7.69636V-25.8761L570.133 -42.8149L570.396 -42.9622V-78.3547L540.001 -60.8163L539.737 -60.6584V-27.086L511.184 -43.5724V-44.1826L510.657 -43.8775L480.536 -61.2687V-28.1697C480.18 -28.0738 479.854 -27.8892 479.589 -27.6331L451.982 -43.5724V-78.3442L422.344 -61.2581L391.991 -43.7197L391.728 -43.5724V-9.99993L363.174 -26.4758V-27.086L362.648 -26.7809L362.122 -27.086V-26.4758L333.053 -9.64222L302.921 -27.086V7.69636L274.377 24.1827V-9.33711L243.719 -27.086L214.124 -44.1826V-9.33711L186.506 6.54957C186.216 6.24524 185.841 6.03481 185.43 5.9454C185.02 5.85599 184.591 5.89171 184.201 6.04796C183.811 6.2042 183.476 6.47381 183.24 6.822C183.005 7.1702 182.879 7.58102 182.879 8.00147C182.879 8.42193 183.005 8.83274 183.24 9.18093C183.476 9.52913 183.811 9.79873 184.201 9.95498C184.591 10.1112 185.02 10.1469 185.43 10.0575C185.841 9.96813 186.216 9.7577 186.506 9.45336L214.124 25.3821V60.1855L244.54 42.6365L244.803 42.4892V8.91679L273.325 25.3821V60.1855L301.984 43.636C302.245 43.8932 302.567 44.0782 302.921 44.1726V76.6614L333.579 94.3682V60.1855L363.174 77.2716V41.879L334.105 25.0981L362.648 8.61168L392.78 26.0029V-8.7795L421.292 -25.2659V41.8895L391.949 58.8283L391.686 58.9756V94.3682L420.345 77.8292C420.737 78.218 421.266 78.4371 421.818 78.4394C422.289 78.3903 422.73 78.1837 423.069 77.8529C423.409 77.5222 423.626 77.0867 423.687 76.6169C423.748 76.1471 423.648 75.6705 423.405 75.2642C423.161 74.858 422.787 74.5459 422.344 74.3783V42.4892L451.677 25.5505L451.94 25.4032V-8.16928L480.494 8.30657V40.1957C480.061 40.3269 479.681 40.5943 479.412 40.9582C479.143 41.3221 478.998 41.7631 479 42.2157C479.002 42.3969 479.027 42.5771 479.073 42.7523L451.193 58.8494L450.93 59.0072V94.3682L481.062 76.9349L510.657 94.021L540.264 76.9349L569.87 94.021L598.939 77.1874V108.466C598.553 108.56 598.201 108.761 597.924 109.046C597.648 109.331 597.457 109.689 597.375 110.077C597.293 110.466 597.323 110.87 597.461 111.243C597.599 111.615 597.84 111.941 598.156 112.183C598.471 112.424 598.849 112.571 599.244 112.607C599.64 112.643 600.038 112.566 600.391 112.385C600.745 112.205 601.041 111.927 601.244 111.586C601.446 111.244 601.548 110.852 601.538 110.455V110.602ZM628.556 93.1478L600.949 109.087C600.684 108.832 600.358 108.651 600.002 108.561V76.6719L600.528 76.3668L628.556 60.1855V93.1478ZM570.396 26.0029L598.939 42.4892V75.4515L570.396 58.9756V26.0029ZM599.991 42.4892L628.556 26.0134V58.9756L599.991 75.4515V42.4892ZM628.556 24.793L599.991 41.2793V8.3171L628.556 -8.16928V24.793ZM658.204 -25.2553V6.44436C657.768 6.56651 657.383 6.82594 657.106 7.18415C656.83 7.54236 656.676 7.98026 656.668 8.43283C656.668 8.50648 656.668 8.5696 656.668 8.63273L629.608 24.1933V-8.76897L658.204 -25.2553ZM600.044 -59.438L628.556 -42.9516V-9.98941L600.044 -26.4653V-59.438ZM570.396 -7.09614C570.751 -7.18577 571.075 -7.37138 571.332 -7.63271L598.939 8.3171V41.2688L570.396 24.793V-7.09614ZM510.657 24.4668L482.114 8.00147L495.086 0.521055L510.657 -8.47439L539.211 8.00147L526.239 15.4924L510.657 24.4668ZM481.588 -24.1822C481.94 -24.2801 482.262 -24.4646 482.524 -24.7188L509.605 -9.08461L481.588 7.09667V-24.1822ZM510.131 -9.99993L483.05 -25.6341C483.096 -25.813 483.121 -25.9966 483.124 -26.1812C483.12 -26.3623 483.096 -26.5423 483.05 -26.7178L510.131 -42.3519V-9.99993ZM510.131 25.4032V58.3654L483.05 42.7207C483.097 42.5456 483.122 42.3653 483.124 42.1841C483.116 41.7316 482.962 41.2937 482.685 40.9355C482.409 40.5772 482.024 40.3178 481.588 40.1957V8.91679L510.131 25.4032ZM481.588 44.1726C481.943 44.083 482.267 43.8973 482.524 43.636L509.605 59.2807L481.588 75.4515V44.1726ZM539.737 41.879L511.184 58.3654V25.3821L539.737 8.89575V41.879ZM540.79 -60.0482L569.343 -76.5346V-43.5724L540.79 -27.086V-60.0482ZM539.737 -25.8761V7.09667L511.184 -9.33711V-42.3519L539.737 -25.8761ZM509.605 -43.2673L482.524 -27.6331C482.264 -27.8903 481.941 -28.0753 481.588 -28.1697V-59.4485L509.605 -43.2673ZM450.93 -76.5241V-43.5724L422.344 -27.086V-60.0377L450.93 -76.5241ZM362.122 -25.2659V7.69636L333.579 24.1827V-8.7795L362.122 -25.2659ZM303.973 -25.2659L332.527 -8.7795V24.1827L318.25 15.9132L303.973 7.66479V-25.2659ZM332.527 58.3654L318.25 50.117L305.435 42.7523C305.5 42.5794 305.542 42.3991 305.561 42.2157C305.553 41.7618 305.397 41.3228 305.119 40.9645C304.84 40.6061 304.453 40.3475 304.015 40.2272V8.91679L318.292 17.1547L332.527 25.3821V58.3654ZM273.325 24.1827L244.771 7.69636V-25.2659L273.325 -8.7795V24.1827ZM215.176 -42.3625L243.719 -25.8761V7.09667L215.176 -9.33711V-42.3625ZM187.032 7.49646L214.639 -8.47439L243.193 8.00147L230.221 15.4924L214.65 24.4878L187.032 8.54856C187.127 8.20422 187.127 7.8408 187.032 7.49646ZM243.719 41.9106L215.176 58.3654V25.3821L243.719 8.89575V41.9106ZM274.377 58.397V25.3821L302.921 8.90628V40.1957C302.474 40.3135 302.078 40.5752 301.795 40.9403C301.512 41.3054 301.356 41.7536 301.353 42.2157C301.354 42.3978 301.382 42.5787 301.437 42.7523L274.377 58.397ZM332.527 92.5691L303.973 76.0617V44.1726C304.33 44.0799 304.657 43.8948 304.92 43.636L318.25 51.3374L332.527 59.5753V92.5691ZM362.122 75.483L333.579 58.9651V26.0029L362.122 42.4892V75.483ZM391.728 24.1827L363.174 7.69636V-25.2659L391.728 -8.7795V24.1827ZM392.78 -9.99993V-43.0042L421.292 -59.438V-26.4758L392.78 -9.99993ZM450.93 -42.3414V-9.33711L422.344 7.09667V-25.8656L450.93 -42.3414ZM392.78 92.5481V59.5858L421.292 43.0995V74.3783C420.854 74.4986 420.467 74.7572 420.189 75.1156C419.91 75.474 419.754 75.9129 419.746 76.3668C419.752 76.5518 419.78 76.7354 419.83 76.9139L392.78 92.5481ZM450.93 24.793L422.344 41.2793V8.30657L450.93 -8.16928V24.793ZM451.982 -42.3519L479.073 -26.7178C479.028 -26.5423 479.004 -26.3623 479 -26.1812C479.006 -25.7268 479.158 -25.2865 479.435 -24.9262C479.712 -24.5659 480.098 -24.3049 480.536 -24.1822V7.09667L451.982 -9.33711V-42.3519ZM451.982 59.5858L479.6 43.636C479.857 43.8973 480.18 44.083 480.536 44.1726V76.0617L451.982 92.5481V59.5858ZM510.657 92.8532L482.114 76.3668L510.131 60.1855L510.657 59.8804L511.184 60.1855L539.211 76.3668L510.657 92.8532ZM541.316 76.3668L569.87 59.8804L598.413 76.3668L569.87 92.8532L541.316 76.3668Z" fill="url(#paint0_linear_35_873)"/>
</g>
</mask>
<g mask="url(#mask0_35_873)">
<rect x="-19.5366" y="-3.02441" width="789.073" height="526.049" fill="url(#paint1_linear_35_873)"/>
</g>
</g>
</g>
<defs>
<linearGradient id="paint0_linear_35_873" x1="118.456" y1="638.029" x2="656.668" y2="-138.661" gradientUnits="userSpaceOnUse">
<stop stop-color="#C8CACC"/>
<stop offset="0.14" stop-color="#D5D6D7"/>
<stop offset="0.38" stop-color="#E4E6E6"/>
<stop offset="0.57" stop-color="#EAEBEB"/>
<stop offset="0.75" stop-color="#EEEFEF"/>
<stop offset="0.93" stop-color="#FAFBFB"/>
<stop offset="0.98" stop-color="white"/>
</linearGradient>
<linearGradient id="paint1_linear_35_873" x1="-204.786" y1="-186.998" x2="1061.27" y2="863.599" gradientUnits="userSpaceOnUse">
<stop stop-color="#A2682A"/>
<stop offset="0.08" stop-color="#BE8C3C"/>
<stop offset="0.18" stop-color="#BE8C3C"/>
<stop offset="0.27" stop-color="#D3B15F"/>
<stop offset="0.34" stop-color="#FAF0A0"/>
<stop offset="0.41" stop-color="#FFFFC2"/>
<stop offset="0.48" stop-color="#FAF0A0"/>
<stop offset="0.59" stop-color="#D3B15F"/>
<stop offset="0.67" stop-color="#BE8C3C"/>
<stop offset="0.77" stop-color="#B17B32"/>
<stop offset="0.83" stop-color="#BB8332"/>
<stop offset="0.88" stop-color="#D4A245"/>
<stop offset="0.93" stop-color="#E1B453"/>
<stop offset="1" stop-color="#A4692A"/>
</linearGradient>
<clipPath id="clip0_35_873">
<rect width="750" height="520" fill="white"/>
</clipPath>
</defs>
</svg>
