<svg width="24" height="24" viewBox="0 0 24 24" fill="none" xmlns="http://www.w3.org/2000/svg">
<g clip-path="url(#clip0_17_1597)">
<path d="M20.2723 9.28376C16.3448 6.1378 14.291 4.57462 12.0247 0.130371C9.74526 4.56809 7.68548 6.12373 3.74637 9.25612C-2.40683 14.1522 0.990953 20.5623 5.79358 20.8789C8.78624 21.0755 10.6042 18.9413 11.4426 17.6008C11.1883 19.3238 10.6817 22.3376 10.0488 23.8696H13.9191C13.2923 22.3335 12.7967 19.3238 12.5504 17.6028C13.3833 18.9448 15.1943 21.086 18.1874 20.8995C22.9906 20.6 26.4105 14.202 20.2723 9.28376Z" fill="url(#paint0_linear_17_1597)"/>
<path d="M17.9969 8.77716C17.9298 8.63996 17.8201 8.52817 17.6842 8.4585C17.5483 8.38883 17.3935 8.36502 17.243 8.39064L14.0654 9.06064C13.7206 9.14872 13.3997 9.31195 13.1254 9.53864L11.2501 11.226C11.027 11.427 10.944 11.8156 11.0662 12.09L12.7615 15.9065C12.8287 16.0436 12.9384 16.1552 13.0743 16.2248C13.2102 16.2944 13.365 16.3181 13.5155 16.2925L16.6926 15.6225C17.0376 15.5347 17.3588 15.3715 17.633 15.1445L19.5078 13.4576C19.731 13.2566 19.8139 12.8676 19.6918 12.5931L17.9969 8.77716Z" fill="url(#paint1_radial_17_1597)"/>
<path d="M14.107 9.93729C13.9592 9.60455 14.1296 9.27131 14.4855 9.19591L16.9986 8.66564C17.1814 8.63364 17.3696 8.66199 17.5348 8.74641C17.7 8.83083 17.8333 8.96674 17.9144 9.13359L19.3348 12.3308C19.4826 12.6631 19.3122 12.9968 18.9564 13.0717L16.4432 13.602C16.2605 13.634 16.0722 13.6056 15.907 13.5212C15.7418 13.4368 15.6086 13.3009 15.5274 13.134L14.107 9.93729Z" fill="url(#paint2_radial_17_1597)"/>
<path d="M17.666 9.85793C17.57 9.6413 17.3373 9.49855 17.1458 9.53876C16.9543 9.57897 16.8779 9.78706 16.9744 10.0042C17.0709 10.2213 17.3036 10.3636 17.4946 10.3234C17.6856 10.2832 17.7625 10.0746 17.666 9.85793Z" fill="url(#paint3_linear_17_1597)"/>
<path d="M15.5954 10.2952C15.4989 10.0781 15.2662 9.93532 15.0747 9.97553C14.8832 10.0157 14.8068 10.2268 14.9033 10.441C14.9998 10.6551 15.232 10.8008 15.4235 10.7601C15.615 10.7194 15.6914 10.5118 15.5954 10.2952Z" fill="url(#paint4_linear_17_1597)"/>
<path d="M18.5401 11.8246C18.4436 11.608 18.2109 11.4647 18.0199 11.5055C17.8289 11.5462 17.752 11.7538 17.848 11.9709C17.944 12.188 18.1777 12.3303 18.3687 12.2901C18.5597 12.2498 18.6366 12.0418 18.5401 11.8246Z" fill="url(#paint5_linear_17_1597)"/>
<path d="M16.4671 12.2622C16.3706 12.0451 16.1379 11.9024 15.9469 11.9426C15.7559 11.9828 15.6784 12.1909 15.775 12.408C15.8715 12.6251 16.1042 12.7674 16.2952 12.7272C16.4862 12.687 16.5636 12.4789 16.4671 12.2622Z" fill="url(#paint6_linear_17_1597)"/>
<path d="M15.2792 14.6319C15.5496 14.3886 16.0618 14.1292 16.4181 14.0528L18.5161 13.61C18.8725 13.5351 18.9423 13.6728 18.6719 13.9161L17.6164 14.8656C17.346 15.1089 16.8338 15.3682 16.4774 15.4446L14.3795 15.8874C14.0236 15.9623 13.9532 15.8246 14.2236 15.5813L15.2792 14.6319Z" fill="url(#paint7_radial_17_1597)"/>
<path d="M16.7341 14.6881C16.8346 14.5981 16.7874 14.5524 16.629 14.5876C16.4584 14.6265 16.2985 14.7029 16.1611 14.8112C16.0606 14.9012 16.1083 14.9469 16.2666 14.9118C16.437 14.8725 16.5966 14.7962 16.7341 14.6881Z" fill="url(#paint8_linear_17_1597)"/>
<path d="M18.0455 14.0985C18.146 14.0085 18.0988 13.9628 17.9404 13.998C17.77 14.037 17.6103 14.1134 17.473 14.2216C17.3725 14.3116 17.4227 14.3573 17.578 14.3222C17.7484 14.2828 17.908 14.2065 18.0455 14.0985Z" fill="url(#paint9_linear_17_1597)"/>
<path d="M16.3312 14.461C16.4317 14.371 16.3844 14.3248 16.2261 14.3605C16.0556 14.3995 15.8958 14.4757 15.7582 14.5836C15.6576 14.6736 15.7049 14.7199 15.8632 14.6842C16.0338 14.6453 16.1936 14.5691 16.3312 14.461Z" fill="url(#paint10_linear_17_1597)"/>
<path d="M17.1373 14.9161C17.2378 14.8257 17.1906 14.7799 17.0323 14.8156C16.8617 14.8546 16.7019 14.9308 16.5643 15.0388C16.4638 15.1293 16.514 15.175 16.6694 15.1393C16.8399 15.1002 16.9996 15.024 17.1373 14.9161Z" fill="url(#paint11_linear_17_1597)"/>
<path d="M15.4222 15.2782C15.5227 15.1877 15.4755 15.142 15.3172 15.1777C15.1467 15.2168 14.9871 15.2932 14.8497 15.4013C14.7492 15.4913 14.7964 15.5376 14.9548 15.5019C15.1251 15.4629 15.2848 15.3867 15.4222 15.2787" fill="url(#paint12_linear_17_1597)"/>
<path d="M11.3752 12.2521C11.2274 11.9199 11.3249 11.4479 11.5979 11.2051L12.96 9.97972C13.2304 9.73644 13.5727 9.80932 13.72 10.1421L15.1354 13.3272C15.2832 13.6595 15.1856 14.1314 14.9127 14.3742L13.5506 15.5996C13.2802 15.8429 12.9379 15.77 12.7906 15.4373L11.3752 12.2521Z" fill="url(#paint13_radial_17_1597)"/>
<path d="M11.8397 12.1303C11.8216 12.4253 11.9653 12.7374 12.1614 12.8289C12.3574 12.9204 12.5303 12.7555 12.5489 12.4605C12.5675 12.1655 12.4227 11.8528 12.2272 11.7618C12.0317 11.6709 11.8578 11.8357 11.8397 12.1303Z" fill="url(#paint14_linear_17_1597)"/>
<path d="M13.9617 13.1185C13.9436 13.4136 14.0874 13.7257 14.2834 13.8172C14.4795 13.9087 14.6529 13.7438 14.671 13.4488C14.689 13.1537 14.5453 12.8411 14.3493 12.7501C14.1532 12.6591 13.9798 12.824 13.9617 13.1185Z" fill="url(#paint15_linear_17_1597)"/>
<path d="M11.9933 12.3709C11.8957 12.0157 11.7136 11.6894 11.4626 11.4199L9.37061 9.36617C9.14794 9.14752 8.74081 9.08922 8.46588 9.23699L4.68509 11.2656C4.54631 11.3479 4.4361 11.4707 4.36932 11.6176C4.30254 11.7644 4.28241 11.9282 4.31164 12.0869L5.01532 15.163C5.11323 15.518 5.2955 15.8441 5.5466 16.1135L7.63804 18.1672C7.86071 18.3859 8.26784 18.4442 8.54278 18.2964L12.3236 16.2678C12.4625 16.1857 12.5728 16.0629 12.6396 15.9159C12.7064 15.769 12.7265 15.6052 12.697 15.4465L11.9933 12.3709Z" fill="url(#paint16_radial_17_1597)"/>
<path d="M4.96859 11.9857C4.74593 11.7676 4.78865 11.468 5.06359 11.3202L8.42468 9.51629C8.69962 9.36852 9.10675 9.42682 9.32941 9.64546L11.0816 11.3665C11.3042 11.5851 11.2615 11.8847 10.9866 12.032L7.62499 13.8359C7.35006 13.9837 6.94293 13.9254 6.72026 13.7067L4.96859 11.9857Z" fill="url(#paint17_radial_17_1597)"/>
<path d="M9.54987 12.219C9.7655 12.1034 9.83436 11.9054 9.70066 11.7767C9.56696 11.648 9.2885 11.638 9.07338 11.7536C8.85825 11.8692 8.78889 12.0672 8.91957 12.1959C9.05026 12.3245 9.33123 12.3346 9.54736 12.219" fill="url(#paint18_linear_17_1597)"/>
<path d="M8.89074 11.572C9.10636 11.4564 9.17522 11.2584 9.04454 11.1297C8.91386 11.001 8.63239 10.991 8.41676 11.1066C8.20113 11.2222 8.13227 11.4202 8.26295 11.5489C8.39364 11.6776 8.67511 11.6876 8.89074 11.572Z" fill="url(#paint19_linear_17_1597)"/>
<path d="M8.2319 10.925C8.44753 10.8094 8.51639 10.6114 8.38571 10.4827C8.25502 10.354 7.97355 10.3435 7.75792 10.4596C7.54229 10.5757 7.47343 10.7732 7.60462 10.9019C7.73581 11.0306 8.01627 11.0406 8.2319 10.925Z" fill="url(#paint20_linear_17_1597)"/>
<path d="M8.29355 12.8928C8.50968 12.7767 8.57854 12.5787 8.44735 12.45C8.31616 12.3213 8.0357 12.3113 7.81957 12.4269C7.60343 12.5425 7.53507 12.741 7.66626 12.8692C7.79745 12.9974 8.07792 13.0084 8.29355 12.8928Z" fill="url(#paint21_linear_17_1597)"/>
<path d="M7.63538 12.2459C7.851 12.1298 7.91986 11.9317 7.78918 11.8031C7.6585 11.6744 7.37702 11.6643 7.16089 11.7799C6.94476 11.8955 6.87691 12.0941 7.00759 12.2222C7.13827 12.3504 7.41975 12.3615 7.63538 12.2459Z" fill="url(#paint22_linear_17_1597)"/>
<path d="M6.97616 11.5984C7.19179 11.4828 7.26116 11.2848 7.12997 11.1561C6.99878 11.0274 6.71781 11.0174 6.50219 11.133C6.28656 11.2486 6.21719 11.4466 6.34838 11.5753C6.47957 11.7039 6.76054 11.7145 6.97616 11.5984Z" fill="url(#paint23_linear_17_1597)"/>
<path d="M5.75164 15.9982C5.50089 15.7286 5.31868 15.4026 5.22036 15.0478L4.70516 12.7925C4.6353 12.4879 4.76045 12.418 4.98362 12.6366L6.47492 14.1013C6.72584 14.3708 6.90809 14.6969 7.0062 15.0518L7.51989 17.3071C7.58925 17.6117 7.4641 17.6815 7.24143 17.4629L5.75164 15.9982Z" fill="url(#paint24_radial_17_1597)"/>
<path d="M6.45724 15.3873C6.39441 15.1134 6.18985 14.7404 5.99985 14.554C5.80986 14.3675 5.70682 14.4378 5.76965 14.7118C5.83247 14.9857 6.03654 15.3587 6.22654 15.5451C6.41653 15.7316 6.51957 15.6607 6.45724 15.3873Z" fill="url(#paint25_linear_17_1597)"/>
<path d="M7.47228 15.0542C7.44305 14.8955 7.46318 14.7317 7.52996 14.5848C7.59674 14.438 7.70695 14.3151 7.84574 14.2329L11.2134 12.4269C11.4883 12.2791 11.7703 12.4073 11.8396 12.7114L12.4383 15.3286C12.4675 15.4873 12.4472 15.6511 12.3804 15.798C12.3135 15.9449 12.2032 16.0677 12.0643 16.1499L8.69669 17.9563C8.42175 18.1036 8.13978 17.9754 8.06991 17.6713L7.47228 15.0542Z" fill="url(#paint26_radial_17_1597)"/>
<path d="M8.45828 14.662C8.5955 14.4398 8.85586 14.3126 9.04083 14.378C9.2258 14.4433 9.264 14.676 9.12678 14.8982C8.98956 15.1204 8.7292 15.2475 8.54423 15.1822C8.35926 15.1169 8.32106 14.8841 8.45828 14.662Z" fill="url(#paint27_linear_17_1597)"/>
<path d="M9.62009 15.0731C9.75731 14.8509 10.0177 14.7238 10.2026 14.7891C10.3876 14.8545 10.4258 15.0872 10.2891 15.3093C10.1524 15.5315 9.89101 15.6612 9.70654 15.5933C9.52208 15.5255 9.48338 15.2953 9.62009 15.0731Z" fill="url(#paint28_linear_17_1597)"/>
<path d="M10.7816 15.4833C10.9188 15.2612 11.1797 15.1345 11.3642 15.1993C11.5486 15.2642 11.5878 15.4974 11.4506 15.7196C11.3134 15.9417 11.053 16.0714 10.8681 16.0035C10.6831 15.9357 10.6449 15.7055 10.7816 15.4833Z" fill="url(#paint29_linear_17_1597)"/>
</g>
<defs>
<linearGradient id="paint0_linear_17_1597" x1="0.421472" y1="12.0015" x2="23.5781" y2="12.0015" gradientUnits="userSpaceOnUse">
<stop stop-color="#A2682A"/>
<stop offset="0.08" stop-color="#BE8C3C"/>
<stop offset="0.18" stop-color="#BE8C3C"/>
<stop offset="0.27" stop-color="#D3B15F"/>
<stop offset="0.34" stop-color="#FAF0A0"/>
<stop offset="0.41" stop-color="#FFFFC2"/>
<stop offset="0.48" stop-color="#FAF0A0"/>
<stop offset="0.59" stop-color="#D3B15F"/>
<stop offset="0.67" stop-color="#BE8C3C"/>
<stop offset="0.77" stop-color="#B17B32"/>
<stop offset="0.83" stop-color="#BB8332"/>
<stop offset="0.88" stop-color="#D4A245"/>
<stop offset="0.93" stop-color="#E1B453"/>
<stop offset="1" stop-color="#A4692A"/>
</linearGradient>
<radialGradient id="paint1_radial_17_1597" cx="0" cy="0" r="1" gradientUnits="userSpaceOnUse" gradientTransform="translate(15.3782 12.3418) scale(7.13634 7.13634)">
<stop offset="0.14" stop-color="#404040"/>
<stop offset="0.24" stop-color="#393939"/>
<stop offset="0.39" stop-color="#262626"/>
<stop offset="0.55" stop-color="#0B0B0B"/>
<stop offset="0.69" stop-color="#050505"/>
<stop offset="0.94"/>
</radialGradient>
<radialGradient id="paint2_radial_17_1597" cx="0" cy="0" r="1" gradientUnits="userSpaceOnUse" gradientTransform="translate(18.0913 8.53244) scale(6.69503 6.69503)">
<stop offset="0.14" stop-color="#404040"/>
<stop offset="0.24" stop-color="#393939"/>
<stop offset="0.39" stop-color="#262626"/>
<stop offset="0.55" stop-color="#0B0B0B"/>
<stop offset="0.69" stop-color="#050505"/>
<stop offset="0.94"/>
</radialGradient>
<linearGradient id="paint3_linear_17_1597" x1="16.6446" y1="15.3708" x2="17.3428" y2="9.74786" gradientUnits="userSpaceOnUse">
<stop stop-color="#663500"/>
<stop offset="0.08" stop-color="#764710"/>
<stop offset="0.24" stop-color="#9E7538"/>
<stop offset="0.41" stop-color="#D0AD6A"/>
<stop offset="0.5" stop-color="#D8B97C"/>
<stop offset="0.72" stop-color="#EAD3A2"/>
</linearGradient>
<linearGradient id="paint4_linear_17_1597" x1="14.6585" y1="15.1235" x2="15.3567" y2="9.50105" gradientUnits="userSpaceOnUse">
<stop stop-color="#663500"/>
<stop offset="0.08" stop-color="#764710"/>
<stop offset="0.24" stop-color="#9E7538"/>
<stop offset="0.41" stop-color="#D0AD6A"/>
<stop offset="0.5" stop-color="#D8B97C"/>
<stop offset="0.72" stop-color="#EAD3A2"/>
</linearGradient>
<linearGradient id="paint5_linear_17_1597" x1="17.7459" y1="15.5069" x2="18.4441" y2="9.88447" gradientUnits="userSpaceOnUse">
<stop stop-color="#663500"/>
<stop offset="0.08" stop-color="#764710"/>
<stop offset="0.24" stop-color="#9E7538"/>
<stop offset="0.41" stop-color="#D0AD6A"/>
<stop offset="0.5" stop-color="#D8B97C"/>
<stop offset="0.72" stop-color="#EAD3A2"/>
</linearGradient>
<linearGradient id="paint6_linear_17_1597" x1="15.7599" y1="15.2609" x2="16.458" y2="9.63801" gradientUnits="userSpaceOnUse">
<stop stop-color="#663500"/>
<stop offset="0.08" stop-color="#764710"/>
<stop offset="0.24" stop-color="#9E7538"/>
<stop offset="0.41" stop-color="#D0AD6A"/>
<stop offset="0.5" stop-color="#D8B97C"/>
<stop offset="0.72" stop-color="#EAD3A2"/>
</linearGradient>
<radialGradient id="paint7_radial_17_1597" cx="0" cy="0" r="1" gradientUnits="userSpaceOnUse" gradientTransform="translate(16.9519 11.1044) scale(4.41762)">
<stop offset="0.14" stop-color="#404040"/>
<stop offset="0.24" stop-color="#393939"/>
<stop offset="0.39" stop-color="#262626"/>
<stop offset="0.55" stop-color="#0B0B0B"/>
<stop offset="0.69" stop-color="#050505"/>
<stop offset="0.94"/>
</radialGradient>
<linearGradient id="paint8_linear_17_1597" x1="16.1973" y1="15.1058" x2="17.8635" y2="12.7294" gradientUnits="userSpaceOnUse">
<stop stop-color="#663500"/>
<stop offset="0.08" stop-color="#764710"/>
<stop offset="0.24" stop-color="#9E7538"/>
<stop offset="0.41" stop-color="#D0AD6A"/>
<stop offset="0.5" stop-color="#D8B97C"/>
<stop offset="0.72" stop-color="#EAD3A2"/>
</linearGradient>
<linearGradient id="paint9_linear_17_1597" x1="16.7995" y1="15.528" x2="18.4657" y2="13.1515" gradientUnits="userSpaceOnUse">
<stop stop-color="#663500"/>
<stop offset="0.08" stop-color="#764710"/>
<stop offset="0.24" stop-color="#9E7538"/>
<stop offset="0.41" stop-color="#D0AD6A"/>
<stop offset="0.5" stop-color="#D8B97C"/>
<stop offset="0.72" stop-color="#EAD3A2"/>
</linearGradient>
<linearGradient id="paint10_linear_17_1597" x1="15.82" y1="14.8415" x2="17.4862" y2="12.4646" gradientUnits="userSpaceOnUse">
<stop stop-color="#663500"/>
<stop offset="0.08" stop-color="#764710"/>
<stop offset="0.24" stop-color="#9E7538"/>
<stop offset="0.41" stop-color="#D0AD6A"/>
<stop offset="0.5" stop-color="#D8B97C"/>
<stop offset="0.72" stop-color="#EAD3A2"/>
</linearGradient>
<linearGradient id="paint11_linear_17_1597" x1="16.5749" y1="15.37" x2="18.2411" y2="12.9936" gradientUnits="userSpaceOnUse">
<stop stop-color="#663500"/>
<stop offset="0.08" stop-color="#764710"/>
<stop offset="0.24" stop-color="#9E7538"/>
<stop offset="0.41" stop-color="#D0AD6A"/>
<stop offset="0.5" stop-color="#D8B97C"/>
<stop offset="0.72" stop-color="#EAD3A2"/>
</linearGradient>
<linearGradient id="paint12_linear_17_1597" x1="15.5951" y1="14.6836" x2="17.2608" y2="12.3072" gradientUnits="userSpaceOnUse">
<stop stop-color="#663500"/>
<stop offset="0.08" stop-color="#764710"/>
<stop offset="0.24" stop-color="#9E7538"/>
<stop offset="0.41" stop-color="#D0AD6A"/>
<stop offset="0.5" stop-color="#D8B97C"/>
<stop offset="0.72" stop-color="#EAD3A2"/>
</linearGradient>
<radialGradient id="paint13_radial_17_1597" cx="0" cy="0" r="1" gradientUnits="userSpaceOnUse" gradientTransform="translate(18.0547 11.0805) scale(4.27286)">
<stop offset="0.14" stop-color="#404040"/>
<stop offset="0.24" stop-color="#393939"/>
<stop offset="0.39" stop-color="#262626"/>
<stop offset="0.55" stop-color="#0B0B0B"/>
<stop offset="0.69" stop-color="#050505"/>
<stop offset="0.94"/>
</radialGradient>
<linearGradient id="paint14_linear_17_1597" x1="14.1709" y1="12.357" x2="20.4427" y2="12.553" gradientUnits="userSpaceOnUse">
<stop stop-color="#663500"/>
<stop offset="0.08" stop-color="#764710"/>
<stop offset="0.24" stop-color="#9E7538"/>
<stop offset="0.41" stop-color="#D0AD6A"/>
<stop offset="0.5" stop-color="#D8B97C"/>
<stop offset="0.72" stop-color="#EAD3A2"/>
</linearGradient>
<linearGradient id="paint15_linear_17_1597" x1="14.1417" y1="13.2784" x2="20.4135" y2="13.4744" gradientUnits="userSpaceOnUse">
<stop stop-color="#663500"/>
<stop offset="0.08" stop-color="#764710"/>
<stop offset="0.24" stop-color="#9E7538"/>
<stop offset="0.41" stop-color="#D0AD6A"/>
<stop offset="0.5" stop-color="#D8B97C"/>
<stop offset="0.72" stop-color="#EAD3A2"/>
</linearGradient>
<radialGradient id="paint16_radial_17_1597" cx="0" cy="0" r="1" gradientUnits="userSpaceOnUse" gradientTransform="translate(7.54807 12.297) scale(6.77143 6.77143)">
<stop offset="0.14" stop-color="#404040"/>
<stop offset="0.24" stop-color="#393939"/>
<stop offset="0.39" stop-color="#262626"/>
<stop offset="0.55" stop-color="#0B0B0B"/>
<stop offset="0.69" stop-color="#050505"/>
<stop offset="0.94"/>
</radialGradient>
<radialGradient id="paint17_radial_17_1597" cx="0" cy="0" r="1" gradientUnits="userSpaceOnUse" gradientTransform="translate(3.88392 8.6211) scale(8.47786 8.47786)">
<stop offset="0.14" stop-color="#404040"/>
<stop offset="0.24" stop-color="#393939"/>
<stop offset="0.39" stop-color="#262626"/>
<stop offset="0.55" stop-color="#0B0B0B"/>
<stop offset="0.69" stop-color="#050505"/>
<stop offset="0.94"/>
</radialGradient>
<linearGradient id="paint18_linear_17_1597" x1="8.47324" y1="15.8234" x2="9.67402" y2="10.3356" gradientUnits="userSpaceOnUse">
<stop stop-color="#663500"/>
<stop offset="0.08" stop-color="#764710"/>
<stop offset="0.24" stop-color="#9E7538"/>
<stop offset="0.41" stop-color="#D0AD6A"/>
<stop offset="0.5" stop-color="#D8B97C"/>
<stop offset="0.72" stop-color="#EAD3A2"/>
</linearGradient>
<linearGradient id="paint19_linear_17_1597" x1="7.70905" y1="15.6569" x2="8.90984" y2="10.1687" gradientUnits="userSpaceOnUse">
<stop stop-color="#663500"/>
<stop offset="0.08" stop-color="#764710"/>
<stop offset="0.24" stop-color="#9E7538"/>
<stop offset="0.41" stop-color="#D0AD6A"/>
<stop offset="0.5" stop-color="#D8B97C"/>
<stop offset="0.72" stop-color="#EAD3A2"/>
</linearGradient>
<linearGradient id="paint20_linear_17_1597" x1="6.94567" y1="15.4894" x2="8.14596" y2="10.0012" gradientUnits="userSpaceOnUse">
<stop stop-color="#663500"/>
<stop offset="0.08" stop-color="#764710"/>
<stop offset="0.24" stop-color="#9E7538"/>
<stop offset="0.41" stop-color="#D0AD6A"/>
<stop offset="0.5" stop-color="#D8B97C"/>
<stop offset="0.72" stop-color="#EAD3A2"/>
</linearGradient>
<linearGradient id="paint21_linear_17_1597" x1="7.41545" y1="15.592" x2="8.61573" y2="10.1042" gradientUnits="userSpaceOnUse">
<stop stop-color="#663500"/>
<stop offset="0.08" stop-color="#764710"/>
<stop offset="0.24" stop-color="#9E7538"/>
<stop offset="0.41" stop-color="#D0AD6A"/>
<stop offset="0.5" stop-color="#D8B97C"/>
<stop offset="0.72" stop-color="#EAD3A2"/>
</linearGradient>
<linearGradient id="paint22_linear_17_1597" x1="6.65173" y1="15.425" x2="7.85252" y2="9.93729" gradientUnits="userSpaceOnUse">
<stop stop-color="#663500"/>
<stop offset="0.08" stop-color="#764710"/>
<stop offset="0.24" stop-color="#9E7538"/>
<stop offset="0.41" stop-color="#D0AD6A"/>
<stop offset="0.5" stop-color="#D8B97C"/>
<stop offset="0.72" stop-color="#EAD3A2"/>
</linearGradient>
<linearGradient id="paint23_linear_17_1597" x1="5.88797" y1="15.258" x2="7.08826" y2="9.76982" gradientUnits="userSpaceOnUse">
<stop stop-color="#663500"/>
<stop offset="0.08" stop-color="#764710"/>
<stop offset="0.24" stop-color="#9E7538"/>
<stop offset="0.41" stop-color="#D0AD6A"/>
<stop offset="0.5" stop-color="#D8B97C"/>
<stop offset="0.72" stop-color="#EAD3A2"/>
</linearGradient>
<radialGradient id="paint24_radial_17_1597" cx="0" cy="0" r="1" gradientUnits="userSpaceOnUse" gradientTransform="translate(2.81527 10.516) scale(9.59621 9.59621)">
<stop offset="0.14" stop-color="#404040"/>
<stop offset="0.24" stop-color="#393939"/>
<stop offset="0.39" stop-color="#262626"/>
<stop offset="0.55" stop-color="#0B0B0B"/>
<stop offset="0.69" stop-color="#050505"/>
<stop offset="0.94"/>
</radialGradient>
<linearGradient id="paint25_linear_17_1597" x1="5.67013" y1="15.7572" x2="8.1692" y2="11.7644" gradientUnits="userSpaceOnUse">
<stop stop-color="#663500"/>
<stop offset="0.08" stop-color="#764710"/>
<stop offset="0.24" stop-color="#9E7538"/>
<stop offset="0.41" stop-color="#D0AD6A"/>
<stop offset="0.5" stop-color="#D8B97C"/>
<stop offset="0.72" stop-color="#EAD3A2"/>
</linearGradient>
<radialGradient id="paint26_radial_17_1597" cx="0" cy="0" r="1" gradientUnits="userSpaceOnUse" gradientTransform="translate(9.57227 12.245) scale(6.307 6.307)">
<stop offset="0.14" stop-color="#404040"/>
<stop offset="0.24" stop-color="#393939"/>
<stop offset="0.39" stop-color="#262626"/>
<stop offset="0.55" stop-color="#0B0B0B"/>
<stop offset="0.69" stop-color="#050505"/>
<stop offset="0.94"/>
</radialGradient>
<linearGradient id="paint27_linear_17_1597" x1="10.8614" y1="17.15" x2="8.43064" y2="14.3669" gradientUnits="userSpaceOnUse">
<stop stop-color="#663500"/>
<stop offset="0.08" stop-color="#764710"/>
<stop offset="0.24" stop-color="#9E7538"/>
<stop offset="0.41" stop-color="#D0AD6A"/>
<stop offset="0.5" stop-color="#D8B97C"/>
<stop offset="0.72" stop-color="#EAD3A2"/>
</linearGradient>
<linearGradient id="paint28_linear_17_1597" x1="11.4582" y1="16.9137" x2="9.02799" y2="14.1307" gradientUnits="userSpaceOnUse">
<stop stop-color="#663500"/>
<stop offset="0.08" stop-color="#764710"/>
<stop offset="0.24" stop-color="#9E7538"/>
<stop offset="0.41" stop-color="#D0AD6A"/>
<stop offset="0.5" stop-color="#D8B97C"/>
<stop offset="0.72" stop-color="#EAD3A2"/>
</linearGradient>
<linearGradient id="paint29_linear_17_1597" x1="12.0553" y1="16.6771" x2="9.62507" y2="13.894" gradientUnits="userSpaceOnUse">
<stop stop-color="#663500"/>
<stop offset="0.08" stop-color="#764710"/>
<stop offset="0.24" stop-color="#9E7538"/>
<stop offset="0.41" stop-color="#D0AD6A"/>
<stop offset="0.5" stop-color="#D8B97C"/>
<stop offset="0.72" stop-color="#EAD3A2"/>
</linearGradient>
<clipPath id="clip0_17_1597">
<rect width="24" height="24" fill="white"/>
</clipPath>
</defs>
</svg>
