<svg width="24" height="24" viewBox="0 0 24 24" fill="none" xmlns="http://www.w3.org/2000/svg">
<g clip-path="url(#clip0_33_38)">
<path d="M20.2723 9.28376C16.3448 6.1378 14.291 4.57462 12.0247 0.130371C9.74526 4.56809 7.68548 6.12373 3.74637 9.25612C-2.40683 14.1522 0.990953 20.5623 5.79358 20.8789C8.78624 21.0755 10.6043 18.9413 11.4426 17.6008C11.1883 19.3238 10.6817 22.3376 10.0488 23.8696H13.9191C13.2923 22.3335 12.7967 19.3238 12.5504 17.6028C13.3833 18.9448 15.1943 21.086 18.1874 20.8995C22.9906 20.6 26.4105 14.202 20.2723 9.28376Z" fill="url(#paint0_linear_33_38)"/>
<path d="M17.9969 8.7774C17.9298 8.64021 17.8202 8.52842 17.6842 8.45874C17.5483 8.38907 17.3935 8.36526 17.243 8.39088L14.0654 9.06089C13.7206 9.14897 13.3997 9.3122 13.1254 9.53889L11.2501 11.2262C11.027 11.4273 10.944 11.8158 11.0662 12.0902L12.7615 15.9067C12.8287 16.0438 12.9384 16.1555 13.0743 16.2251C13.2102 16.2946 13.365 16.3184 13.5155 16.2927L16.6926 15.6227C17.0376 15.535 17.3588 15.3717 17.633 15.1447L19.5078 13.4579C19.731 13.2568 19.8139 12.8678 19.6918 12.5934L17.9969 8.7774Z" fill="url(#paint1_radial_33_38)"/>
<path d="M14.107 9.93778C13.9592 9.60504 14.1296 9.2718 14.4855 9.1964L16.9986 8.66613C17.1814 8.63413 17.3696 8.66248 17.5348 8.7469C17.7 8.83132 17.8333 8.96723 17.9144 9.13408L19.3348 12.3313C19.4826 12.6635 19.3122 12.9973 18.9564 13.0722L16.4432 13.6025C16.2605 13.6345 16.0722 13.6061 15.907 13.5217C15.7418 13.4373 15.6086 13.3014 15.5274 13.1345L14.107 9.93778Z" fill="url(#paint2_radial_33_38)"/>
<path d="M17.666 9.85818C17.57 9.64154 17.3373 9.4988 17.1458 9.53901C16.9543 9.57922 16.8779 9.78731 16.9744 10.0044C17.0709 10.2216 17.3036 10.3638 17.4946 10.3236C17.6856 10.2834 17.7625 10.0748 17.666 9.85818Z" fill="url(#paint3_linear_33_38)"/>
<path d="M15.5954 10.2952C15.4989 10.0781 15.2662 9.93532 15.0747 9.97553C14.8832 10.0157 14.8068 10.2268 14.9033 10.441C14.9998 10.6551 15.232 10.8008 15.4235 10.7601C15.615 10.7194 15.6914 10.5118 15.5954 10.2952Z" fill="url(#paint4_linear_33_38)"/>
<path d="M18.5401 11.8251C18.4436 11.6085 18.2109 11.4652 18.0199 11.5059C17.8289 11.5467 17.752 11.7542 17.848 11.9714C17.944 12.1885 18.1777 12.3308 18.3687 12.2905C18.5597 12.2503 18.6366 12.0422 18.5401 11.8251Z" fill="url(#paint5_linear_33_38)"/>
<path d="M16.4671 12.2625C16.3706 12.0454 16.1379 11.9026 15.9469 11.9428C15.7559 11.983 15.6784 12.1911 15.775 12.4083C15.8715 12.6254 16.1042 12.7676 16.2952 12.7274C16.4862 12.6872 16.5636 12.4791 16.4671 12.2625Z" fill="url(#paint6_linear_33_38)"/>
<path d="M15.2792 14.6321C15.5496 14.3888 16.0618 14.1295 16.4181 14.0531L18.5161 13.6103C18.8725 13.5354 18.9423 13.6731 18.6719 13.9164L17.6164 14.8658C17.346 15.1091 16.8338 15.3685 16.4774 15.4449L14.3795 15.8877C14.0236 15.9626 13.9532 15.8248 14.2236 15.5816L15.2792 14.6321Z" fill="url(#paint7_radial_33_38)"/>
<path d="M16.7341 14.6881C16.8346 14.5981 16.7874 14.5524 16.629 14.5876C16.4584 14.6265 16.2985 14.7029 16.1611 14.8112C16.0606 14.9012 16.1083 14.9469 16.2666 14.9118C16.437 14.8725 16.5966 14.7962 16.7341 14.6881Z" fill="url(#paint8_linear_33_38)"/>
<path d="M18.0455 14.0987C18.146 14.0088 18.0988 13.963 17.9404 13.9982C17.77 14.0372 17.6103 14.1136 17.473 14.2219C17.3725 14.3119 17.4227 14.3576 17.578 14.3224C17.7484 14.2831 17.908 14.2067 18.0455 14.0987Z" fill="url(#paint9_linear_33_38)"/>
<path d="M16.3312 14.4612C16.4317 14.3713 16.3844 14.325 16.2261 14.3607C16.0556 14.3998 15.8958 14.476 15.7582 14.5839C15.6576 14.6739 15.7049 14.7201 15.8632 14.6844C16.0338 14.6456 16.1936 14.5693 16.3312 14.4612Z" fill="url(#paint10_linear_33_38)"/>
<path d="M17.1373 14.9164C17.2378 14.8259 17.1906 14.7802 17.0323 14.8159C16.8617 14.8548 16.7019 14.931 16.5643 15.039C16.4638 15.1295 16.514 15.1752 16.6694 15.1396C16.8399 15.1005 16.9996 15.0243 17.1373 14.9164Z" fill="url(#paint11_linear_33_38)"/>
<path d="M15.4222 15.2787C15.5227 15.1882 15.4755 15.1425 15.3172 15.1782C15.1467 15.2173 14.9871 15.2937 14.8497 15.4018C14.7492 15.4918 14.7964 15.538 14.9548 15.5024C15.1251 15.4634 15.2848 15.3872 15.4222 15.2792" fill="url(#paint12_linear_33_38)"/>
<path d="M11.3752 12.2521C11.2274 11.9199 11.3249 11.4479 11.5979 11.2051L12.96 9.97972C13.2304 9.73644 13.5727 9.80932 13.72 10.1421L15.1354 13.3272C15.2832 13.6595 15.1856 14.1314 14.9127 14.3742L13.5506 15.5996C13.2802 15.8429 12.9379 15.77 12.7906 15.4373L11.3752 12.2521Z" fill="url(#paint13_radial_33_38)"/>
<path d="M11.8397 12.1303C11.8216 12.4253 11.9653 12.7374 12.1614 12.8289C12.3574 12.9204 12.5303 12.7555 12.5489 12.4605C12.5675 12.1655 12.4227 11.8528 12.2272 11.7618C12.0317 11.6709 11.8578 11.8357 11.8397 12.1303Z" fill="url(#paint14_linear_33_38)"/>
<path d="M13.9617 13.1185C13.9436 13.4136 14.0874 13.7257 14.2834 13.8172C14.4795 13.9087 14.6529 13.7438 14.671 13.4488C14.689 13.1537 14.5453 12.8411 14.3493 12.7501C14.1532 12.6591 13.9798 12.824 13.9617 13.1185Z" fill="url(#paint15_linear_33_38)"/>
<path d="M11.9933 12.3714C11.8957 12.0162 11.7136 11.6899 11.4626 11.4204L9.37061 9.36666C9.14794 9.14801 8.74081 9.08971 8.46588 9.23748L4.68509 11.2661C4.54631 11.3484 4.4361 11.4712 4.36932 11.6181C4.30254 11.7649 4.28241 11.9287 4.31164 12.0874L5.01532 15.1635C5.11323 15.5185 5.2955 15.8446 5.5466 16.114L7.63804 18.1677C7.86071 18.3863 8.26784 18.4447 8.54278 18.2969L12.3236 16.2683C12.4625 16.1862 12.5728 16.0633 12.6396 15.9164C12.7064 15.7695 12.7265 15.6056 12.697 15.447L11.9933 12.3714Z" fill="url(#paint16_radial_33_38)"/>
<path d="M4.96859 11.9862C4.74593 11.7681 4.78865 11.4685 5.06359 11.3207L8.42468 9.51678C8.69962 9.369 9.10675 9.42731 9.32941 9.64595L11.0816 11.367C11.3042 11.5856 11.2615 11.8852 10.9866 12.0324L7.62499 13.8364C7.35006 13.9842 6.94293 13.9258 6.72026 13.7072L4.96859 11.9862Z" fill="url(#paint17_radial_33_38)"/>
<path d="M9.54987 12.2192C9.7655 12.1036 9.83436 11.9056 9.70066 11.7769C9.56696 11.6483 9.2885 11.6382 9.07338 11.7538C8.85825 11.8694 8.78889 12.0674 8.91957 12.1961C9.05026 12.3248 9.33123 12.3348 9.54736 12.2192" fill="url(#paint18_linear_33_38)"/>
<path d="M8.89074 11.5723C9.10636 11.4567 9.17522 11.2586 9.04454 11.13C8.91386 11.0013 8.63239 10.9912 8.41676 11.1068C8.20113 11.2224 8.13227 11.4205 8.26295 11.5491C8.39364 11.6778 8.67511 11.6879 8.89074 11.5723Z" fill="url(#paint19_linear_33_38)"/>
<path d="M8.2319 10.9255C8.44753 10.8099 8.51639 10.6119 8.38571 10.4832C8.25502 10.3545 7.97355 10.344 7.75792 10.4601C7.54229 10.5762 7.47343 10.7737 7.60462 10.9024C7.73581 11.031 8.01627 11.0411 8.2319 10.9255Z" fill="url(#paint20_linear_33_38)"/>
<path d="M8.29355 12.8931C8.50968 12.777 8.57854 12.5789 8.44735 12.4503C8.31616 12.3216 8.0357 12.3115 7.81957 12.4271C7.60343 12.5428 7.53507 12.7413 7.66626 12.8695C7.79745 12.9976 8.07792 13.0087 8.29355 12.8931Z" fill="url(#paint21_linear_33_38)"/>
<path d="M7.63538 12.2466C7.851 12.1305 7.91986 11.9325 7.78918 11.8038C7.6585 11.6751 7.37702 11.6651 7.16089 11.7807C6.94476 11.8963 6.87691 12.0948 7.00759 12.223C7.13827 12.3511 7.41975 12.3622 7.63538 12.2466Z" fill="url(#paint22_linear_33_38)"/>
<path d="M6.97616 11.5991C7.19179 11.4835 7.26116 11.2855 7.12997 11.1568C6.99878 11.0281 6.71781 11.0181 6.50219 11.1337C6.28656 11.2493 6.21719 11.4473 6.34838 11.576C6.47957 11.7047 6.76054 11.7152 6.97616 11.5991Z" fill="url(#paint23_linear_33_38)"/>
<path d="M5.75164 15.9987C5.50089 15.7291 5.31868 15.4031 5.22036 15.0482L4.70516 12.7929C4.6353 12.4884 4.76045 12.4185 4.98362 12.6371L6.47492 14.1018C6.72584 14.3713 6.90809 14.6973 7.0062 15.0523L7.51989 17.3076C7.58925 17.6122 7.4641 17.682 7.24143 17.4634L5.75164 15.9987Z" fill="url(#paint24_radial_33_38)"/>
<path d="M6.45724 15.3878C6.39441 15.1139 6.18985 14.7409 5.99985 14.5544C5.80986 14.368 5.70682 14.4383 5.76965 14.7123C5.83247 14.9862 6.03654 15.3592 6.22654 15.5456C6.41653 15.7321 6.51957 15.6612 6.45724 15.3878Z" fill="url(#paint25_linear_33_38)"/>
<path d="M7.47228 15.0549C7.44305 14.8962 7.46318 14.7324 7.52996 14.5856C7.59674 14.4387 7.70695 14.3158 7.84574 14.2336L11.2134 12.4276C11.4883 12.2799 11.7703 12.408 11.8396 12.7121L12.4383 15.3293C12.4675 15.488 12.4472 15.6519 12.3804 15.7987C12.3135 15.9456 12.2032 16.0684 12.0643 16.1506L8.69669 17.9571C8.42175 18.1043 8.13978 17.9762 8.06991 17.6721L7.47228 15.0549Z" fill="url(#paint26_radial_33_38)"/>
<path d="M8.45828 14.6625C8.5955 14.4403 8.85586 14.3131 9.04083 14.3785C9.2258 14.4438 9.264 14.6765 9.12678 14.8987C8.98956 15.1209 8.7292 15.248 8.54423 15.1827C8.35926 15.1173 8.32106 14.8846 8.45828 14.6625Z" fill="url(#paint27_linear_33_38)"/>
<path d="M9.62009 15.0736C9.75731 14.8514 10.0177 14.7243 10.2026 14.7896C10.3876 14.8549 10.4258 15.0877 10.2891 15.3098C10.1524 15.532 9.89101 15.6617 9.70654 15.5938C9.52208 15.526 9.48338 15.2958 9.62009 15.0736Z" fill="url(#paint28_linear_33_38)"/>
<path d="M10.7816 15.4841C10.9188 15.2619 11.1797 15.1352 11.3642 15.2001C11.5486 15.2649 11.5878 15.4981 11.4506 15.7203C11.3134 15.9425 11.053 16.0721 10.8681 16.0043C10.6831 15.9364 10.6449 15.7062 10.7816 15.4841Z" fill="url(#paint29_linear_33_38)"/>
</g>
<defs>
<linearGradient id="paint0_linear_33_38" x1="0.421472" y1="12.0015" x2="23.5781" y2="12.0015" gradientUnits="userSpaceOnUse">
<stop stop-color="#A2682A"/>
<stop offset="0.08" stop-color="#BE8C3C"/>
<stop offset="0.18" stop-color="#BE8C3C"/>
<stop offset="0.27" stop-color="#D3B15F"/>
<stop offset="0.34" stop-color="#FAF0A0"/>
<stop offset="0.41" stop-color="#FFFFC2"/>
<stop offset="0.48" stop-color="#FAF0A0"/>
<stop offset="0.59" stop-color="#D3B15F"/>
<stop offset="0.67" stop-color="#BE8C3C"/>
<stop offset="0.77" stop-color="#B17B32"/>
<stop offset="0.83" stop-color="#BB8332"/>
<stop offset="0.88" stop-color="#D4A245"/>
<stop offset="0.93" stop-color="#E1B453"/>
<stop offset="1" stop-color="#A4692A"/>
</linearGradient>
<radialGradient id="paint1_radial_33_38" cx="0" cy="0" r="1" gradientUnits="userSpaceOnUse" gradientTransform="translate(15.3782 12.3421) scale(7.13634 7.13634)">
<stop offset="0.14" stop-color="#404040"/>
<stop offset="0.24" stop-color="#393939"/>
<stop offset="0.39" stop-color="#262626"/>
<stop offset="0.55" stop-color="#0B0B0B"/>
<stop offset="0.69" stop-color="#050505"/>
<stop offset="0.94"/>
</radialGradient>
<radialGradient id="paint2_radial_33_38" cx="0" cy="0" r="1" gradientUnits="userSpaceOnUse" gradientTransform="translate(18.0913 8.53293) scale(6.69503 6.69503)">
<stop offset="0.14" stop-color="#404040"/>
<stop offset="0.24" stop-color="#393939"/>
<stop offset="0.39" stop-color="#262626"/>
<stop offset="0.55" stop-color="#0B0B0B"/>
<stop offset="0.69" stop-color="#050505"/>
<stop offset="0.94"/>
</radialGradient>
<linearGradient id="paint3_linear_33_38" x1="16.6446" y1="15.371" x2="17.3428" y2="9.7481" gradientUnits="userSpaceOnUse">
<stop stop-color="#663500"/>
<stop offset="0.08" stop-color="#764710"/>
<stop offset="0.24" stop-color="#9E7538"/>
<stop offset="0.41" stop-color="#D0AD6A"/>
<stop offset="0.5" stop-color="#D8B97C"/>
<stop offset="0.72" stop-color="#EAD3A2"/>
</linearGradient>
<linearGradient id="paint4_linear_33_38" x1="14.6585" y1="15.1235" x2="15.3567" y2="9.50105" gradientUnits="userSpaceOnUse">
<stop stop-color="#663500"/>
<stop offset="0.08" stop-color="#764710"/>
<stop offset="0.24" stop-color="#9E7538"/>
<stop offset="0.41" stop-color="#D0AD6A"/>
<stop offset="0.5" stop-color="#D8B97C"/>
<stop offset="0.72" stop-color="#EAD3A2"/>
</linearGradient>
<linearGradient id="paint5_linear_33_38" x1="17.7459" y1="15.5074" x2="18.4441" y2="9.88496" gradientUnits="userSpaceOnUse">
<stop stop-color="#663500"/>
<stop offset="0.08" stop-color="#764710"/>
<stop offset="0.24" stop-color="#9E7538"/>
<stop offset="0.41" stop-color="#D0AD6A"/>
<stop offset="0.5" stop-color="#D8B97C"/>
<stop offset="0.72" stop-color="#EAD3A2"/>
</linearGradient>
<linearGradient id="paint6_linear_33_38" x1="15.7599" y1="15.2612" x2="16.458" y2="9.63826" gradientUnits="userSpaceOnUse">
<stop stop-color="#663500"/>
<stop offset="0.08" stop-color="#764710"/>
<stop offset="0.24" stop-color="#9E7538"/>
<stop offset="0.41" stop-color="#D0AD6A"/>
<stop offset="0.5" stop-color="#D8B97C"/>
<stop offset="0.72" stop-color="#EAD3A2"/>
</linearGradient>
<radialGradient id="paint7_radial_33_38" cx="0" cy="0" r="1" gradientUnits="userSpaceOnUse" gradientTransform="translate(16.9519 11.1046) scale(4.41762)">
<stop offset="0.14" stop-color="#404040"/>
<stop offset="0.24" stop-color="#393939"/>
<stop offset="0.39" stop-color="#262626"/>
<stop offset="0.55" stop-color="#0B0B0B"/>
<stop offset="0.69" stop-color="#050505"/>
<stop offset="0.94"/>
</radialGradient>
<linearGradient id="paint8_linear_33_38" x1="16.1973" y1="15.1058" x2="17.8635" y2="12.7294" gradientUnits="userSpaceOnUse">
<stop stop-color="#663500"/>
<stop offset="0.08" stop-color="#764710"/>
<stop offset="0.24" stop-color="#9E7538"/>
<stop offset="0.41" stop-color="#D0AD6A"/>
<stop offset="0.5" stop-color="#D8B97C"/>
<stop offset="0.72" stop-color="#EAD3A2"/>
</linearGradient>
<linearGradient id="paint9_linear_33_38" x1="16.7995" y1="15.5282" x2="18.4657" y2="13.1518" gradientUnits="userSpaceOnUse">
<stop stop-color="#663500"/>
<stop offset="0.08" stop-color="#764710"/>
<stop offset="0.24" stop-color="#9E7538"/>
<stop offset="0.41" stop-color="#D0AD6A"/>
<stop offset="0.5" stop-color="#D8B97C"/>
<stop offset="0.72" stop-color="#EAD3A2"/>
</linearGradient>
<linearGradient id="paint10_linear_33_38" x1="15.82" y1="14.8417" x2="17.4862" y2="12.4648" gradientUnits="userSpaceOnUse">
<stop stop-color="#663500"/>
<stop offset="0.08" stop-color="#764710"/>
<stop offset="0.24" stop-color="#9E7538"/>
<stop offset="0.41" stop-color="#D0AD6A"/>
<stop offset="0.5" stop-color="#D8B97C"/>
<stop offset="0.72" stop-color="#EAD3A2"/>
</linearGradient>
<linearGradient id="paint11_linear_33_38" x1="16.5749" y1="15.3703" x2="18.2411" y2="12.9938" gradientUnits="userSpaceOnUse">
<stop stop-color="#663500"/>
<stop offset="0.08" stop-color="#764710"/>
<stop offset="0.24" stop-color="#9E7538"/>
<stop offset="0.41" stop-color="#D0AD6A"/>
<stop offset="0.5" stop-color="#D8B97C"/>
<stop offset="0.72" stop-color="#EAD3A2"/>
</linearGradient>
<linearGradient id="paint12_linear_33_38" x1="15.5951" y1="14.6841" x2="17.2608" y2="12.3076" gradientUnits="userSpaceOnUse">
<stop stop-color="#663500"/>
<stop offset="0.08" stop-color="#764710"/>
<stop offset="0.24" stop-color="#9E7538"/>
<stop offset="0.41" stop-color="#D0AD6A"/>
<stop offset="0.5" stop-color="#D8B97C"/>
<stop offset="0.72" stop-color="#EAD3A2"/>
</linearGradient>
<radialGradient id="paint13_radial_33_38" cx="0" cy="0" r="1" gradientUnits="userSpaceOnUse" gradientTransform="translate(18.0547 11.0805) scale(4.27286)">
<stop offset="0.14" stop-color="#404040"/>
<stop offset="0.24" stop-color="#393939"/>
<stop offset="0.39" stop-color="#262626"/>
<stop offset="0.55" stop-color="#0B0B0B"/>
<stop offset="0.69" stop-color="#050505"/>
<stop offset="0.94"/>
</radialGradient>
<linearGradient id="paint14_linear_33_38" x1="14.1709" y1="12.357" x2="20.4427" y2="12.553" gradientUnits="userSpaceOnUse">
<stop stop-color="#663500"/>
<stop offset="0.08" stop-color="#764710"/>
<stop offset="0.24" stop-color="#9E7538"/>
<stop offset="0.41" stop-color="#D0AD6A"/>
<stop offset="0.5" stop-color="#D8B97C"/>
<stop offset="0.72" stop-color="#EAD3A2"/>
</linearGradient>
<linearGradient id="paint15_linear_33_38" x1="14.1417" y1="13.2784" x2="20.4135" y2="13.4744" gradientUnits="userSpaceOnUse">
<stop stop-color="#663500"/>
<stop offset="0.08" stop-color="#764710"/>
<stop offset="0.24" stop-color="#9E7538"/>
<stop offset="0.41" stop-color="#D0AD6A"/>
<stop offset="0.5" stop-color="#D8B97C"/>
<stop offset="0.72" stop-color="#EAD3A2"/>
</linearGradient>
<radialGradient id="paint16_radial_33_38" cx="0" cy="0" r="1" gradientUnits="userSpaceOnUse" gradientTransform="translate(7.54807 12.2975) scale(6.77143 6.77143)">
<stop offset="0.14" stop-color="#404040"/>
<stop offset="0.24" stop-color="#393939"/>
<stop offset="0.39" stop-color="#262626"/>
<stop offset="0.55" stop-color="#0B0B0B"/>
<stop offset="0.69" stop-color="#050505"/>
<stop offset="0.94"/>
</radialGradient>
<radialGradient id="paint17_radial_33_38" cx="0" cy="0" r="1" gradientUnits="userSpaceOnUse" gradientTransform="translate(3.88392 8.62159) scale(8.47786 8.47786)">
<stop offset="0.14" stop-color="#404040"/>
<stop offset="0.24" stop-color="#393939"/>
<stop offset="0.39" stop-color="#262626"/>
<stop offset="0.55" stop-color="#0B0B0B"/>
<stop offset="0.69" stop-color="#050505"/>
<stop offset="0.94"/>
</radialGradient>
<linearGradient id="paint18_linear_33_38" x1="8.47324" y1="15.8236" x2="9.67402" y2="10.3359" gradientUnits="userSpaceOnUse">
<stop stop-color="#663500"/>
<stop offset="0.08" stop-color="#764710"/>
<stop offset="0.24" stop-color="#9E7538"/>
<stop offset="0.41" stop-color="#D0AD6A"/>
<stop offset="0.5" stop-color="#D8B97C"/>
<stop offset="0.72" stop-color="#EAD3A2"/>
</linearGradient>
<linearGradient id="paint19_linear_33_38" x1="7.70905" y1="15.6571" x2="8.90984" y2="10.1689" gradientUnits="userSpaceOnUse">
<stop stop-color="#663500"/>
<stop offset="0.08" stop-color="#764710"/>
<stop offset="0.24" stop-color="#9E7538"/>
<stop offset="0.41" stop-color="#D0AD6A"/>
<stop offset="0.5" stop-color="#D8B97C"/>
<stop offset="0.72" stop-color="#EAD3A2"/>
</linearGradient>
<linearGradient id="paint20_linear_33_38" x1="6.94567" y1="15.4899" x2="8.14596" y2="10.0017" gradientUnits="userSpaceOnUse">
<stop stop-color="#663500"/>
<stop offset="0.08" stop-color="#764710"/>
<stop offset="0.24" stop-color="#9E7538"/>
<stop offset="0.41" stop-color="#D0AD6A"/>
<stop offset="0.5" stop-color="#D8B97C"/>
<stop offset="0.72" stop-color="#EAD3A2"/>
</linearGradient>
<linearGradient id="paint21_linear_33_38" x1="7.41545" y1="15.5922" x2="8.61573" y2="10.1045" gradientUnits="userSpaceOnUse">
<stop stop-color="#663500"/>
<stop offset="0.08" stop-color="#764710"/>
<stop offset="0.24" stop-color="#9E7538"/>
<stop offset="0.41" stop-color="#D0AD6A"/>
<stop offset="0.5" stop-color="#D8B97C"/>
<stop offset="0.72" stop-color="#EAD3A2"/>
</linearGradient>
<linearGradient id="paint22_linear_33_38" x1="6.65173" y1="15.4257" x2="7.85252" y2="9.93802" gradientUnits="userSpaceOnUse">
<stop stop-color="#663500"/>
<stop offset="0.08" stop-color="#764710"/>
<stop offset="0.24" stop-color="#9E7538"/>
<stop offset="0.41" stop-color="#D0AD6A"/>
<stop offset="0.5" stop-color="#D8B97C"/>
<stop offset="0.72" stop-color="#EAD3A2"/>
</linearGradient>
<linearGradient id="paint23_linear_33_38" x1="5.88797" y1="15.2588" x2="7.08826" y2="9.77056" gradientUnits="userSpaceOnUse">
<stop stop-color="#663500"/>
<stop offset="0.08" stop-color="#764710"/>
<stop offset="0.24" stop-color="#9E7538"/>
<stop offset="0.41" stop-color="#D0AD6A"/>
<stop offset="0.5" stop-color="#D8B97C"/>
<stop offset="0.72" stop-color="#EAD3A2"/>
</linearGradient>
<radialGradient id="paint24_radial_33_38" cx="0" cy="0" r="1" gradientUnits="userSpaceOnUse" gradientTransform="translate(2.81527 10.5165) scale(9.59621 9.59621)">
<stop offset="0.14" stop-color="#404040"/>
<stop offset="0.24" stop-color="#393939"/>
<stop offset="0.39" stop-color="#262626"/>
<stop offset="0.55" stop-color="#0B0B0B"/>
<stop offset="0.69" stop-color="#050505"/>
<stop offset="0.94"/>
</radialGradient>
<linearGradient id="paint25_linear_33_38" x1="5.67013" y1="15.7577" x2="8.1692" y2="11.7648" gradientUnits="userSpaceOnUse">
<stop stop-color="#663500"/>
<stop offset="0.08" stop-color="#764710"/>
<stop offset="0.24" stop-color="#9E7538"/>
<stop offset="0.41" stop-color="#D0AD6A"/>
<stop offset="0.5" stop-color="#D8B97C"/>
<stop offset="0.72" stop-color="#EAD3A2"/>
</linearGradient>
<radialGradient id="paint26_radial_33_38" cx="0" cy="0" r="1" gradientUnits="userSpaceOnUse" gradientTransform="translate(9.57227 12.2457) scale(6.307 6.307)">
<stop offset="0.14" stop-color="#404040"/>
<stop offset="0.24" stop-color="#393939"/>
<stop offset="0.39" stop-color="#262626"/>
<stop offset="0.55" stop-color="#0B0B0B"/>
<stop offset="0.69" stop-color="#050505"/>
<stop offset="0.94"/>
</radialGradient>
<linearGradient id="paint27_linear_33_38" x1="10.8614" y1="17.1505" x2="8.43064" y2="14.3674" gradientUnits="userSpaceOnUse">
<stop stop-color="#663500"/>
<stop offset="0.08" stop-color="#764710"/>
<stop offset="0.24" stop-color="#9E7538"/>
<stop offset="0.41" stop-color="#D0AD6A"/>
<stop offset="0.5" stop-color="#D8B97C"/>
<stop offset="0.72" stop-color="#EAD3A2"/>
</linearGradient>
<linearGradient id="paint28_linear_33_38" x1="11.4582" y1="16.9142" x2="9.02799" y2="14.1312" gradientUnits="userSpaceOnUse">
<stop stop-color="#663500"/>
<stop offset="0.08" stop-color="#764710"/>
<stop offset="0.24" stop-color="#9E7538"/>
<stop offset="0.41" stop-color="#D0AD6A"/>
<stop offset="0.5" stop-color="#D8B97C"/>
<stop offset="0.72" stop-color="#EAD3A2"/>
</linearGradient>
<linearGradient id="paint29_linear_33_38" x1="12.0553" y1="16.6778" x2="9.62507" y2="13.8947" gradientUnits="userSpaceOnUse">
<stop stop-color="#663500"/>
<stop offset="0.08" stop-color="#764710"/>
<stop offset="0.24" stop-color="#9E7538"/>
<stop offset="0.41" stop-color="#D0AD6A"/>
<stop offset="0.5" stop-color="#D8B97C"/>
<stop offset="0.72" stop-color="#EAD3A2"/>
</linearGradient>
<clipPath id="clip0_33_38">
<rect width="24" height="24" fill="white"/>
</clipPath>
</defs>
</svg>
