<svg width="49" height="60" viewBox="0 0 49 60" fill="none" xmlns="http://www.w3.org/2000/svg">
<path d="M41.7618 24.3321C33.5663 17.7675 29.2808 14.5057 24.5517 5.23198C19.7952 14.4921 15.4971 17.7382 7.27749 24.2745C-5.56223 34.4911 1.52783 47.8667 11.5494 48.5275C17.7941 48.9376 21.5877 44.4843 23.3371 41.6871C22.8064 45.2824 21.7492 51.5712 20.4287 54.768H28.5047C27.1968 51.5628 26.1627 45.2824 25.6487 41.6913C27.3866 44.4916 31.1656 48.9596 37.4113 48.5705C47.4339 47.9454 54.5701 34.5949 41.7618 24.3321Z" fill="url(#paint0_linear_46_43)"/>
<path d="M37.014 23.2749C36.874 22.9887 36.6451 22.7554 36.3616 22.61C36.078 22.4646 35.755 22.4149 35.4408 22.4684L28.8101 23.8665C28.0908 24.0503 27.421 24.3909 26.8488 24.8639L22.9357 28.3848C22.47 28.8044 22.2969 29.6151 22.5518 30.1878L26.0895 38.1515C26.2296 38.4376 26.4586 38.6706 26.7422 38.8158C27.0257 38.961 27.3487 39.0105 27.6627 38.957L34.2923 37.5589C35.0122 37.3758 35.6825 37.0352 36.2547 36.5615L40.1668 33.0416C40.6325 32.6221 40.8056 31.8103 40.5507 31.2376L37.014 23.2749Z" fill="url(#paint1_radial_46_43)"/>
<path d="M28.8971 25.6956C28.5887 25.0013 28.9442 24.3059 29.6868 24.1486L34.9309 23.0421C35.3123 22.9753 35.705 23.0345 36.0498 23.2107C36.3945 23.3868 36.6726 23.6704 36.8419 24.0186L39.8059 30.6901C40.1142 31.3834 39.7587 32.0798 39.0161 32.2361L33.772 33.3426C33.3906 33.4094 32.9979 33.3502 32.6532 33.1741C32.3084 32.9979 32.0304 32.7143 31.861 32.3662L28.8971 25.6956Z" fill="url(#paint2_radial_46_43)"/>
<path d="M36.3238 25.5299C36.1234 25.0779 35.6378 24.78 35.2382 24.8639C34.8386 24.9478 34.6792 25.382 34.8806 25.8351C35.082 26.2882 35.5676 26.585 35.9661 26.5011C36.3647 26.4172 36.5251 25.9819 36.3238 25.5299Z" fill="url(#paint3_linear_46_43)"/>
<path d="M32.0025 26.4424C31.8012 25.9893 31.3156 25.6914 30.916 25.7753C30.5164 25.8592 30.3569 26.2997 30.5583 26.7465C30.7597 27.1933 31.2442 27.4975 31.6438 27.4125C32.0434 27.3276 32.2029 26.8944 32.0025 26.4424Z" fill="url(#paint4_linear_46_43)"/>
<path d="M38.1477 29.634C37.9463 29.1819 37.4607 28.883 37.0621 28.968C36.6636 29.0529 36.5031 29.4861 36.7034 29.9392C36.9038 30.3923 37.3915 30.6891 37.79 30.6052C38.1886 30.5213 38.349 30.0871 38.1477 29.634Z" fill="url(#paint5_linear_46_43)"/>
<path d="M33.8212 30.5464C33.6199 30.0933 33.1343 29.7955 32.7357 29.8794C32.3371 29.9633 32.1756 30.3975 32.377 30.8506C32.5784 31.3037 33.064 31.6005 33.4625 31.5166C33.8611 31.4327 34.0226 30.9985 33.8212 30.5464Z" fill="url(#paint6_linear_46_43)"/>
<path d="M31.3428 35.4916C31.9071 34.984 32.9758 34.4428 33.7194 34.2834L38.0972 33.3594C38.8409 33.2031 38.9866 33.4905 38.4224 33.9981L36.2198 35.9793C35.6556 36.487 34.5868 37.0282 33.8432 37.1876L29.4654 38.1116C28.7228 38.2679 28.576 37.9805 29.1403 37.4729L31.3428 35.4916Z" fill="url(#paint7_radial_46_43)"/>
<path d="M34.3793 35.6091C34.5891 35.4214 34.4905 35.3259 34.1601 35.3994C33.804 35.4806 33.4705 35.64 33.1837 35.8661C32.9739 36.0538 33.0735 36.1493 33.4039 36.0759C33.7595 35.994 34.0925 35.8346 34.3793 35.6091Z" fill="url(#paint8_linear_46_43)"/>
<path d="M37.1156 34.3789C37.3254 34.1911 37.2268 34.0957 36.8964 34.1691C36.5407 34.2505 36.2075 34.4099 35.921 34.6358C35.7112 34.8236 35.8161 34.919 36.1402 34.8456C36.4956 34.7635 36.8287 34.6042 37.1156 34.3789Z" fill="url(#paint9_linear_46_43)"/>
<path d="M33.5381 35.1351C33.7479 34.9473 33.6493 34.8509 33.3189 34.9253C32.9631 35.0068 32.6297 35.1659 32.3424 35.391C32.1327 35.5787 32.2312 35.6752 32.5616 35.6008C32.9176 35.5197 33.2511 35.3606 33.5381 35.1351Z" fill="url(#paint10_linear_46_43)"/>
<path d="M35.2204 36.0853C35.4302 35.8965 35.3316 35.8011 35.0012 35.8756C34.6453 35.9569 34.3119 36.1159 34.0247 36.3412C33.815 36.53 33.9199 36.6255 34.2439 36.551C34.5997 36.4695 34.9331 36.3105 35.2204 36.0853Z" fill="url(#paint11_linear_46_43)"/>
<path d="M31.642 36.8405C31.8518 36.6517 31.7532 36.5562 31.4228 36.6307C31.0672 36.7124 30.7341 36.8717 30.4474 37.0974C30.2376 37.2852 30.3362 37.3817 30.6666 37.3072C31.0222 37.2259 31.3553 37.0669 31.642 36.8415" fill="url(#paint12_linear_46_43)"/>
<path d="M23.1966 30.5254C22.8882 29.8322 23.0917 28.8473 23.6612 28.3407L26.5035 25.7837C27.0678 25.2761 27.782 25.4282 28.0893 26.1225L31.0428 32.7689C31.3512 33.4622 31.1477 34.447 30.5782 34.9536L27.7359 37.5106C27.1716 38.0183 26.4574 37.8662 26.1501 37.1719L23.1966 30.5254Z" fill="url(#paint13_radial_46_43)"/>
<path d="M24.1658 30.2716C24.128 30.8873 24.428 31.5386 24.8371 31.7295C25.2461 31.9204 25.6069 31.5764 25.6457 30.9607C25.6845 30.3451 25.3824 29.6927 24.9745 29.5029C24.5665 29.313 24.2036 29.657 24.1658 30.2716Z" fill="url(#paint14_linear_46_43)"/>
<path d="M28.594 32.3337C28.5563 32.9493 28.8562 33.6007 29.2653 33.7915C29.6743 33.9824 30.0362 33.6384 30.0739 33.0227C30.1117 32.4071 29.8117 31.7547 29.4027 31.5649C28.9936 31.375 28.6318 31.7191 28.594 32.3337Z" fill="url(#paint15_linear_46_43)"/>
<path d="M24.4866 30.774C24.283 30.0329 23.903 29.3521 23.3791 28.7897L19.0139 24.5042C18.5492 24.0479 17.6997 23.9263 17.126 24.2346L9.23669 28.4677C8.9471 28.6393 8.71712 28.8957 8.57778 29.2021C8.43843 29.5086 8.39642 29.8504 8.45741 30.1815L9.92577 36.6003C10.1301 37.3411 10.5104 38.0215 11.0344 38.5836L15.3985 42.8691C15.8632 43.3253 16.7127 43.447 17.2864 43.1387L25.1757 38.9056C25.4656 38.7343 25.6959 38.478 25.8353 38.1714C25.9746 37.8649 26.0164 37.5229 25.955 37.1918L24.4866 30.774Z" fill="url(#paint16_radial_46_43)"/>
<path d="M9.82821 29.9696C9.36358 29.5144 9.45274 28.8893 10.0264 28.5809L17.0399 24.8167C17.6137 24.5083 18.4632 24.63 18.9278 25.0862L22.584 28.6774C23.0487 29.1337 22.9595 29.7588 22.3858 30.0661L15.3713 33.8303C14.7976 34.1387 13.948 34.017 13.4834 33.5608L9.82821 29.9696Z" fill="url(#paint17_radial_46_43)"/>
<path d="M19.3874 30.4563C19.8373 30.215 19.981 29.8018 19.702 29.5333C19.4231 29.2648 18.842 29.2438 18.3931 29.485C17.9442 29.7263 17.7995 30.1395 18.0722 30.408C18.3449 30.6765 18.9312 30.6975 19.3822 30.4563" fill="url(#paint18_linear_46_43)"/>
<path d="M18.0123 29.1064C18.4622 28.8652 18.6059 28.4519 18.3332 28.1834C18.0605 27.9149 17.4732 27.894 17.0232 28.1352C16.5733 28.3764 16.4296 28.7897 16.7023 29.0582C16.975 29.3267 17.5623 29.3476 18.0123 29.1064Z" fill="url(#paint19_linear_46_43)"/>
<path d="M16.6375 27.7565C17.0874 27.5153 17.2311 27.1021 16.9584 26.8336C16.6857 26.5651 16.0984 26.5431 15.6484 26.7853C15.1985 27.0276 15.0548 27.4398 15.3285 27.7083C15.6023 27.9768 16.1875 27.9978 16.6375 27.7565Z" fill="url(#paint20_linear_46_43)"/>
<path d="M16.7664 31.8627C17.2174 31.6204 17.3611 31.2072 17.0873 30.9387C16.8136 30.6702 16.2283 30.6492 15.7773 30.8905C15.3263 31.1317 15.1837 31.546 15.4574 31.8134C15.7312 32.0809 16.3164 32.1039 16.7664 31.8627Z" fill="url(#paint21_linear_46_43)"/>
<path d="M15.3924 30.5129C15.8424 30.2706 15.9861 29.8574 15.7134 29.5889C15.4407 29.3204 14.8533 29.2994 14.4024 29.5406C13.9514 29.7818 13.8098 30.1961 14.0825 30.4636C14.3552 30.731 14.9425 30.7541 15.3924 30.5129Z" fill="url(#paint22_linear_46_43)"/>
<path d="M14.0174 29.162C14.4673 28.9208 14.6121 28.5075 14.3383 28.239C14.0646 27.9705 13.4783 27.9495 13.0283 28.1908C12.5784 28.432 12.4337 28.8453 12.7074 29.1138C12.9811 29.3822 13.5674 29.4043 14.0174 29.162Z" fill="url(#paint23_linear_46_43)"/>
<path d="M11.4624 38.3423C10.9391 37.7797 10.5589 37.0995 10.3537 36.359L9.2787 31.6529C9.13291 31.0173 9.39407 30.8716 9.85975 31.3278L12.9716 34.3841C13.4952 34.9465 13.8755 35.6268 14.0802 36.3674L15.1521 41.0735C15.2969 41.7091 15.0357 41.8549 14.5711 41.3986L11.4624 38.3423Z" fill="url(#paint24_radial_46_43)"/>
<path d="M12.9349 37.0681C12.8038 36.4964 12.3769 35.7182 11.9805 35.3291C11.584 34.94 11.369 35.0868 11.5001 35.6584C11.6312 36.23 12.057 37.0083 12.4535 37.3974C12.85 37.7865 13.065 37.6386 12.9349 37.0681Z" fill="url(#paint25_linear_46_43)"/>
<path d="M15.0526 36.3727C14.9916 36.0416 15.0336 35.6998 15.173 35.3933C15.3123 35.0869 15.5423 34.8305 15.8319 34.6589L22.859 30.8904C23.4327 30.5821 24.0211 30.8495 24.1659 31.4841L25.415 36.9453C25.4759 37.2765 25.4338 37.6184 25.2942 37.9249C25.1547 38.2313 24.9245 38.4876 24.6347 38.6591L17.6076 42.4286C17.0339 42.7359 16.4455 42.4684 16.2997 41.8339L15.0526 36.3727Z" fill="url(#paint26_radial_46_43)"/>
<path d="M17.1102 35.5546C17.3965 35.091 17.9398 34.8257 18.3258 34.962C18.7118 35.0983 18.7915 35.584 18.5052 36.0475C18.2188 36.5111 17.6755 36.7765 17.2896 36.6401C16.9036 36.5038 16.8239 36.0182 17.1102 35.5546Z" fill="url(#paint27_linear_46_43)"/>
<path d="M19.5341 36.4125C19.8205 35.949 20.3638 35.6836 20.7497 35.82C21.1357 35.9563 21.2154 36.4419 20.9301 36.9055C20.6448 37.3691 20.0995 37.6397 19.7145 37.4981C19.3296 37.3565 19.2489 36.8761 19.5341 36.4125Z" fill="url(#paint28_linear_46_43)"/>
<path d="M21.958 37.2684C22.2444 36.8048 22.7887 36.5405 23.1736 36.6758C23.5585 36.8111 23.6403 37.2978 23.354 37.7613C23.0677 38.2249 22.5244 38.4955 22.1384 38.3539C21.7525 38.2123 21.6727 37.732 21.958 37.2684Z" fill="url(#paint29_linear_46_43)"/>
<defs>
<linearGradient id="paint0_linear_46_43" x1="0.339512" y1="30.0031" x2="48.66" y2="30.0031" gradientUnits="userSpaceOnUse">
<stop stop-color="#A2682A"/>
<stop offset="0.08" stop-color="#BE8C3C"/>
<stop offset="0.18" stop-color="#BE8C3C"/>
<stop offset="0.27" stop-color="#D3B15F"/>
<stop offset="0.34" stop-color="#FAF0A0"/>
<stop offset="0.41" stop-color="#FFFFC2"/>
<stop offset="0.48" stop-color="#FAF0A0"/>
<stop offset="0.59" stop-color="#D3B15F"/>
<stop offset="0.67" stop-color="#BE8C3C"/>
<stop offset="0.77" stop-color="#B17B32"/>
<stop offset="0.83" stop-color="#BB8332"/>
<stop offset="0.88" stop-color="#D4A245"/>
<stop offset="0.93" stop-color="#E1B453"/>
<stop offset="1" stop-color="#A4692A"/>
</linearGradient>
<radialGradient id="paint1_radial_46_43" cx="0" cy="0" r="1" gradientUnits="userSpaceOnUse" gradientTransform="translate(31.5497 30.7132) scale(14.8912 14.8912)">
<stop offset="0.14" stop-color="#404040"/>
<stop offset="0.24" stop-color="#393939"/>
<stop offset="0.39" stop-color="#262626"/>
<stop offset="0.55" stop-color="#0B0B0B"/>
<stop offset="0.69" stop-color="#050505"/>
<stop offset="0.94"/>
</radialGradient>
<radialGradient id="paint2_radial_46_43" cx="0" cy="0" r="1" gradientUnits="userSpaceOnUse" gradientTransform="translate(37.2111 22.7642) scale(13.9704 13.9704)">
<stop offset="0.14" stop-color="#404040"/>
<stop offset="0.24" stop-color="#393939"/>
<stop offset="0.39" stop-color="#262626"/>
<stop offset="0.55" stop-color="#0B0B0B"/>
<stop offset="0.69" stop-color="#050505"/>
<stop offset="0.94"/>
</radialGradient>
<linearGradient id="paint3_linear_46_43" x1="34.1925" y1="37.0334" x2="35.6494" y2="25.3002" gradientUnits="userSpaceOnUse">
<stop stop-color="#663500"/>
<stop offset="0.08" stop-color="#764710"/>
<stop offset="0.24" stop-color="#9E7538"/>
<stop offset="0.41" stop-color="#D0AD6A"/>
<stop offset="0.5" stop-color="#D8B97C"/>
<stop offset="0.72" stop-color="#EAD3A2"/>
</linearGradient>
<linearGradient id="paint4_linear_46_43" x1="30.0475" y1="36.5174" x2="31.5044" y2="24.7852" gradientUnits="userSpaceOnUse">
<stop stop-color="#663500"/>
<stop offset="0.08" stop-color="#764710"/>
<stop offset="0.24" stop-color="#9E7538"/>
<stop offset="0.41" stop-color="#D0AD6A"/>
<stop offset="0.5" stop-color="#D8B97C"/>
<stop offset="0.72" stop-color="#EAD3A2"/>
</linearGradient>
<linearGradient id="paint5_linear_46_43" x1="36.4905" y1="37.3177" x2="37.9473" y2="25.5855" gradientUnits="userSpaceOnUse">
<stop stop-color="#663500"/>
<stop offset="0.08" stop-color="#764710"/>
<stop offset="0.24" stop-color="#9E7538"/>
<stop offset="0.41" stop-color="#D0AD6A"/>
<stop offset="0.5" stop-color="#D8B97C"/>
<stop offset="0.72" stop-color="#EAD3A2"/>
</linearGradient>
<linearGradient id="paint6_linear_46_43" x1="32.3455" y1="36.8037" x2="33.8023" y2="25.0705" gradientUnits="userSpaceOnUse">
<stop stop-color="#663500"/>
<stop offset="0.08" stop-color="#764710"/>
<stop offset="0.24" stop-color="#9E7538"/>
<stop offset="0.41" stop-color="#D0AD6A"/>
<stop offset="0.5" stop-color="#D8B97C"/>
<stop offset="0.72" stop-color="#EAD3A2"/>
</linearGradient>
<radialGradient id="paint7_radial_46_43" cx="0" cy="0" r="1" gradientUnits="userSpaceOnUse" gradientTransform="translate(34.8333 28.131) scale(9.21813 9.21813)">
<stop offset="0.14" stop-color="#404040"/>
<stop offset="0.24" stop-color="#393939"/>
<stop offset="0.39" stop-color="#262626"/>
<stop offset="0.55" stop-color="#0B0B0B"/>
<stop offset="0.69" stop-color="#050505"/>
<stop offset="0.94"/>
</radialGradient>
<linearGradient id="paint8_linear_46_43" x1="33.2592" y1="36.4807" x2="36.736" y2="31.5219" gradientUnits="userSpaceOnUse">
<stop stop-color="#663500"/>
<stop offset="0.08" stop-color="#764710"/>
<stop offset="0.24" stop-color="#9E7538"/>
<stop offset="0.41" stop-color="#D0AD6A"/>
<stop offset="0.5" stop-color="#D8B97C"/>
<stop offset="0.72" stop-color="#EAD3A2"/>
</linearGradient>
<linearGradient id="paint9_linear_46_43" x1="34.5155" y1="37.3617" x2="37.9924" y2="32.4029" gradientUnits="userSpaceOnUse">
<stop stop-color="#663500"/>
<stop offset="0.08" stop-color="#764710"/>
<stop offset="0.24" stop-color="#9E7538"/>
<stop offset="0.41" stop-color="#D0AD6A"/>
<stop offset="0.5" stop-color="#D8B97C"/>
<stop offset="0.72" stop-color="#EAD3A2"/>
</linearGradient>
<linearGradient id="paint10_linear_46_43" x1="32.4714" y1="35.929" x2="35.9483" y2="30.9691" gradientUnits="userSpaceOnUse">
<stop stop-color="#663500"/>
<stop offset="0.08" stop-color="#764710"/>
<stop offset="0.24" stop-color="#9E7538"/>
<stop offset="0.41" stop-color="#D0AD6A"/>
<stop offset="0.5" stop-color="#D8B97C"/>
<stop offset="0.72" stop-color="#EAD3A2"/>
</linearGradient>
<linearGradient id="paint11_linear_46_43" x1="34.0468" y1="37.0324" x2="37.5236" y2="32.0736" gradientUnits="userSpaceOnUse">
<stop stop-color="#663500"/>
<stop offset="0.08" stop-color="#764710"/>
<stop offset="0.24" stop-color="#9E7538"/>
<stop offset="0.41" stop-color="#D0AD6A"/>
<stop offset="0.5" stop-color="#D8B97C"/>
<stop offset="0.72" stop-color="#EAD3A2"/>
</linearGradient>
<linearGradient id="paint12_linear_46_43" x1="32.0028" y1="35.5997" x2="35.4786" y2="30.6408" gradientUnits="userSpaceOnUse">
<stop stop-color="#663500"/>
<stop offset="0.08" stop-color="#764710"/>
<stop offset="0.24" stop-color="#9E7538"/>
<stop offset="0.41" stop-color="#D0AD6A"/>
<stop offset="0.5" stop-color="#D8B97C"/>
<stop offset="0.72" stop-color="#EAD3A2"/>
</linearGradient>
<radialGradient id="paint13_radial_46_43" cx="0" cy="0" r="1" gradientUnits="userSpaceOnUse" gradientTransform="translate(37.1344 28.0806) scale(8.91607)">
<stop offset="0.14" stop-color="#404040"/>
<stop offset="0.24" stop-color="#393939"/>
<stop offset="0.39" stop-color="#262626"/>
<stop offset="0.55" stop-color="#0B0B0B"/>
<stop offset="0.69" stop-color="#050505"/>
<stop offset="0.94"/>
</radialGradient>
<linearGradient id="paint14_linear_46_43" x1="29.0303" y1="30.7447" x2="42.1175" y2="31.1537" gradientUnits="userSpaceOnUse">
<stop stop-color="#663500"/>
<stop offset="0.08" stop-color="#764710"/>
<stop offset="0.24" stop-color="#9E7538"/>
<stop offset="0.41" stop-color="#D0AD6A"/>
<stop offset="0.5" stop-color="#D8B97C"/>
<stop offset="0.72" stop-color="#EAD3A2"/>
</linearGradient>
<linearGradient id="paint15_linear_46_43" x1="28.9695" y1="32.6672" x2="42.0567" y2="33.0762" gradientUnits="userSpaceOnUse">
<stop stop-color="#663500"/>
<stop offset="0.08" stop-color="#764710"/>
<stop offset="0.24" stop-color="#9E7538"/>
<stop offset="0.41" stop-color="#D0AD6A"/>
<stop offset="0.5" stop-color="#D8B97C"/>
<stop offset="0.72" stop-color="#EAD3A2"/>
</linearGradient>
<radialGradient id="paint16_radial_46_43" cx="0" cy="0" r="1" gradientUnits="userSpaceOnUse" gradientTransform="translate(15.2108 30.6199) scale(14.1298 14.1298)">
<stop offset="0.14" stop-color="#404040"/>
<stop offset="0.24" stop-color="#393939"/>
<stop offset="0.39" stop-color="#262626"/>
<stop offset="0.55" stop-color="#0B0B0B"/>
<stop offset="0.69" stop-color="#050505"/>
<stop offset="0.94"/>
</radialGradient>
<radialGradient id="paint17_radial_46_43" cx="0" cy="0" r="1" gradientUnits="userSpaceOnUse" gradientTransform="translate(7.56485 22.9487) scale(17.6905 17.6905)">
<stop offset="0.14" stop-color="#404040"/>
<stop offset="0.24" stop-color="#393939"/>
<stop offset="0.39" stop-color="#262626"/>
<stop offset="0.55" stop-color="#0B0B0B"/>
<stop offset="0.69" stop-color="#050505"/>
<stop offset="0.94"/>
</radialGradient>
<linearGradient id="paint18_linear_46_43" x1="17.1408" y1="37.9774" x2="19.6465" y2="26.5263" gradientUnits="userSpaceOnUse">
<stop stop-color="#663500"/>
<stop offset="0.08" stop-color="#764710"/>
<stop offset="0.24" stop-color="#9E7538"/>
<stop offset="0.41" stop-color="#D0AD6A"/>
<stop offset="0.5" stop-color="#D8B97C"/>
<stop offset="0.72" stop-color="#EAD3A2"/>
</linearGradient>
<linearGradient id="paint19_linear_46_43" x1="15.5465" y1="37.6302" x2="18.0521" y2="26.1781" gradientUnits="userSpaceOnUse">
<stop stop-color="#663500"/>
<stop offset="0.08" stop-color="#764710"/>
<stop offset="0.24" stop-color="#9E7538"/>
<stop offset="0.41" stop-color="#D0AD6A"/>
<stop offset="0.5" stop-color="#D8B97C"/>
<stop offset="0.72" stop-color="#EAD3A2"/>
</linearGradient>
<linearGradient id="paint20_linear_46_43" x1="13.9535" y1="37.2809" x2="16.4581" y2="25.8288" gradientUnits="userSpaceOnUse">
<stop stop-color="#663500"/>
<stop offset="0.08" stop-color="#764710"/>
<stop offset="0.24" stop-color="#9E7538"/>
<stop offset="0.41" stop-color="#D0AD6A"/>
<stop offset="0.5" stop-color="#D8B97C"/>
<stop offset="0.72" stop-color="#EAD3A2"/>
</linearGradient>
<linearGradient id="paint21_linear_46_43" x1="14.9341" y1="37.4949" x2="17.4387" y2="26.0438" gradientUnits="userSpaceOnUse">
<stop stop-color="#663500"/>
<stop offset="0.08" stop-color="#764710"/>
<stop offset="0.24" stop-color="#9E7538"/>
<stop offset="0.41" stop-color="#D0AD6A"/>
<stop offset="0.5" stop-color="#D8B97C"/>
<stop offset="0.72" stop-color="#EAD3A2"/>
</linearGradient>
<linearGradient id="paint22_linear_46_43" x1="13.3399" y1="37.1467" x2="15.8456" y2="25.6956" gradientUnits="userSpaceOnUse">
<stop stop-color="#663500"/>
<stop offset="0.08" stop-color="#764710"/>
<stop offset="0.24" stop-color="#9E7538"/>
<stop offset="0.41" stop-color="#D0AD6A"/>
<stop offset="0.5" stop-color="#D8B97C"/>
<stop offset="0.72" stop-color="#EAD3A2"/>
</linearGradient>
<linearGradient id="paint23_linear_46_43" x1="11.7467" y1="36.7985" x2="14.2513" y2="25.3464" gradientUnits="userSpaceOnUse">
<stop stop-color="#663500"/>
<stop offset="0.08" stop-color="#764710"/>
<stop offset="0.24" stop-color="#9E7538"/>
<stop offset="0.41" stop-color="#D0AD6A"/>
<stop offset="0.5" stop-color="#D8B97C"/>
<stop offset="0.72" stop-color="#EAD3A2"/>
</linearGradient>
<radialGradient id="paint24_radial_46_43" cx="0" cy="0" r="1" gradientUnits="userSpaceOnUse" gradientTransform="translate(5.33512 26.9028) scale(20.0242 20.0242)">
<stop offset="0.14" stop-color="#404040"/>
<stop offset="0.24" stop-color="#393939"/>
<stop offset="0.39" stop-color="#262626"/>
<stop offset="0.55" stop-color="#0B0B0B"/>
<stop offset="0.69" stop-color="#050505"/>
<stop offset="0.94"/>
</radialGradient>
<linearGradient id="paint25_linear_46_43" x1="11.2924" y1="37.84" x2="16.5072" y2="29.5081" gradientUnits="userSpaceOnUse">
<stop stop-color="#663500"/>
<stop offset="0.08" stop-color="#764710"/>
<stop offset="0.24" stop-color="#9E7538"/>
<stop offset="0.41" stop-color="#D0AD6A"/>
<stop offset="0.5" stop-color="#D8B97C"/>
<stop offset="0.72" stop-color="#EAD3A2"/>
</linearGradient>
<radialGradient id="paint26_radial_46_43" cx="0" cy="0" r="1" gradientUnits="userSpaceOnUse" gradientTransform="translate(19.4346 30.5108) scale(13.1607 13.1607)">
<stop offset="0.14" stop-color="#404040"/>
<stop offset="0.24" stop-color="#393939"/>
<stop offset="0.39" stop-color="#262626"/>
<stop offset="0.55" stop-color="#0B0B0B"/>
<stop offset="0.69" stop-color="#050505"/>
<stop offset="0.94"/>
</radialGradient>
<linearGradient id="paint27_linear_46_43" x1="22.1247" y1="40.7463" x2="17.0525" y2="34.9389" gradientUnits="userSpaceOnUse">
<stop stop-color="#663500"/>
<stop offset="0.08" stop-color="#764710"/>
<stop offset="0.24" stop-color="#9E7538"/>
<stop offset="0.41" stop-color="#D0AD6A"/>
<stop offset="0.5" stop-color="#D8B97C"/>
<stop offset="0.72" stop-color="#EAD3A2"/>
</linearGradient>
<linearGradient id="paint28_linear_46_43" x1="23.3697" y1="40.2533" x2="18.2986" y2="34.446" gradientUnits="userSpaceOnUse">
<stop stop-color="#663500"/>
<stop offset="0.08" stop-color="#764710"/>
<stop offset="0.24" stop-color="#9E7538"/>
<stop offset="0.41" stop-color="#D0AD6A"/>
<stop offset="0.5" stop-color="#D8B97C"/>
<stop offset="0.72" stop-color="#EAD3A2"/>
</linearGradient>
<linearGradient id="paint29_linear_46_43" x1="24.6157" y1="39.7593" x2="19.5447" y2="33.952" gradientUnits="userSpaceOnUse">
<stop stop-color="#663500"/>
<stop offset="0.08" stop-color="#764710"/>
<stop offset="0.24" stop-color="#9E7538"/>
<stop offset="0.41" stop-color="#D0AD6A"/>
<stop offset="0.5" stop-color="#D8B97C"/>
<stop offset="0.72" stop-color="#EAD3A2"/>
</linearGradient>
</defs>
</svg>
