<svg width="100" height="100" viewBox="0 0 100 100" fill="none" xmlns="http://www.w3.org/2000/svg">
<g clip-path="url(#clip0_35_504)">
<path d="M50 26C45.2533 26 40.6131 27.4076 36.6663 30.0447C32.7195 32.6819 29.6434 36.4302 27.8269 40.8156C26.0104 45.201 25.5351 50.0266 26.4612 54.6822C27.3872 59.3377 29.673 63.6141 33.0294 66.9706C36.3859 70.327 40.6623 72.6128 45.3178 73.5388C49.9734 74.4649 54.799 73.9896 59.1844 72.1731C63.5698 70.3566 67.3181 67.2805 69.9553 63.3337C72.5924 59.3869 74 54.7468 74 50C74 43.6348 71.4715 37.5303 66.9706 33.0294C62.4697 28.5286 56.3652 26 50 26ZM50 68C46.4399 68 42.9598 66.9443 39.9997 64.9665C37.0397 62.9886 34.7326 60.1774 33.3702 56.8883C32.0078 53.5992 31.6513 49.98 32.3459 46.4884C33.0404 42.9967 34.7547 39.7894 37.2721 37.2721C39.7894 34.7547 42.9967 33.0404 46.4884 32.3459C49.98 31.6513 53.5992 32.0078 56.8883 33.3702C60.1774 34.7325 62.9886 37.0397 64.9665 39.9997C66.9443 42.9598 68 46.4399 68 50C68 54.7739 66.1036 59.3523 62.7279 62.7279C59.3523 66.1036 54.7739 68 50 68Z" fill="#413D4A"/>
<path d="M50 31C46.2422 31 42.5687 32.1143 39.4442 34.2021C36.3196 36.2898 33.8844 39.2572 32.4463 42.729C31.0082 46.2008 30.632 50.0211 31.3651 53.7067C32.0982 57.3924 33.9078 60.7778 36.565 63.435C39.2222 66.0922 42.6077 67.9018 46.2933 68.6349C49.9789 69.368 53.7992 68.9918 57.271 67.5537C60.7428 66.1156 63.7102 63.6804 65.7979 60.5558C67.8857 57.4313 69 53.7578 69 50C68.9944 44.9626 66.9909 40.1331 63.4289 36.5711C59.8669 33.0091 55.0374 31.0056 50 31ZM50 67C46.6377 67 43.3509 66.003 40.5553 64.135C37.7597 62.267 35.5807 59.612 34.2941 56.5056C33.0074 53.3993 32.6707 49.9811 33.3267 46.6835C33.9826 43.3858 35.6017 40.3567 37.9792 37.9792C40.3567 35.6017 43.3858 33.9826 46.6835 33.3266C49.9811 32.6707 53.3993 33.0074 56.5056 34.294C59.612 35.5807 62.267 37.7597 64.135 40.5553C66.003 43.3509 67 46.6377 67 50C66.995 54.5071 65.2023 58.8282 62.0153 62.0153C58.8282 65.2023 54.5071 66.995 50 67Z" fill="#A09EA5"/>
<path d="M56.6574 47.8142C53.4966 45.2824 51.8437 44.0244 50.0198 40.4478C48.1854 44.0192 46.5277 45.2711 43.3576 47.792C38.4056 51.7323 41.1401 56.891 45.0051 57.1458C47.4136 57.304 48.8767 55.5864 49.5514 54.5076C49.3467 55.8943 48.939 58.3197 48.4297 59.5526H51.5444C51.04 58.3165 50.6411 55.8943 50.4429 54.5092C51.1132 55.5893 52.5706 57.3125 54.9795 57.1624C58.8449 56.9213 61.5972 51.7723 56.6574 47.8142Z" fill="#A09EA5"/>
<path d="M54.826 47.407C54.772 47.2966 54.6838 47.2066 54.5744 47.1506C54.465 47.0945 54.3404 47.0753 54.2193 47.096L51.662 47.6352C51.3845 47.706 51.1262 47.8374 50.9055 48.0199L49.3963 49.3778C49.2167 49.5396 49.15 49.8523 49.2483 50.0731L50.6127 53.1446C50.6667 53.2549 50.755 53.3448 50.8644 53.4008C50.9738 53.4568 51.0983 53.4759 51.2194 53.4552L53.7763 52.916C54.054 52.8454 54.3125 52.714 54.5332 52.5313L56.042 51.1738C56.2216 51.012 56.2883 50.6989 56.19 50.478L54.826 47.407Z" fill="url(#paint0_radial_35_504)"/>
<path d="M51.6957 48.3413C51.5768 48.0735 51.7139 47.8054 52.0003 47.7447L54.0228 47.3179C54.1699 47.2922 54.3214 47.315 54.4543 47.3829C54.5873 47.4509 54.6945 47.5602 54.7598 47.6945L55.903 50.2676C56.0219 50.535 55.8848 50.8036 55.5984 50.8638L53.5759 51.2906C53.4288 51.3163 53.2773 51.2935 53.1443 51.2256C53.0114 51.1576 52.9041 51.0483 52.8388 50.914L51.6957 48.3413Z" fill="url(#paint1_radial_35_504)"/>
<path d="M54.5599 48.277C54.4827 48.1026 54.2954 47.9877 54.1413 48.0201C53.9871 48.0525 53.9257 48.2199 54.0033 48.3947C54.081 48.5694 54.2683 48.6839 54.422 48.6515C54.5757 48.6192 54.6376 48.4513 54.5599 48.277Z" fill="white"/>
<path d="M52.8933 48.6289C52.8157 48.4542 52.6284 48.3393 52.4743 48.3717C52.3202 48.404 52.2587 48.5739 52.3363 48.7462C52.414 48.9186 52.6009 49.0359 52.755 49.0031C52.9091 48.9703 52.9706 48.8033 52.8933 48.6289Z" fill="white"/>
<path d="M55.2636 49.8596C55.1859 49.6853 54.9987 49.57 54.8449 49.6027C54.6912 49.6355 54.6293 49.8026 54.7066 49.9773C54.7839 50.1521 54.972 50.2665 55.1257 50.2342C55.2794 50.2018 55.3413 50.0343 55.2636 49.8596Z" fill="white"/>
<path d="M53.5951 50.2115C53.5174 50.0367 53.3301 49.9218 53.1764 49.9542C53.0227 49.9865 52.9604 50.154 53.0381 50.3288C53.1157 50.5035 53.303 50.618 53.4567 50.5856C53.6105 50.5533 53.6728 50.3858 53.5951 50.2115Z" fill="white"/>
<path d="M52.6391 52.1196C52.8568 51.9238 53.269 51.715 53.5557 51.6536L55.2442 51.2972C55.531 51.2369 55.5872 51.3478 55.3696 51.5435L54.5201 52.3076C54.3025 52.5034 53.8903 52.7122 53.6035 52.7736L51.9151 53.13C51.6287 53.1903 51.572 53.0794 51.7897 52.8837L52.6391 52.1196Z" fill="url(#paint2_radial_35_504)"/>
<path d="M53.8102 52.1647C53.8911 52.0923 53.8531 52.0555 53.7256 52.0838C53.5883 52.1151 53.4597 52.1766 53.349 52.2638C53.2681 52.3362 53.3066 52.373 53.434 52.3447C53.5711 52.3131 53.6996 52.2517 53.8102 52.1647Z" fill="white"/>
<path d="M54.8655 51.6901C54.9464 51.6177 54.9083 51.5809 54.7809 51.6092C54.6437 51.6406 54.5152 51.7021 54.4047 51.7892C54.3238 51.8616 54.3643 51.8984 54.4893 51.8701C54.6264 51.8384 54.7548 51.777 54.8655 51.6901Z" fill="white"/>
<path d="M53.4861 51.9817C53.567 51.9093 53.529 51.8721 53.4015 51.9008C53.2643 51.9323 53.1357 51.9936 53.0249 52.0804C52.944 52.1528 52.9821 52.1901 53.1095 52.1613C53.2468 52.1301 53.3754 52.0687 53.4861 51.9817Z" fill="white"/>
<path d="M54.1349 52.3485C54.2158 52.2757 54.1778 52.2389 54.0504 52.2676C53.9131 52.2989 53.7845 52.3603 53.6738 52.4472C53.5929 52.52 53.6333 52.5568 53.7583 52.5281C53.8955 52.4966 54.0241 52.4353 54.1349 52.3485Z" fill="white"/>
<path d="M52.7545 52.6395C52.8354 52.5667 52.7974 52.5299 52.6699 52.5586C52.5328 52.5901 52.4043 52.6516 52.2937 52.7386C52.2128 52.811 52.2509 52.8482 52.3783 52.8195C52.5154 52.7882 52.6439 52.7268 52.7545 52.6399" fill="white"/>
<path d="M49.4975 50.2038C49.3786 49.9364 49.4571 49.5566 49.6767 49.3612L50.7729 48.375C50.9906 48.1792 51.266 48.2379 51.3845 48.5056L52.5236 51.069C52.6426 51.3364 52.5641 51.7162 52.3444 51.9116L51.2482 52.8978C51.0306 53.0936 50.7551 53.0349 50.6366 52.7671L49.4975 50.2038Z" fill="url(#paint3_radial_35_504)"/>
<path d="M49.8709 50.1057C49.8563 50.3432 49.972 50.5944 50.1298 50.668C50.2875 50.7416 50.4267 50.6089 50.4416 50.3715C50.4566 50.134 50.3401 49.8824 50.1827 49.8092C50.0254 49.736 49.8854 49.8687 49.8709 50.1057Z" fill="white"/>
<path d="M51.5789 50.9011C51.5643 51.1386 51.68 51.3898 51.8378 51.4634C51.9955 51.537 52.1351 51.4043 52.1496 51.1669C52.1642 50.9294 52.0485 50.6778 51.8907 50.6046C51.733 50.5314 51.5934 50.6641 51.5789 50.9011Z" fill="white"/>
<path d="M49.9948 50.2998C49.9163 50.0139 49.7697 49.7514 49.5677 49.5345L47.8841 47.8816C47.7049 47.7057 47.3773 47.6588 47.156 47.7777L44.1133 49.4103C44.0016 49.4765 43.9129 49.5753 43.8592 49.6935C43.8054 49.8117 43.7892 49.9436 43.8128 50.0712L44.3791 52.5468C44.4579 52.8325 44.6045 53.095 44.8066 53.3117L46.4898 54.9646C46.669 55.1405 46.9966 55.1874 47.2179 55.0685L50.2606 53.4359C50.3724 53.3699 50.4612 53.271 50.515 53.1528C50.5687 53.0346 50.5849 52.9027 50.5612 52.775L49.9948 50.2998Z" fill="url(#paint4_radial_35_504)"/>
<path d="M44.3416 49.9891C44.1624 49.8136 44.1968 49.5725 44.4181 49.4536L47.123 48.0018C47.3443 47.8829 47.6719 47.9298 47.8511 48.1058L49.2612 49.4908C49.4404 49.6668 49.4061 49.9078 49.1848 50.0264L46.4794 51.4781C46.2582 51.5971 45.9305 51.5501 45.7513 51.3742L44.3416 49.9891Z" fill="url(#paint5_radial_35_504)"/>
<path d="M48.0282 50.1771C48.2017 50.0841 48.2571 49.9247 48.1495 49.8212C48.0419 49.7176 47.8178 49.7095 47.6447 49.8026C47.4716 49.8956 47.4158 50.055 47.5209 50.1585C47.6261 50.2621 47.8522 50.2702 48.0262 50.1771" fill="white"/>
<path d="M47.4982 49.6571C47.6717 49.5641 47.7271 49.4047 47.622 49.3011C47.5168 49.1976 47.2903 49.1895 47.1167 49.2825C46.9432 49.3756 46.8878 49.5349 46.993 49.6385C47.0981 49.7421 47.3246 49.7501 47.4982 49.6571Z" fill="white"/>
<path d="M46.9676 49.1358C47.1411 49.0427 47.1965 48.8834 47.0913 48.7798C46.9862 48.6763 46.7596 48.6678 46.5861 48.7612C46.4126 48.8546 46.3571 49.0136 46.4627 49.1172C46.5683 49.2207 46.794 49.2288 46.9676 49.1358Z" fill="white"/>
<path d="M47.0175 50.7195C47.1914 50.6261 47.2468 50.4667 47.1412 50.3631C47.0357 50.2596 46.8099 50.2515 46.636 50.3445C46.4621 50.4376 46.407 50.5974 46.5126 50.7005C46.6182 50.8037 46.8439 50.8126 47.0175 50.7195Z" fill="white"/>
<path d="M46.4872 50.199C46.6607 50.1056 46.7161 49.9462 46.6109 49.8426C46.5058 49.7391 46.2792 49.731 46.1053 49.824C45.9314 49.9171 45.8768 50.0769 45.9819 50.18C46.0871 50.2832 46.3136 50.2921 46.4872 50.199Z" fill="white"/>
<path d="M45.9571 49.6781C46.1306 49.5851 46.1865 49.4257 46.0809 49.3221C45.9753 49.2186 45.7492 49.2105 45.5757 49.3035C45.4021 49.3966 45.3463 49.5559 45.4519 49.6595C45.5574 49.763 45.7836 49.7715 45.9571 49.6781Z" fill="white"/>
<path d="M44.9715 53.2185C44.7697 53.0015 44.6231 52.7391 44.544 52.4536L44.1294 50.6385C44.0731 50.3934 44.1739 50.3372 44.3535 50.5131L45.5536 51.6919C45.7556 51.9088 45.9022 52.1712 45.9812 52.4568L46.3946 54.2718C46.4504 54.517 46.3497 54.5732 46.1705 54.3972L44.9715 53.2185Z" fill="url(#paint6_radial_35_504)"/>
<path d="M45.5399 52.7272C45.4893 52.5068 45.3247 52.2066 45.1718 52.0566C45.0189 51.9065 44.9359 51.9631 44.9865 52.1836C45.0371 52.404 45.2013 52.7042 45.3542 52.8542C45.5071 53.0043 45.59 52.9473 45.5399 52.7272Z" fill="white"/>
<path d="M46.3565 52.4587C46.3329 52.331 46.3491 52.1992 46.4029 52.081C46.4566 51.9628 46.5453 51.864 46.657 51.7978L49.3672 50.3444C49.5885 50.2254 49.8154 50.3286 49.8712 50.5733L50.353 52.6796C50.3765 52.8073 50.3602 52.9392 50.3064 53.0574C50.2526 53.1756 50.1638 53.2744 50.052 53.3405L47.3418 54.7943C47.1206 54.9129 46.8936 54.8097 46.8374 54.565L46.3565 52.4587Z" fill="url(#paint7_radial_35_504)"/>
<path d="M47.15 52.1427C47.2604 51.9639 47.4699 51.8616 47.6188 51.9142C47.7677 51.9668 47.7984 52.1541 47.688 52.3329C47.5775 52.5116 47.368 52.614 47.2191 52.5614C47.0703 52.5088 47.0395 52.3215 47.15 52.1427Z" fill="white"/>
<path d="M48.0848 52.4743C48.1953 52.2955 48.4048 52.1931 48.5537 52.2457C48.7025 52.2983 48.7333 52.4856 48.6232 52.6644C48.5132 52.8432 48.3029 52.9476 48.1544 52.8929C48.006 52.8383 47.9748 52.6531 48.0848 52.4743Z" fill="white"/>
<path d="M49.0195 52.8042C49.13 52.6254 49.3399 52.5235 49.4884 52.5757C49.6368 52.6278 49.6684 52.8155 49.5579 52.9943C49.4475 53.1731 49.238 53.2775 49.0891 53.2229C48.9402 53.1683 48.9095 52.983 49.0195 52.8042Z" fill="white"/>
<path d="M83 56H85V60H83V56Z" fill="#A09EA5"/>
<path d="M83 44H85V52H83V44Z" fill="#A09EA5"/>
<path d="M15 48H17V56H15V48Z" fill="#A09EA5"/>
<path d="M15 40H17V44H15V40Z" fill="#A09EA5"/>
<path d="M95.1619 71.0001H84.9999V64.0001H82.9999V73.0001H90.8379L75.9999 90.4561L61.1619 73.0001H67.9999V71.0001H63.5389C68.7346 67.6579 72.5081 62.5097 74.1312 56.549C75.7543 50.5882 75.1119 44.2375 72.3279 38.7226C69.544 33.2077 64.8159 28.9194 59.0561 26.6855C53.2964 24.4516 46.9133 24.4305 41.1389 26.6261L23.9999 6.45605L4.83789 29.0001H14.9999V36.0001H16.9999V27.0001H9.16189L23.9999 9.54405L38.8379 27.0001H31.9999V29.0001H36.4609C31.2652 32.3422 27.4917 37.4904 25.8686 43.4512C24.2455 49.4119 24.8879 55.7626 27.6719 61.2775C30.4558 66.7924 35.1839 71.0807 40.9437 73.3146C46.7034 75.5485 53.0864 75.5697 58.8609 73.3741L75.9999 93.5441L95.1619 71.0001ZM26.9999 50.0001C26.9999 45.4511 28.3488 41.0043 30.8761 37.2219C33.4034 33.4396 36.9955 30.4916 41.1982 28.7508C45.4009 27.01 50.0254 26.5545 54.487 27.442C58.9485 28.3295 63.0467 30.52 66.2633 33.7366C69.48 36.9532 71.6705 41.0514 72.558 45.513C73.4454 49.9745 72.9899 54.5991 71.2491 58.8018C69.5083 63.0045 66.5603 66.5966 62.778 69.1239C58.9957 71.6511 54.5489 73.0001 49.9999 73.0001C43.902 72.9932 38.0559 70.5678 33.744 66.2559C29.4322 61.9441 27.0068 56.0979 26.9999 50.0001Z" fill="#A09EA5"/>
</g>
<defs>
<radialGradient id="paint0_radial_35_504" cx="0" cy="0" r="1" gradientUnits="userSpaceOnUse" gradientTransform="translate(52.7185 50.2758) scale(5.7432 5.74319)">
<stop offset="0.14" stop-color="#404040"/>
<stop offset="0.24" stop-color="#393939"/>
<stop offset="0.39" stop-color="#262626"/>
<stop offset="0.55" stop-color="#0B0B0B"/>
<stop offset="0.69" stop-color="#050505"/>
<stop offset="0.94"/>
</radialGradient>
<radialGradient id="paint1_radial_35_504" cx="0" cy="0" r="1" gradientUnits="userSpaceOnUse" gradientTransform="translate(54.9022 47.2107) scale(5.38804 5.38804)">
<stop offset="0.14" stop-color="#404040"/>
<stop offset="0.24" stop-color="#393939"/>
<stop offset="0.39" stop-color="#262626"/>
<stop offset="0.55" stop-color="#0B0B0B"/>
<stop offset="0.69" stop-color="#050505"/>
<stop offset="0.94"/>
</radialGradient>
<radialGradient id="paint2_radial_35_504" cx="0" cy="0" r="1" gradientUnits="userSpaceOnUse" gradientTransform="translate(53.9853 49.2807) scale(3.55522 3.55522)">
<stop offset="0.14" stop-color="#404040"/>
<stop offset="0.24" stop-color="#393939"/>
<stop offset="0.39" stop-color="#262626"/>
<stop offset="0.55" stop-color="#0B0B0B"/>
<stop offset="0.69" stop-color="#050505"/>
<stop offset="0.94"/>
</radialGradient>
<radialGradient id="paint3_radial_35_504" cx="0" cy="0" r="1" gradientUnits="userSpaceOnUse" gradientTransform="translate(54.873 49.2609) scale(3.43872)">
<stop offset="0.14" stop-color="#404040"/>
<stop offset="0.24" stop-color="#393939"/>
<stop offset="0.39" stop-color="#262626"/>
<stop offset="0.55" stop-color="#0B0B0B"/>
<stop offset="0.69" stop-color="#050505"/>
<stop offset="0.94"/>
</radialGradient>
<radialGradient id="paint4_radial_35_504" cx="0" cy="0" r="1" gradientUnits="userSpaceOnUse" gradientTransform="translate(46.4174 50.2403) scale(5.44952)">
<stop offset="0.14" stop-color="#404040"/>
<stop offset="0.24" stop-color="#393939"/>
<stop offset="0.39" stop-color="#262626"/>
<stop offset="0.55" stop-color="#0B0B0B"/>
<stop offset="0.69" stop-color="#050505"/>
<stop offset="0.94"/>
</radialGradient>
<radialGradient id="paint5_radial_35_504" cx="0" cy="0" r="1" gradientUnits="userSpaceOnUse" gradientTransform="translate(43.4687 47.2814) scale(6.82283)">
<stop offset="0.14" stop-color="#404040"/>
<stop offset="0.24" stop-color="#393939"/>
<stop offset="0.39" stop-color="#262626"/>
<stop offset="0.55" stop-color="#0B0B0B"/>
<stop offset="0.69" stop-color="#050505"/>
<stop offset="0.94"/>
</radialGradient>
<radialGradient id="paint6_radial_35_504" cx="0" cy="0" r="1" gradientUnits="userSpaceOnUse" gradientTransform="translate(42.6084 48.8065) scale(7.72286 7.72285)">
<stop offset="0.14" stop-color="#404040"/>
<stop offset="0.24" stop-color="#393939"/>
<stop offset="0.39" stop-color="#262626"/>
<stop offset="0.55" stop-color="#0B0B0B"/>
<stop offset="0.69" stop-color="#050505"/>
<stop offset="0.94"/>
</radialGradient>
<radialGradient id="paint7_radial_35_504" cx="0" cy="0" r="1" gradientUnits="userSpaceOnUse" gradientTransform="translate(48.0465 50.1979) scale(5.07576 5.07576)">
<stop offset="0.14" stop-color="#404040"/>
<stop offset="0.24" stop-color="#393939"/>
<stop offset="0.39" stop-color="#262626"/>
<stop offset="0.55" stop-color="#0B0B0B"/>
<stop offset="0.69" stop-color="#050505"/>
<stop offset="0.94"/>
</radialGradient>
<clipPath id="clip0_35_504">
<rect width="100" height="100" fill="white"/>
</clipPath>
</defs>
</svg>
