<svg width="100" height="100" viewBox="0 0 100 100" fill="none" xmlns="http://www.w3.org/2000/svg">
<g clip-path="url(#clip0_35_452)">
<path d="M80 60C86.6274 60 92 58.2091 92 56C92 53.7909 86.6274 52 80 52C73.3726 52 68 53.7909 68 56C68 58.2091 73.3726 60 80 60Z" fill="#413D4A"/>
<path d="M64 72C70.6274 72 76 70.2091 76 68C76 65.7909 70.6274 64 64 64C57.3726 64 52 65.7909 52 68C52 70.2091 57.3726 72 64 72Z" fill="#413D4A"/>
<path d="M32 24H46V38H32V24Z" fill="#413D4A"/>
<path d="M12 60H14V64H12V60Z" fill="#A09EA5"/>
<path d="M92.046 57.9942C92.3335 57.7452 92.5666 57.4396 92.7308 57.0966C92.8949 56.7535 92.9866 56.3802 93 56.0002C93 52.7172 86.46 51.0002 80 51.0002C73.54 51.0002 67 52.7172 67 56.0002C67.0134 56.3802 67.1051 56.7535 67.2692 57.0966C67.4334 57.4396 67.6665 57.7452 67.954 57.9942C67.656 58.2354 67.4156 58.5401 67.2505 58.8862C67.0854 59.2322 66.9997 59.6108 66.9997 59.9942C66.9997 60.3776 67.0854 60.7561 67.2505 61.1022C67.4156 61.4482 67.656 61.753 67.954 61.9942C67.6142 62.316 67.3499 62.7091 67.18 63.1452C66.7933 63.1105 66.4 63.0822 66 63.0602V39.0002H71V23.0002H52.644C53.6886 22.1601 54.5322 21.0971 55.113 19.8889C55.6938 18.6808 55.9972 17.3581 56.001 16.0176C56.0047 14.6771 55.7088 13.3527 55.1348 12.1414C54.5607 10.93 53.7232 9.86227 52.6833 9.01631C51.6435 8.17035 50.4277 7.56755 49.1248 7.25202C47.822 6.93649 46.4651 6.9162 45.1534 7.19265C43.8417 7.46909 42.6084 8.03528 41.5438 8.84978C40.4791 9.66428 39.61 10.7065 39 11.9002C38.3904 10.7057 37.5214 9.66265 36.4566 8.84741C35.3918 8.03216 34.1582 7.46534 32.8461 7.18844C31.5339 6.91154 30.1765 6.93157 28.8731 7.24706C27.5697 7.56256 26.3533 8.16552 25.313 9.01183C24.2728 9.85813 23.4349 10.9264 22.8608 12.1383C22.2867 13.3502 21.9909 14.6752 21.995 16.0163C21.9991 17.3573 22.3031 18.6804 22.8846 19.8888C23.4662 21.0972 24.3106 22.1603 25.356 23.0002H7V39.0002H12V56.0002H14V39.0002H64V63.0002C57.54 63.0002 51 64.7172 51 68.0002C51.0134 68.3802 51.1051 68.7535 51.2692 69.0966C51.4334 69.4396 51.6665 69.7452 51.954 69.9942C51.656 70.2354 51.4156 70.5401 51.2505 70.8862C51.0854 71.2322 50.9997 71.6108 50.9997 71.9942C50.9997 72.3776 51.0854 72.7561 51.2505 73.1022C51.4156 73.4482 51.656 73.753 51.954 73.9942C51.6503 74.2808 51.4033 74.6221 51.226 75.0002H14V68.0002H12V77.0002H51.23C51.4083 77.3731 51.6537 77.7101 51.954 77.9942C51.656 78.2354 51.4156 78.5401 51.2505 78.8862C51.0854 79.2322 50.9997 79.6108 50.9997 79.9942C50.9997 80.3776 51.0854 80.7561 51.2505 81.1022C51.4156 81.4482 51.656 81.753 51.954 81.9942C51.656 82.2354 51.4156 82.5401 51.2505 82.8862C51.0854 83.2322 50.9997 83.6108 50.9997 83.9942C50.9997 84.3776 51.0854 84.7561 51.2505 85.1022C51.4156 85.4482 51.656 85.753 51.954 85.9942C51.6651 86.2445 51.4311 86.552 51.2669 86.8973C51.1028 87.2425 51.0119 87.618 51 88.0002C51 91.2832 57.54 93.0002 64 93.0002C69.874 93.0002 75.8 91.5762 76.826 88.8502C77.868 88.9432 78.932 89.0002 80 89.0002C86.46 89.0002 93 87.2832 93 84.0002C92.9881 83.618 92.8972 83.2425 92.733 82.8973C92.5689 82.552 92.3349 82.2445 92.046 81.9942C92.344 81.753 92.5844 81.4482 92.7495 81.1022C92.9146 80.7561 93.0003 80.3776 93.0003 79.9942C93.0003 79.6108 92.9146 79.2322 92.7495 78.8862C92.5844 78.5401 92.344 78.2354 92.046 77.9942C92.344 77.753 92.5844 77.4482 92.7495 77.1022C92.9146 76.7561 93.0003 76.3776 93.0003 75.9942C93.0003 75.6108 92.9146 75.2322 92.7495 74.8862C92.5844 74.5401 92.344 74.2354 92.046 73.9942C92.344 73.753 92.5844 73.4482 92.7495 73.1022C92.9146 72.7561 93.0003 72.3776 93.0003 71.9942C93.0003 71.6108 92.9146 71.2322 92.7495 70.8862C92.5844 70.5401 92.344 70.2354 92.046 69.9942C92.344 69.753 92.5844 69.4482 92.7495 69.1022C92.9146 68.7561 93.0003 68.3776 93.0003 67.9942C93.0003 67.6108 92.9146 67.2322 92.7495 66.8862C92.5844 66.5401 92.344 66.2354 92.046 65.9942C92.344 65.753 92.5844 65.4482 92.7495 65.1022C92.9146 64.7561 93.0003 64.3776 93.0003 63.9942C93.0003 63.6108 92.9146 63.2322 92.7495 62.8862C92.5844 62.5401 92.344 62.2354 92.046 61.9942C92.344 61.753 92.5844 61.4482 92.7495 61.1022C92.9146 60.7561 93.0003 60.3776 93.0003 59.9942C93.0003 59.6108 92.9146 59.2322 92.7495 58.8862C92.5844 58.5401 92.344 58.2354 92.046 57.9942ZM31 37.0002H9V25.0002H31V37.0002ZM24 16.0002C24 14.1436 24.7375 12.3632 26.0503 11.0504C27.363 9.73766 29.1435 9.00016 31 9.00016C32.8565 9.00016 34.637 9.73766 35.9497 11.0504C37.2625 12.3632 38 14.1436 38 16.0002V23.0002H31C29.1441 22.998 27.3649 22.2599 26.0526 20.9476C24.7403 19.6353 24.0021 17.856 24 16.0002ZM45 37.0002H33V25.0002H45V37.0002ZM40 23.0002V16.0002C40 14.6157 40.4105 13.2623 41.1797 12.1112C41.9489 10.96 43.0421 10.0628 44.3212 9.53301C45.6003 9.00319 47.0078 8.86457 48.3656 9.13467C49.7235 9.40476 50.9708 10.0714 51.9497 11.0504C52.9287 12.0294 53.5954 13.2767 53.8655 14.6345C54.1356 15.9924 53.997 17.3999 53.4672 18.6789C52.9373 19.958 52.0401 21.0513 50.889 21.8204C49.7378 22.5896 48.3845 23.0002 47 23.0002H40ZM47 37.0002V25.0002H69V37.0002H47ZM64 91.0002C56.883 91.0002 53 89.0182 53 88.0002C53 87.7592 53.247 87.4612 53.678 87.1512C56.179 88.3702 60.1 89.0002 64 89.0002C67.9 89.0002 71.821 88.3702 74.322 87.1512C74.753 87.4612 75 87.7592 75 88.0002C75 89.0182 71.117 91.0002 64 91.0002ZM64 87.0002C56.883 87.0002 53 85.0182 53 84.0002C53 83.7592 53.247 83.4612 53.678 83.1512C56.179 84.3702 60.1 85.0002 64 85.0002C67.9 85.0002 71.821 84.3702 74.322 83.1512C74.753 83.4612 75 83.7592 75 84.0002C75 85.0182 71.117 87.0002 64 87.0002ZM64 83.0002C56.883 83.0002 53 81.0182 53 80.0002C53 79.7592 53.247 79.4612 53.678 79.1512C56.179 80.3702 60.1 81.0002 64 81.0002C67.9 81.0002 71.821 80.3702 74.322 79.1512C74.753 79.4612 75 79.7592 75 80.0002C75 81.0182 71.117 83.0002 64 83.0002ZM64 79.0002C56.883 79.0002 53 77.0182 53 76.0002C53 75.7592 53.247 75.4612 53.678 75.1512C56.179 76.3702 60.1 77.0002 64 77.0002C67.9 77.0002 71.821 76.3702 74.322 75.1512C74.753 75.4612 75 75.7592 75 76.0002C75 77.0182 71.117 79.0002 64 79.0002ZM64 75.0002C56.883 75.0002 53 73.0182 53 72.0002C53 71.7592 53.247 71.4612 53.678 71.1512C56.179 72.3702 60.1 73.0002 64 73.0002C67.9 73.0002 71.821 72.3702 74.322 71.1512C74.753 71.4612 75 71.7592 75 72.0002C75 73.0182 71.117 75.0002 64 75.0002ZM64 71.0002C56.883 71.0002 53 69.0182 53 68.0002C53 66.9822 56.883 65.0002 64 65.0002C71.117 65.0002 75 66.9822 75 68.0002C75 69.0182 71.117 71.0002 64 71.0002ZM80 87.0002C78.793 87.0002 77.7 86.9322 76.687 86.8322C76.5176 86.5216 76.3014 86.2389 76.046 85.9942C76.3871 85.672 76.6537 85.2792 76.827 84.8432C77.868 84.9432 78.927 85.0002 80 85.0002C83.9 85.0002 87.821 84.3702 90.322 83.1512C90.753 83.4612 91 83.7592 91 84.0002C91 85.0182 87.117 87.0002 80 87.0002ZM80 83.0002C78.793 83.0002 77.7 82.9322 76.687 82.8322C76.5176 82.5216 76.3014 82.2389 76.046 81.9942C76.3871 81.672 76.6537 81.2792 76.827 80.8432C77.868 80.9432 78.927 81.0002 80 81.0002C83.9 81.0002 87.821 80.3702 90.322 79.1512C90.753 79.4612 91 79.7592 91 80.0002C91 81.0182 87.117 83.0002 80 83.0002ZM80 79.0002C78.793 79.0002 77.7 78.9322 76.687 78.8322C76.5176 78.5216 76.3014 78.2389 76.046 77.9942C76.3871 77.672 76.6537 77.2792 76.827 76.8432C77.868 76.9432 78.927 77.0002 80 77.0002C83.9 77.0002 87.821 76.3702 90.322 75.1512C90.753 75.4612 91 75.7592 91 76.0002C91 77.0182 87.117 79.0002 80 79.0002ZM80 75.0002C78.793 75.0002 77.7 74.9322 76.687 74.8322C76.5176 74.5216 76.3014 74.2389 76.046 73.9942C76.3871 73.672 76.6537 73.2792 76.827 72.8432C77.868 72.9432 78.927 73.0002 80 73.0002C83.9 73.0002 87.821 72.3702 90.322 71.1512C90.753 71.4612 91 71.7592 91 72.0002C91 73.0182 87.117 75.0002 80 75.0002ZM80 71.0002C78.793 71.0002 77.7 70.9322 76.687 70.8322C76.5176 70.5216 76.3014 70.2389 76.046 69.9942C76.3871 69.672 76.6537 69.2792 76.827 68.8432C77.868 68.9432 78.927 69.0002 80 69.0002C83.9 69.0002 87.821 68.3702 90.322 67.1512C90.753 67.4612 91 67.7592 91 68.0002C91 69.0182 87.117 71.0002 80 71.0002ZM80 67.0002C78.8 67.0002 77.713 66.9332 76.7 66.8342C76.079 65.6722 74.525 64.7722 72.487 64.1342C74.9468 64.727 77.4698 65.0178 80 65.0002C83.9 65.0002 87.821 64.3702 90.322 63.1512C90.753 63.4612 91 63.7592 91 64.0002C91 65.0182 87.117 67.0002 80 67.0002ZM69.368 63.4172C69.4645 63.3209 69.5682 63.2319 69.678 63.1512C70.269 63.4281 70.8793 63.6621 71.504 63.8512C70.7983 63.6772 70.0857 63.5325 69.368 63.4172ZM80 63.0002C72.883 63.0002 69 61.0182 69 60.0002C69 59.7592 69.247 59.4612 69.678 59.1512C72.179 60.3702 76.1 61.0002 80 61.0002C83.9 61.0002 87.821 60.3702 90.322 59.1512C90.753 59.4612 91 59.7592 91 60.0002C91 61.0182 87.117 63.0002 80 63.0002ZM80 59.0002C72.883 59.0002 69 57.0182 69 56.0002C69 54.9822 72.883 53.0002 80 53.0002C87.117 53.0002 91 54.9822 91 56.0002C91 57.0182 87.117 59.0002 80 59.0002Z" fill="#A09EA5"/>
<path d="M47.7332 53.3715C43.8521 50.2627 41.8226 48.7179 39.583 44.3262C37.3305 48.7115 35.295 50.2488 31.4024 53.3442C25.3219 58.1825 28.6795 64.5168 33.4255 64.8297C36.3828 65.0239 38.1793 62.915 39.0078 61.5903C38.7565 63.2929 38.2558 66.2711 37.6305 67.785H41.455C40.8356 66.2671 40.3459 63.2929 40.1025 61.5923C40.9255 62.9184 42.7151 65.0343 45.6729 64.8501C50.4194 64.554 53.7989 58.2316 47.7332 53.3715Z" fill="#A09EA5"/>
<path d="M45.4845 52.8714C45.4182 52.7358 45.3098 52.6253 45.1755 52.5565C45.0412 52.4876 44.8882 52.4641 44.7394 52.4894L41.5993 53.1515C41.2587 53.2385 40.9415 53.3998 40.6705 53.6238L38.8174 55.2912C38.5968 55.4899 38.5149 55.8739 38.6356 56.1451L40.3109 59.9165C40.3773 60.0519 40.4857 60.1623 40.62 60.2311C40.7543 60.2998 40.9072 60.3233 41.056 60.2979L44.1956 59.6358C44.5365 59.5491 44.8539 59.3878 45.1249 59.1635L46.9776 57.4966C47.1981 57.2979 47.28 56.9135 47.1593 56.6423L45.4845 52.8714Z" fill="url(#paint0_radial_35_452)"/>
<path d="M41.6408 54.0183C41.4947 53.6895 41.6631 53.3602 42.0148 53.2857L44.4983 52.7617C44.6789 52.7301 44.8648 52.7581 45.0281 52.8415C45.1914 52.9249 45.323 53.0592 45.4032 53.2241L46.8069 56.3836C46.9529 56.7119 46.7845 57.0417 46.4329 57.1157L43.9494 57.6397C43.7688 57.6713 43.5828 57.6433 43.4196 57.5599C43.2563 57.4765 43.1246 57.3422 43.0444 57.1773L41.6408 54.0183Z" fill="url(#paint1_radial_35_452)"/>
<path d="M45.1578 53.9393C45.0629 53.7252 44.833 53.5842 44.6437 53.6239C44.4545 53.6636 44.379 53.8693 44.4744 54.0838C44.5697 54.2984 44.7997 54.439 44.9884 54.3992C45.1772 54.3595 45.2532 54.1534 45.1578 53.9393Z" fill="white"/>
<path d="M43.1114 54.3714C43.0161 54.1569 42.7861 54.0158 42.5969 54.0555C42.4076 54.0953 42.3321 54.3039 42.4275 54.5155C42.5229 54.7271 42.7523 54.8711 42.9416 54.8309C43.1308 54.7906 43.2063 54.5855 43.1114 54.3714Z" fill="white"/>
<path d="M46.0217 55.8828C45.9263 55.6687 45.6963 55.5271 45.5076 55.5674C45.3188 55.6076 45.2429 55.8127 45.3377 56.0273C45.4326 56.2419 45.6636 56.3825 45.8523 56.3427C46.041 56.303 46.117 56.0974 46.0217 55.8828Z" fill="white"/>
<path d="M43.9731 56.3148C43.8777 56.1002 43.6477 55.9592 43.459 55.9989C43.2702 56.0386 43.1937 56.2443 43.2891 56.4588C43.3845 56.6734 43.6144 56.814 43.8032 56.7742C43.9919 56.7345 44.0684 56.5289 43.9731 56.3148Z" fill="white"/>
<path d="M42.7992 58.6574C43.0664 58.417 43.5725 58.1607 43.9247 58.0852L45.9979 57.6476C46.3501 57.5736 46.4191 57.7097 46.1519 57.9501L45.1088 58.8884C44.8416 59.1288 44.3355 59.3851 43.9833 59.4605L41.9101 59.8981C41.5584 59.9721 41.4889 59.836 41.7561 59.5956L42.7992 58.6574Z" fill="url(#paint2_radial_35_452)"/>
<path d="M44.2372 58.7131C44.3365 58.6242 44.2898 58.579 44.1334 58.6138C43.9648 58.6523 43.8068 58.7277 43.671 58.8348C43.5716 58.9237 43.6188 58.9689 43.7753 58.9342C43.9436 58.8954 44.1014 58.8199 44.2372 58.7131Z" fill="white"/>
<path d="M45.533 58.1306C45.6323 58.0417 45.5856 57.9965 45.4292 58.0313C45.2607 58.0698 45.103 58.1453 44.9673 58.2523C44.8679 58.3412 44.9176 58.3864 45.0711 58.3516C45.2394 58.3128 45.3971 58.2373 45.533 58.1306Z" fill="white"/>
<path d="M43.8391 58.4882C43.9385 58.3993 43.8918 58.3536 43.7353 58.3889C43.5668 58.4275 43.409 58.5028 43.2729 58.6094C43.1736 58.6983 43.2203 58.744 43.3767 58.7088C43.5453 58.6704 43.7032 58.5951 43.8391 58.4882Z" fill="white"/>
<path d="M44.6358 58.9385C44.7351 58.8491 44.6884 58.8039 44.532 58.8392C44.3635 58.8777 44.2055 58.953 44.0696 59.0597C43.9702 59.1491 44.0199 59.1943 44.1734 59.159C44.3418 59.1204 44.4997 59.0451 44.6358 58.9385Z" fill="white"/>
<path d="M42.9407 59.2959C43.04 59.2065 42.9933 59.1613 42.8369 59.1966C42.6685 59.2352 42.5107 59.3107 42.375 59.4176C42.2756 59.5065 42.3223 59.5522 42.4788 59.5169C42.6471 59.4785 42.8049 59.4031 42.9407 59.2964" fill="white"/>
<path d="M38.9415 56.3051C38.7955 55.9768 38.8919 55.5104 39.1616 55.2705L40.5076 54.0596C40.7748 53.8192 41.1131 53.8912 41.2586 54.22L42.6573 57.3675C42.8033 57.6959 42.707 58.1623 42.4373 58.4022L41.0912 59.6131C40.824 59.8535 40.4858 59.7815 40.3402 59.4527L38.9415 56.3051Z" fill="url(#paint3_radial_35_452)"/>
<path d="M39.4002 56.1847C39.3823 56.4763 39.5244 56.7847 39.7181 56.8751C39.9118 56.9655 40.0827 56.8026 40.101 56.511C40.1194 56.2195 39.9764 55.9105 39.7832 55.8206C39.5899 55.7307 39.4181 55.8936 39.4002 56.1847Z" fill="white"/>
<path d="M41.4974 57.1618C41.4795 57.4533 41.6215 57.7618 41.8153 57.8522C42.009 57.9426 42.1803 57.7796 42.1982 57.4881C42.2161 57.1965 42.074 56.8876 41.8803 56.7977C41.6866 56.7078 41.5152 56.8707 41.4974 57.1618Z" fill="white"/>
<path d="M39.5524 56.4232C39.4559 56.0723 39.276 55.7498 39.0279 55.4835L36.9606 53.454C36.7406 53.2379 36.3383 53.1803 36.0666 53.3264L32.3304 55.331C32.1933 55.4123 32.0844 55.5337 32.0184 55.6788C31.9524 55.824 31.9325 55.9858 31.9614 56.1426L32.6568 59.1824C32.7535 59.5332 32.9336 59.8554 33.1818 60.1216L35.2485 62.1511C35.4685 62.3672 35.8709 62.4248 36.1426 62.2788L39.8787 60.2741C40.016 60.193 40.125 60.0716 40.191 59.9264C40.257 59.7813 40.2768 59.6193 40.2477 59.4625L39.5524 56.4232Z" fill="url(#paint4_radial_35_452)"/>
<path d="M32.6107 56.042C32.3907 55.8264 32.4329 55.5304 32.7046 55.3844L36.026 53.6017C36.2977 53.4557 36.7 53.5133 36.92 53.7294L38.6515 55.4301C38.8715 55.6461 38.8293 55.9422 38.5576 56.0877L35.2357 57.8703C34.964 58.0164 34.5617 57.9588 34.3417 57.7427L32.6107 56.042Z" fill="url(#paint5_radial_35_452)"/>
<path d="M37.1374 56.2729C37.3504 56.1586 37.4185 55.9629 37.2864 55.8358C37.1542 55.7086 36.8791 55.6987 36.6665 55.8129C36.4539 55.9272 36.3854 56.1229 36.5145 56.25C36.6436 56.3772 36.9213 56.3871 37.1349 56.2729" fill="white"/>
<path d="M36.4865 55.6342C36.6996 55.5199 36.7677 55.3242 36.6385 55.1971C36.5094 55.0699 36.2312 55.06 36.0182 55.1742C35.8051 55.2885 35.737 55.4842 35.8662 55.6113C35.9953 55.7385 36.2735 55.7484 36.4865 55.6342Z" fill="white"/>
<path d="M35.835 54.9938C36.0481 54.8795 36.1162 54.6838 35.987 54.5567C35.8579 54.4295 35.5797 54.4191 35.3667 54.5338C35.1536 54.6486 35.0855 54.8438 35.2152 54.9709C35.3448 55.0981 35.622 55.108 35.835 54.9938Z" fill="white"/>
<path d="M35.8964 56.9384C36.11 56.8237 36.1781 56.628 36.0484 56.5008C35.9188 56.3736 35.6416 56.3637 35.4281 56.478C35.2145 56.5922 35.1469 56.7884 35.2766 56.915C35.4062 57.0417 35.6834 57.0526 35.8964 56.9384Z" fill="white"/>
<path d="M35.2453 56.2997C35.4584 56.185 35.5265 55.9893 35.3973 55.8621C35.2682 55.735 34.99 55.725 34.7765 55.8393C34.5629 55.9535 34.4958 56.1497 34.625 56.2764C34.7541 56.403 35.0323 56.414 35.2453 56.2997Z" fill="white"/>
<path d="M34.5944 55.6596C34.8075 55.5453 34.8761 55.3496 34.7464 55.2225C34.6168 55.0953 34.3391 55.0854 34.126 55.1996C33.913 55.3139 33.8444 55.5096 33.9741 55.6367C34.1037 55.7639 34.3814 55.7743 34.5944 55.6596Z" fill="white"/>
<path d="M33.3843 60.0068C33.1365 59.7404 32.9565 59.4182 32.8593 59.0676L32.3502 56.8389C32.2812 56.5379 32.4048 56.4689 32.6254 56.6849L34.0991 58.1323C34.347 58.3986 34.5271 58.7208 34.6241 59.0716L35.1317 61.3002C35.2002 61.6012 35.0766 61.6703 34.8565 61.4542L33.3843 60.0068Z" fill="url(#paint6_radial_35_452)"/>
<path d="M34.082 59.4041C34.0199 59.1334 33.8177 58.7648 33.63 58.5806C33.4422 58.3963 33.3404 58.4658 33.4025 58.7365C33.4646 59.0072 33.6662 59.3758 33.854 59.56C34.0417 59.7443 34.1436 59.6743 34.082 59.4041Z" fill="white"/>
<path d="M35.0847 59.0744C35.0558 58.9176 35.0757 58.7557 35.1417 58.6106C35.2077 58.4655 35.3166 58.3441 35.4537 58.2628L38.7816 56.4782C39.0533 56.3322 39.3319 56.4588 39.4005 56.7593L39.992 59.3456C40.0209 59.5024 40.0009 59.6643 39.9348 59.8095C39.8687 59.9546 39.7597 60.076 39.6225 60.1572L36.2946 61.9423C36.0229 62.0878 35.7443 61.9612 35.6752 61.6607L35.0847 59.0744Z" fill="url(#paint7_radial_35_452)"/>
<path d="M36.0591 58.6862C36.1947 58.4667 36.452 58.341 36.6348 58.4056C36.8176 58.4702 36.8553 58.7002 36.7197 58.9197C36.5841 59.1392 36.3268 59.2649 36.1441 59.2003C35.9613 59.1358 35.9235 58.9058 36.0591 58.6862Z" fill="white"/>
<path d="M37.207 59.0935C37.3426 58.8739 37.5999 58.7483 37.7827 58.8128C37.9655 58.8774 38.0032 59.1074 37.8681 59.3269C37.733 59.5465 37.4747 59.6746 37.2924 59.6076C37.1102 59.5405 37.0719 59.313 37.207 59.0935Z" fill="white"/>
<path d="M38.3546 59.4986C38.4902 59.279 38.748 59.1539 38.9303 59.2179C39.1126 59.282 39.1513 59.5125 39.0157 59.732C38.8801 59.9516 38.6228 60.0797 38.4401 60.0126C38.2573 59.9456 38.2195 59.7181 38.3546 59.4986Z" fill="white"/>
</g>
<defs>
<radialGradient id="paint0_radial_35_452" cx="0" cy="0" r="1" gradientUnits="userSpaceOnUse" gradientTransform="translate(42.8967 56.3939) scale(7.05207 7.05206)">
<stop offset="0.14" stop-color="#404040"/>
<stop offset="0.24" stop-color="#393939"/>
<stop offset="0.39" stop-color="#262626"/>
<stop offset="0.55" stop-color="#0B0B0B"/>
<stop offset="0.69" stop-color="#050505"/>
<stop offset="0.94"/>
</radialGradient>
<radialGradient id="paint1_radial_35_452" cx="0" cy="0" r="1" gradientUnits="userSpaceOnUse" gradientTransform="translate(45.5781 52.6301) scale(6.61597 6.61597)">
<stop offset="0.14" stop-color="#404040"/>
<stop offset="0.24" stop-color="#393939"/>
<stop offset="0.39" stop-color="#262626"/>
<stop offset="0.55" stop-color="#0B0B0B"/>
<stop offset="0.69" stop-color="#050505"/>
<stop offset="0.94"/>
</radialGradient>
<radialGradient id="paint2_radial_35_452" cx="0" cy="0" r="1" gradientUnits="userSpaceOnUse" gradientTransform="translate(44.4522 55.1716) scale(4.36545 4.36545)">
<stop offset="0.14" stop-color="#404040"/>
<stop offset="0.24" stop-color="#393939"/>
<stop offset="0.39" stop-color="#262626"/>
<stop offset="0.55" stop-color="#0B0B0B"/>
<stop offset="0.69" stop-color="#050505"/>
<stop offset="0.94"/>
</radialGradient>
<radialGradient id="paint3_radial_35_452" cx="0" cy="0" r="1" gradientUnits="userSpaceOnUse" gradientTransform="translate(45.5421 55.1473) scale(4.2224)">
<stop offset="0.14" stop-color="#404040"/>
<stop offset="0.24" stop-color="#393939"/>
<stop offset="0.39" stop-color="#262626"/>
<stop offset="0.55" stop-color="#0B0B0B"/>
<stop offset="0.69" stop-color="#050505"/>
<stop offset="0.94"/>
</radialGradient>
<radialGradient id="paint4_radial_35_452" cx="0" cy="0" r="1" gradientUnits="userSpaceOnUse" gradientTransform="translate(35.1596 56.3502) scale(6.69147)">
<stop offset="0.14" stop-color="#404040"/>
<stop offset="0.24" stop-color="#393939"/>
<stop offset="0.39" stop-color="#262626"/>
<stop offset="0.55" stop-color="#0B0B0B"/>
<stop offset="0.69" stop-color="#050505"/>
<stop offset="0.94"/>
</radialGradient>
<radialGradient id="paint5_radial_35_452" cx="0" cy="0" r="1" gradientUnits="userSpaceOnUse" gradientTransform="translate(31.5388 52.7171) scale(8.37774)">
<stop offset="0.14" stop-color="#404040"/>
<stop offset="0.24" stop-color="#393939"/>
<stop offset="0.39" stop-color="#262626"/>
<stop offset="0.55" stop-color="#0B0B0B"/>
<stop offset="0.69" stop-color="#050505"/>
<stop offset="0.94"/>
</radialGradient>
<radialGradient id="paint6_radial_35_452" cx="0" cy="0" r="1" gradientUnits="userSpaceOnUse" gradientTransform="translate(30.4826 54.5894) scale(9.48289 9.48288)">
<stop offset="0.14" stop-color="#404040"/>
<stop offset="0.24" stop-color="#393939"/>
<stop offset="0.39" stop-color="#262626"/>
<stop offset="0.55" stop-color="#0B0B0B"/>
<stop offset="0.69" stop-color="#050505"/>
<stop offset="0.94"/>
</radialGradient>
<radialGradient id="paint7_radial_35_452" cx="0" cy="0" r="1" gradientUnits="userSpaceOnUse" gradientTransform="translate(37.1599 56.2984) scale(6.23252 6.23252)">
<stop offset="0.14" stop-color="#404040"/>
<stop offset="0.24" stop-color="#393939"/>
<stop offset="0.39" stop-color="#262626"/>
<stop offset="0.55" stop-color="#0B0B0B"/>
<stop offset="0.69" stop-color="#050505"/>
<stop offset="0.94"/>
</radialGradient>
<clipPath id="clip0_35_452">
<rect width="100" height="100" fill="white"/>
</clipPath>
</defs>
</svg>
