<svg width="100" height="100" viewBox="0 0 100 100" fill="none" xmlns="http://www.w3.org/2000/svg">
<g clip-path="url(#clip0_35_729)">
<path d="M80 60C86.6274 60 92 58.2091 92 56C92 53.7909 86.6274 52 80 52C73.3726 52 68 53.7909 68 56C68 58.2091 73.3726 60 80 60Z" fill="#D6D6D6"/>
<path d="M64 72C70.6274 72 76 70.2091 76 68C76 65.7909 70.6274 64 64 64C57.3726 64 52 65.7909 52 68C52 70.2091 57.3726 72 64 72Z" fill="#D6D6D6"/>
<path d="M32 24H46V38H32V24Z" fill="#D6D6D6"/>
<path d="M12 60H14V64H12V60Z" fill="#666666"/>
<path d="M92.046 57.9942C92.3335 57.7452 92.5666 57.4396 92.7308 57.0966C92.8949 56.7535 92.9866 56.3802 93 56.0002C93 52.7172 86.46 51.0002 80 51.0002C73.54 51.0002 67 52.7172 67 56.0002C67.0134 56.3802 67.1051 56.7535 67.2692 57.0966C67.4334 57.4396 67.6665 57.7452 67.954 57.9942C67.656 58.2354 67.4156 58.5401 67.2505 58.8862C67.0854 59.2322 66.9997 59.6108 66.9997 59.9942C66.9997 60.3776 67.0854 60.7561 67.2505 61.1022C67.4156 61.4482 67.656 61.753 67.954 61.9942C67.6142 62.316 67.3499 62.7091 67.18 63.1452C66.7933 63.1105 66.4 63.0822 66 63.0602V39.0002H71V23.0002H52.644C53.6886 22.1601 54.5322 21.0971 55.113 19.8889C55.6938 18.6808 55.9972 17.3581 56.001 16.0176C56.0047 14.6771 55.7088 13.3527 55.1348 12.1414C54.5607 10.93 53.7232 9.86227 52.6833 9.01631C51.6435 8.17035 50.4277 7.56755 49.1248 7.25202C47.822 6.93649 46.4651 6.9162 45.1534 7.19265C43.8417 7.46909 42.6084 8.03528 41.5438 8.84978C40.4791 9.66428 39.61 10.7065 39 11.9002C38.3904 10.7057 37.5214 9.66265 36.4566 8.84741C35.3918 8.03216 34.1582 7.46534 32.8461 7.18844C31.5339 6.91154 30.1765 6.93157 28.8731 7.24706C27.5697 7.56256 26.3533 8.16552 25.313 9.01183C24.2728 9.85813 23.4349 10.9264 22.8608 12.1383C22.2867 13.3502 21.9909 14.6752 21.995 16.0163C21.9991 17.3573 22.3031 18.6804 22.8846 19.8888C23.4662 21.0972 24.3106 22.1603 25.356 23.0002H7V39.0002H12V56.0002H14V39.0002H64V63.0002C57.54 63.0002 51 64.7172 51 68.0002C51.0134 68.3802 51.1051 68.7535 51.2692 69.0966C51.4334 69.4396 51.6665 69.7452 51.954 69.9942C51.656 70.2354 51.4156 70.5401 51.2505 70.8862C51.0854 71.2322 50.9997 71.6108 50.9997 71.9942C50.9997 72.3776 51.0854 72.7561 51.2505 73.1022C51.4156 73.4482 51.656 73.753 51.954 73.9942C51.6503 74.2808 51.4033 74.6221 51.226 75.0002H14V68.0002H12V77.0002H51.23C51.4083 77.3731 51.6537 77.7101 51.954 77.9942C51.656 78.2354 51.4156 78.5401 51.2505 78.8862C51.0854 79.2322 50.9997 79.6108 50.9997 79.9942C50.9997 80.3776 51.0854 80.7561 51.2505 81.1022C51.4156 81.4482 51.656 81.753 51.954 81.9942C51.656 82.2354 51.4156 82.5401 51.2505 82.8862C51.0854 83.2322 50.9997 83.6108 50.9997 83.9942C50.9997 84.3776 51.0854 84.7561 51.2505 85.1022C51.4156 85.4482 51.656 85.753 51.954 85.9942C51.6651 86.2445 51.4311 86.552 51.2669 86.8973C51.1028 87.2425 51.0119 87.618 51 88.0002C51 91.2832 57.54 93.0002 64 93.0002C69.874 93.0002 75.8 91.5762 76.826 88.8502C77.868 88.9432 78.932 89.0002 80 89.0002C86.46 89.0002 93 87.2832 93 84.0002C92.9881 83.618 92.8972 83.2425 92.733 82.8973C92.5689 82.552 92.3349 82.2445 92.046 81.9942C92.344 81.753 92.5844 81.4482 92.7495 81.1022C92.9146 80.7561 93.0003 80.3776 93.0003 79.9942C93.0003 79.6108 92.9146 79.2322 92.7495 78.8862C92.5844 78.5401 92.344 78.2354 92.046 77.9942C92.344 77.753 92.5844 77.4482 92.7495 77.1022C92.9146 76.7561 93.0003 76.3776 93.0003 75.9942C93.0003 75.6108 92.9146 75.2322 92.7495 74.8862C92.5844 74.5401 92.344 74.2354 92.046 73.9942C92.344 73.753 92.5844 73.4482 92.7495 73.1022C92.9146 72.7561 93.0003 72.3776 93.0003 71.9942C93.0003 71.6108 92.9146 71.2322 92.7495 70.8862C92.5844 70.5401 92.344 70.2354 92.046 69.9942C92.344 69.753 92.5844 69.4482 92.7495 69.1022C92.9146 68.7561 93.0003 68.3776 93.0003 67.9942C93.0003 67.6108 92.9146 67.2322 92.7495 66.8862C92.5844 66.5401 92.344 66.2354 92.046 65.9942C92.344 65.753 92.5844 65.4482 92.7495 65.1022C92.9146 64.7561 93.0003 64.3776 93.0003 63.9942C93.0003 63.6108 92.9146 63.2322 92.7495 62.8862C92.5844 62.5401 92.344 62.2354 92.046 61.9942C92.344 61.753 92.5844 61.4482 92.7495 61.1022C92.9146 60.7561 93.0003 60.3776 93.0003 59.9942C93.0003 59.6108 92.9146 59.2322 92.7495 58.8862C92.5844 58.5401 92.344 58.2354 92.046 57.9942ZM31 37.0002H9V25.0002H31V37.0002ZM24 16.0002C24 14.1436 24.7375 12.3632 26.0503 11.0504C27.363 9.73766 29.1435 9.00016 31 9.00016C32.8565 9.00016 34.637 9.73766 35.9497 11.0504C37.2625 12.3632 38 14.1436 38 16.0002V23.0002H31C29.1441 22.998 27.3649 22.2599 26.0526 20.9476C24.7403 19.6353 24.0021 17.856 24 16.0002ZM45 37.0002H33V25.0002H45V37.0002ZM40 23.0002V16.0002C40 14.6157 40.4105 13.2623 41.1797 12.1112C41.9489 10.96 43.0421 10.0628 44.3212 9.53301C45.6003 9.00319 47.0078 8.86457 48.3656 9.13467C49.7235 9.40476 50.9708 10.0714 51.9497 11.0504C52.9287 12.0294 53.5954 13.2767 53.8655 14.6345C54.1356 15.9924 53.997 17.3999 53.4672 18.6789C52.9373 19.958 52.0401 21.0513 50.889 21.8204C49.7378 22.5896 48.3845 23.0002 47 23.0002H40ZM47 37.0002V25.0002H69V37.0002H47ZM64 91.0002C56.883 91.0002 53 89.0182 53 88.0002C53 87.7592 53.247 87.4612 53.678 87.1512C56.179 88.3702 60.1 89.0002 64 89.0002C67.9 89.0002 71.821 88.3702 74.322 87.1512C74.753 87.4612 75 87.7592 75 88.0002C75 89.0182 71.117 91.0002 64 91.0002ZM64 87.0002C56.883 87.0002 53 85.0182 53 84.0002C53 83.7592 53.247 83.4612 53.678 83.1512C56.179 84.3702 60.1 85.0002 64 85.0002C67.9 85.0002 71.821 84.3702 74.322 83.1512C74.753 83.4612 75 83.7592 75 84.0002C75 85.0182 71.117 87.0002 64 87.0002ZM64 83.0002C56.883 83.0002 53 81.0182 53 80.0002C53 79.7592 53.247 79.4612 53.678 79.1512C56.179 80.3702 60.1 81.0002 64 81.0002C67.9 81.0002 71.821 80.3702 74.322 79.1512C74.753 79.4612 75 79.7592 75 80.0002C75 81.0182 71.117 83.0002 64 83.0002ZM64 79.0002C56.883 79.0002 53 77.0182 53 76.0002C53 75.7592 53.247 75.4612 53.678 75.1512C56.179 76.3702 60.1 77.0002 64 77.0002C67.9 77.0002 71.821 76.3702 74.322 75.1512C74.753 75.4612 75 75.7592 75 76.0002C75 77.0182 71.117 79.0002 64 79.0002ZM64 75.0002C56.883 75.0002 53 73.0182 53 72.0002C53 71.7592 53.247 71.4612 53.678 71.1512C56.179 72.3702 60.1 73.0002 64 73.0002C67.9 73.0002 71.821 72.3702 74.322 71.1512C74.753 71.4612 75 71.7592 75 72.0002C75 73.0182 71.117 75.0002 64 75.0002ZM64 71.0002C56.883 71.0002 53 69.0182 53 68.0002C53 66.9822 56.883 65.0002 64 65.0002C71.117 65.0002 75 66.9822 75 68.0002C75 69.0182 71.117 71.0002 64 71.0002ZM80 87.0002C78.793 87.0002 77.7 86.9322 76.687 86.8322C76.5176 86.5216 76.3014 86.2389 76.046 85.9942C76.3871 85.672 76.6537 85.2792 76.827 84.8432C77.868 84.9432 78.927 85.0002 80 85.0002C83.9 85.0002 87.821 84.3702 90.322 83.1512C90.753 83.4612 91 83.7592 91 84.0002C91 85.0182 87.117 87.0002 80 87.0002ZM80 83.0002C78.793 83.0002 77.7 82.9322 76.687 82.8322C76.5176 82.5216 76.3014 82.2389 76.046 81.9942C76.3871 81.672 76.6537 81.2792 76.827 80.8432C77.868 80.9432 78.927 81.0002 80 81.0002C83.9 81.0002 87.821 80.3702 90.322 79.1512C90.753 79.4612 91 79.7592 91 80.0002C91 81.0182 87.117 83.0002 80 83.0002ZM80 79.0002C78.793 79.0002 77.7 78.9322 76.687 78.8322C76.5176 78.5216 76.3014 78.2389 76.046 77.9942C76.3871 77.672 76.6537 77.2792 76.827 76.8432C77.868 76.9432 78.927 77.0002 80 77.0002C83.9 77.0002 87.821 76.3702 90.322 75.1512C90.753 75.4612 91 75.7592 91 76.0002C91 77.0182 87.117 79.0002 80 79.0002ZM80 75.0002C78.793 75.0002 77.7 74.9322 76.687 74.8322C76.5176 74.5216 76.3014 74.2389 76.046 73.9942C76.3871 73.672 76.6537 73.2792 76.827 72.8432C77.868 72.9432 78.927 73.0002 80 73.0002C83.9 73.0002 87.821 72.3702 90.322 71.1512C90.753 71.4612 91 71.7592 91 72.0002C91 73.0182 87.117 75.0002 80 75.0002ZM80 71.0002C78.793 71.0002 77.7 70.9322 76.687 70.8322C76.5176 70.5216 76.3014 70.2389 76.046 69.9942C76.3871 69.672 76.6537 69.2792 76.827 68.8432C77.868 68.9432 78.927 69.0002 80 69.0002C83.9 69.0002 87.821 68.3702 90.322 67.1512C90.753 67.4612 91 67.7592 91 68.0002C91 69.0182 87.117 71.0002 80 71.0002ZM80 67.0002C78.8 67.0002 77.713 66.9332 76.7 66.8342C76.079 65.6722 74.525 64.7722 72.487 64.1342C74.9468 64.727 77.4698 65.0178 80 65.0002C83.9 65.0002 87.821 64.3702 90.322 63.1512C90.753 63.4612 91 63.7592 91 64.0002C91 65.0182 87.117 67.0002 80 67.0002ZM69.368 63.4172C69.4645 63.3209 69.5682 63.2319 69.678 63.1512C70.269 63.4281 70.8793 63.6621 71.504 63.8512C70.7983 63.6772 70.0857 63.5325 69.368 63.4172ZM80 63.0002C72.883 63.0002 69 61.0182 69 60.0002C69 59.7592 69.247 59.4612 69.678 59.1512C72.179 60.3702 76.1 61.0002 80 61.0002C83.9 61.0002 87.821 60.3702 90.322 59.1512C90.753 59.4612 91 59.7592 91 60.0002C91 61.0182 87.117 63.0002 80 63.0002ZM80 59.0002C72.883 59.0002 69 57.0182 69 56.0002C69 54.9822 72.883 53.0002 80 53.0002C87.117 53.0002 91 54.9822 91 56.0002C91 57.0182 87.117 59.0002 80 59.0002Z" fill="#666666"/>
<path d="M46.7989 53.3699C42.9959 50.3237 41.0073 48.8101 38.8129 44.5068C36.6058 48.8038 34.6113 50.3101 30.7972 53.3431C24.8391 58.0839 28.1291 64.2906 32.7794 64.5972C35.6772 64.7875 37.4375 62.7211 38.2493 61.4231C38.003 63.0914 37.5125 66.0096 36.8997 67.493H40.6472C40.0403 66.0057 39.5604 63.0914 39.322 61.425C40.1284 62.7245 41.8819 64.7978 44.7801 64.6172C49.4309 64.3271 52.7423 58.1321 46.7989 53.3699Z" fill="#666666"/>
<path d="M44.5956 52.8796C44.5307 52.7467 44.4244 52.6385 44.2928 52.571C44.1613 52.5036 44.0114 52.4805 43.8656 52.5053L40.7887 53.1541C40.455 53.2393 40.1442 53.3974 39.8786 53.6169L38.0628 55.2507C37.8467 55.4454 37.7664 55.8216 37.8847 56.0873L39.5263 59.7827C39.5913 59.9155 39.6976 60.0236 39.8292 60.091C39.9607 60.1584 40.1106 60.1813 40.2563 60.1565L43.3327 59.5078C43.6667 59.4228 43.9777 59.2647 44.2432 59.0449L46.0586 57.4116C46.2747 57.2169 46.355 56.8402 46.2367 56.5745L44.5956 52.8796Z" fill="url(#paint0_radial_35_729)"/>
<path d="M40.8292 54.0035C40.6861 53.6813 40.8511 53.3586 41.1956 53.2856L43.6291 52.7722C43.806 52.7412 43.9883 52.7686 44.1482 52.8504C44.3082 52.9321 44.4372 53.0637 44.5158 53.2253L45.8912 56.3211C46.0343 56.6428 45.8693 56.9659 45.5247 57.0385L43.0913 57.5519C42.9143 57.5829 42.7321 57.5554 42.5721 57.4737C42.4121 57.392 42.2831 57.2604 42.2045 57.0988L40.8292 54.0035Z" fill="url(#paint1_radial_35_729)"/>
<path d="M44.2753 53.9264C44.1823 53.7167 43.957 53.5785 43.7716 53.6174C43.5861 53.6563 43.5122 53.8578 43.6056 54.0681C43.6991 54.2783 43.9244 54.4161 44.1093 54.3771C44.2943 54.3382 44.3687 54.1362 44.2753 53.9264Z" fill="white"/>
<path d="M42.2704 54.3498C42.177 54.1395 41.9516 54.0013 41.7662 54.0403C41.5808 54.0792 41.5068 54.2836 41.6002 54.4909C41.6937 54.6983 41.9185 54.8394 42.104 54.8C42.2894 54.7606 42.3634 54.5595 42.2704 54.3498Z" fill="white"/>
<path d="M45.1221 55.8304C45.0286 55.6206 44.8033 55.4819 44.6183 55.5213C44.4334 55.5608 44.3589 55.7618 44.4519 55.972C44.5448 56.1823 44.7712 56.32 44.9561 56.2811C45.141 56.2421 45.2155 56.0406 45.1221 55.8304Z" fill="white"/>
<path d="M43.1147 56.2541C43.0213 56.0438 42.7959 55.9056 42.611 55.9446C42.426 55.9835 42.3511 56.185 42.4445 56.3952C42.538 56.6055 42.7633 56.7432 42.9483 56.7043C43.1332 56.6653 43.2081 56.4638 43.1147 56.2541Z" fill="white"/>
<path d="M41.9643 58.5497C42.2262 58.3142 42.7221 58.063 43.0672 57.9891L45.0986 57.5603C45.4437 57.4878 45.5113 57.6211 45.2495 57.8567L44.2274 58.776C43.9656 59.0116 43.4697 59.2627 43.1246 59.3367L41.0932 59.7655C40.7486 59.838 40.6805 59.7046 40.9423 59.4691L41.9643 58.5497Z" fill="url(#paint2_radial_35_729)"/>
<path d="M43.3734 58.6035C43.4707 58.5164 43.425 58.4721 43.2717 58.5061C43.1065 58.5438 42.9517 58.6178 42.8186 58.7227C42.7213 58.8098 42.7675 58.8541 42.9208 58.82C43.0858 58.7821 43.2403 58.7081 43.3734 58.6035Z" fill="white"/>
<path d="M44.6429 58.0332C44.7402 57.946 44.6945 57.9018 44.5411 57.9358C44.3761 57.9736 44.2215 58.0476 44.0885 58.1524C43.9912 58.2395 44.0399 58.2838 44.1902 58.2497C44.3552 58.2116 44.5097 58.1377 44.6429 58.0332Z" fill="white"/>
<path d="M42.9834 58.3839C43.0808 58.2968 43.035 58.2521 42.8817 58.2866C42.7166 58.3244 42.5619 58.3982 42.4286 58.5027C42.3313 58.5898 42.377 58.6346 42.5303 58.6C42.6955 58.5624 42.8502 58.4886 42.9834 58.3839Z" fill="white"/>
<path d="M43.7642 58.8254C43.8615 58.7378 43.8158 58.6935 43.6625 58.7281C43.4974 58.7658 43.3426 58.8396 43.2094 58.9442C43.112 59.0318 43.1607 59.0761 43.3111 59.0415C43.4762 59.0037 43.6309 58.9299 43.7642 58.8254Z" fill="white"/>
<path d="M42.1031 59.1755C42.2004 59.0879 42.1546 59.0436 42.0013 59.0782C41.8363 59.1161 41.6817 59.19 41.5487 59.2947C41.4514 59.3819 41.4971 59.4266 41.6504 59.3921C41.8154 59.3544 41.97 59.2806 42.1031 59.176" fill="white"/>
<path d="M38.1846 56.2448C38.0415 55.9231 38.1359 55.4661 38.4002 55.231L39.7191 54.0445C39.9809 53.8089 40.3123 53.8795 40.4549 54.2017L41.8255 57.2858C41.9685 57.6075 41.8741 58.0645 41.6098 58.2996L40.2909 59.4861C40.0291 59.7217 39.6977 59.6511 39.5551 59.3289L38.1846 56.2448Z" fill="url(#paint3_radial_35_729)"/>
<path d="M38.6338 56.1266C38.6163 56.4123 38.7555 56.7145 38.9453 56.8031C39.1351 56.8916 39.3025 56.732 39.3205 56.4463C39.3385 56.1606 39.1984 55.8579 39.009 55.7698C38.8197 55.6817 38.6513 55.8414 38.6338 56.1266Z" fill="white"/>
<path d="M40.6887 57.0841C40.6712 57.3698 40.8104 57.672 41.0002 57.7606C41.19 57.8492 41.3579 57.6895 41.3755 57.4038C41.393 57.1182 41.2538 56.8154 41.064 56.7274C40.8742 56.6393 40.7063 56.7989 40.6887 57.0841Z" fill="white"/>
<path d="M38.7829 56.3602C38.6884 56.0163 38.5121 55.7004 38.269 55.4394L36.2434 53.4508C36.0278 53.2391 35.6336 53.1826 35.3674 53.3257L31.7065 55.29C31.5721 55.3696 31.4654 55.4886 31.4008 55.6308C31.3361 55.773 31.3166 55.9316 31.3449 56.0852L32.0263 59.0637C32.1211 59.4075 32.2976 59.7232 32.5407 59.9841L34.5658 61.9727C34.7814 62.1844 35.1756 62.2408 35.4418 62.0977L39.1027 60.1335C39.2372 60.054 39.3441 59.9351 39.4087 59.7928C39.4734 59.6506 39.4928 59.4919 39.4643 59.3382L38.7829 56.3602Z" fill="url(#paint4_radial_35_729)"/>
<path d="M31.9812 55.9868C31.7656 55.7756 31.8069 55.4855 32.0731 55.3424L35.3276 53.5957C35.5938 53.4526 35.988 53.5091 36.2036 53.7208L37.9002 55.3872C38.1158 55.5989 38.0745 55.889 37.8083 56.0316L34.5533 57.7783C34.2871 57.9214 33.8929 57.8649 33.6773 57.6532L31.9812 55.9868Z" fill="url(#paint5_radial_35_729)"/>
<path d="M36.4165 56.2127C36.6252 56.1007 36.6919 55.909 36.5625 55.7844C36.433 55.6598 36.1634 55.6501 35.9551 55.762C35.7468 55.8739 35.6796 56.0657 35.8062 56.1903C35.9327 56.3149 36.2047 56.3246 36.414 56.2127" fill="white"/>
<path d="M35.7791 55.5867C35.9879 55.4748 36.0546 55.283 35.9281 55.1584C35.8015 55.0338 35.529 55.0241 35.3202 55.136C35.1114 55.248 35.0447 55.4397 35.1713 55.5643C35.2978 55.6889 35.5703 55.6986 35.7791 55.5867Z" fill="white"/>
<path d="M35.1406 54.9594C35.3493 54.8475 35.416 54.6557 35.2895 54.5312C35.1629 54.4066 34.8904 54.3963 34.6816 54.5088C34.4728 54.6212 34.4061 54.8125 34.5332 54.9371C34.6602 55.0616 34.9318 55.0714 35.1406 54.9594Z" fill="white"/>
<path d="M35.2005 56.865C35.4098 56.7526 35.4764 56.5608 35.3494 56.4362C35.2224 56.3116 34.9508 56.3019 34.7415 56.4139C34.5323 56.5258 34.4661 56.718 34.5931 56.8421C34.7201 56.9662 34.9917 56.9769 35.2005 56.865Z" fill="white"/>
<path d="M34.5628 56.2385C34.7716 56.1261 34.8383 55.9344 34.7117 55.8098C34.5852 55.6852 34.3127 55.6754 34.1034 55.7874C33.8941 55.8993 33.8284 56.0916 33.9549 56.2157C34.0815 56.3398 34.354 56.3505 34.5628 56.2385Z" fill="white"/>
<path d="M33.9248 55.6126C34.1336 55.5006 34.2008 55.3089 34.0738 55.1843C33.9467 55.0597 33.6747 55.05 33.4659 55.1619C33.2571 55.2738 33.19 55.4656 33.317 55.5902C33.444 55.7148 33.7161 55.725 33.9248 55.6126Z" fill="white"/>
<path d="M32.7391 59.8719C32.4963 59.6108 32.3198 59.2952 32.2246 58.9516L31.7258 56.7678C31.6581 56.4729 31.7793 56.4053 31.9954 56.617L33.4394 58.0352C33.6824 58.2961 33.8588 58.6118 33.9538 58.9555L34.4512 61.1393C34.5184 61.4342 34.3972 61.5018 34.1816 61.2901L32.7391 59.8719Z" fill="url(#paint6_radial_35_729)"/>
<path d="M33.4229 59.2809C33.362 59.0157 33.164 58.6545 32.98 58.474C32.796 58.2934 32.6963 58.3616 32.7571 58.6268C32.8179 58.892 33.0155 59.2532 33.1995 59.4337C33.3835 59.6143 33.4832 59.5457 33.4229 59.2809Z" fill="white"/>
<path d="M34.4055 58.9574C34.3772 58.8038 34.3967 58.6452 34.4613 58.5029C34.526 58.3607 34.6327 58.2418 34.7671 58.1621L38.0279 56.4135C38.2941 56.2704 38.5671 56.3945 38.6343 56.6889L39.2139 59.2231C39.2422 59.3768 39.2226 59.5354 39.1579 59.6777C39.0931 59.8199 38.9863 59.9388 38.8518 60.0184L35.591 61.7675C35.3248 61.9101 35.0518 61.786 34.9841 61.4916L34.4055 58.9574Z" fill="url(#paint7_radial_35_729)"/>
<path d="M35.36 58.5777C35.4928 58.3626 35.7449 58.2395 35.924 58.3027C36.1031 58.366 36.1401 58.5913 36.0073 58.8065C35.8744 59.0216 35.6223 59.1447 35.4432 59.0814C35.2641 59.0182 35.2271 58.7928 35.36 58.5777Z" fill="white"/>
<path d="M36.4847 58.9761C36.6176 58.761 36.8697 58.6379 37.0488 58.7012C37.2279 58.7644 37.2648 58.9898 37.1325 59.2049C37.0001 59.42 36.747 59.5456 36.5684 59.4799C36.3898 59.4142 36.3523 59.1913 36.4847 58.9761Z" fill="white"/>
<path d="M37.6096 59.3734C37.7424 59.1583 37.995 59.0357 38.1737 59.0985C38.3523 59.1612 38.3902 59.3871 38.2574 59.6022C38.1245 59.8173 37.8724 59.9429 37.6933 59.8772C37.5142 59.8114 37.4772 59.5886 37.6096 59.3734Z" fill="white"/>
</g>
<defs>
<radialGradient id="paint0_radial_35_729" cx="0" cy="0" r="1" gradientUnits="userSpaceOnUse" gradientTransform="translate(42.06 56.3311) scale(6.90997 6.90997)">
<stop offset="0.14" stop-color="#404040"/>
<stop offset="0.24" stop-color="#393939"/>
<stop offset="0.39" stop-color="#262626"/>
<stop offset="0.55" stop-color="#0B0B0B"/>
<stop offset="0.69" stop-color="#050505"/>
<stop offset="0.94"/>
</radialGradient>
<radialGradient id="paint1_radial_35_729" cx="0" cy="0" r="1" gradientUnits="userSpaceOnUse" gradientTransform="translate(44.6871 52.6432) scale(6.48266 6.48266)">
<stop offset="0.14" stop-color="#404040"/>
<stop offset="0.24" stop-color="#393939"/>
<stop offset="0.39" stop-color="#262626"/>
<stop offset="0.55" stop-color="#0B0B0B"/>
<stop offset="0.69" stop-color="#050505"/>
<stop offset="0.94"/>
</radialGradient>
<radialGradient id="paint2_radial_35_729" cx="0" cy="0" r="1" gradientUnits="userSpaceOnUse" gradientTransform="translate(43.584 55.1342) scale(4.27749 4.27749)">
<stop offset="0.14" stop-color="#404040"/>
<stop offset="0.24" stop-color="#393939"/>
<stop offset="0.39" stop-color="#262626"/>
<stop offset="0.55" stop-color="#0B0B0B"/>
<stop offset="0.69" stop-color="#050505"/>
<stop offset="0.94"/>
</radialGradient>
<radialGradient id="paint3_radial_35_729" cx="0" cy="0" r="1" gradientUnits="userSpaceOnUse" gradientTransform="translate(44.6521 55.1103) scale(4.13732)">
<stop offset="0.14" stop-color="#404040"/>
<stop offset="0.24" stop-color="#393939"/>
<stop offset="0.39" stop-color="#262626"/>
<stop offset="0.55" stop-color="#0B0B0B"/>
<stop offset="0.69" stop-color="#050505"/>
<stop offset="0.94"/>
</radialGradient>
<radialGradient id="paint4_radial_35_729" cx="0" cy="0" r="1" gradientUnits="userSpaceOnUse" gradientTransform="translate(34.4787 56.2887) scale(6.55664 6.55664)">
<stop offset="0.14" stop-color="#404040"/>
<stop offset="0.24" stop-color="#393939"/>
<stop offset="0.39" stop-color="#262626"/>
<stop offset="0.55" stop-color="#0B0B0B"/>
<stop offset="0.69" stop-color="#050505"/>
<stop offset="0.94"/>
</radialGradient>
<radialGradient id="paint5_radial_35_729" cx="0" cy="0" r="1" gradientUnits="userSpaceOnUse" gradientTransform="translate(30.9309 52.7289) scale(8.20894)">
<stop offset="0.14" stop-color="#404040"/>
<stop offset="0.24" stop-color="#393939"/>
<stop offset="0.39" stop-color="#262626"/>
<stop offset="0.55" stop-color="#0B0B0B"/>
<stop offset="0.69" stop-color="#050505"/>
<stop offset="0.94"/>
</radialGradient>
<radialGradient id="paint6_radial_35_729" cx="0" cy="0" r="1" gradientUnits="userSpaceOnUse" gradientTransform="translate(29.8958 54.5636) scale(9.29182 9.29181)">
<stop offset="0.14" stop-color="#404040"/>
<stop offset="0.24" stop-color="#393939"/>
<stop offset="0.39" stop-color="#262626"/>
<stop offset="0.55" stop-color="#0B0B0B"/>
<stop offset="0.69" stop-color="#050505"/>
<stop offset="0.94"/>
</radialGradient>
<radialGradient id="paint7_radial_35_729" cx="0" cy="0" r="1" gradientUnits="userSpaceOnUse" gradientTransform="translate(36.4388 56.2373) scale(6.10694 6.10694)">
<stop offset="0.14" stop-color="#404040"/>
<stop offset="0.24" stop-color="#393939"/>
<stop offset="0.39" stop-color="#262626"/>
<stop offset="0.55" stop-color="#0B0B0B"/>
<stop offset="0.69" stop-color="#050505"/>
<stop offset="0.94"/>
</radialGradient>
<clipPath id="clip0_35_729">
<rect width="100" height="100" fill="white"/>
</clipPath>
</defs>
</svg>
