<svg width="100" height="100" viewBox="0 0 100 100" fill="none" xmlns="http://www.w3.org/2000/svg">
<g clip-path="url(#clip0_35_560)">
<path d="M45 18H55V27H45V18Z" fill="#D6D6D6"/>
<path d="M14 66H20V76H14V66Z" fill="#D6D6D6"/>
<path d="M80 66H86V76H80V66Z" fill="#D6D6D6"/>
<path d="M47 66H53V76H47V66Z" fill="#D6D6D6"/>
<path d="M67 40H69V44H67V40Z" fill="#666666"/>
<path d="M50 74C50.5523 74 51 73.5523 51 73C51 72.4477 50.5523 72 50 72C49.4477 72 49 72.4477 49 73C49 73.5523 49.4477 74 50 74Z" fill="#666666"/>
<path d="M83 74C83.5523 74 84 73.5523 84 73C84 72.4477 83.5523 72 83 72C82.4477 72 82 72.4477 82 73C82 73.5523 82.4477 74 83 74Z" fill="#666666"/>
<path d="M32 58H36V60H32V58Z" fill="#666666"/>
<path d="M16 65H13V68H7V72H9V70H13V77H21V70H25V91H9V76H7V93H27V68H21V65H18V60H28V58H16V65ZM19 67V75H15V67H19Z" fill="#666666"/>
<path d="M17 74C17.5523 74 18 73.5523 18 73C18 72.4477 17.5523 72 17 72C16.4477 72 16 72.4477 16 73C16 73.5523 16.4477 74 17 74Z" fill="#666666"/>
<path d="M87 68.0002V65.0002H84V58.0002H51V53.0002H69V48.0002H67V51.0002H33V28.0002H67V36.0002H69V28.0002H73V17.0002H59.46C60.0109 16.3869 60.4294 15.6665 60.6893 14.884C60.9491 14.1016 61.0448 13.274 60.9702 12.4529C60.8957 11.6318 60.6526 10.8349 60.2561 10.1121C59.8595 9.38924 59.3182 8.75596 58.6658 8.25185C58.0134 7.74774 57.2641 7.38363 56.4646 7.18229C55.6651 6.98095 54.8326 6.94671 54.0193 7.08171C53.206 7.21671 52.4292 7.51805 51.7377 7.96688C51.0461 8.41571 50.4545 9.00238 50 9.69023C49.5463 9.00033 48.955 8.41159 48.2631 7.96092C47.5712 7.51026 46.7937 7.20737 45.9793 7.07126C45.1649 6.93516 44.3311 6.96876 43.5303 7.16996C42.7294 7.37116 41.9788 7.73562 41.3254 8.2405C40.6721 8.74539 40.13 9.3798 39.7333 10.104C39.3366 10.8281 39.0938 11.6264 39.02 12.4489C38.9463 13.2713 39.0432 14.1001 39.3048 14.8833C39.5663 15.6664 39.9869 16.3872 40.54 17.0002H27V28.0002H31V53.0002H49V58.0002H40V60.0002H49V65.0002H46V68.0002H40V84.0002H42V70.0002H46V77.0002H54V70.0002H58V91.0002H42V88.0002H40V93.0002H60V68.0002H54V65.0002H51V60.0002H82V65.0002H79V68.0002H73V80.0002H75V70.0002H79V77.0002H87V70.0002H91V91.0002H75V84.0002H73V93.0002H93V68.0002H87ZM71 19.0002V26.0002H56V19.0002H71ZM51 13.0002C51 12.2091 51.2346 11.4357 51.6741 10.7779C52.1136 10.1201 52.7384 9.60746 53.4693 9.30471C54.2002 9.00196 55.0044 8.92274 55.7804 9.07708C56.5563 9.23143 57.269 9.61239 57.8284 10.1718C58.3878 10.7312 58.7688 11.4439 58.9231 12.2199C59.0775 12.9958 58.9983 13.8001 58.6955 14.531C58.3928 15.2619 57.8801 15.8866 57.2223 16.3261C56.5645 16.7656 55.7911 17.0002 55 17.0002H51V13.0002ZM51 19.0002H54V26.0002H46V19.0002H51ZM45 9.00023C46.0609 9.00023 47.0783 9.42165 47.8284 10.1718C48.5786 10.9219 49 11.9394 49 13.0002V17.0002H45C43.9391 17.0002 42.9217 16.5788 42.1716 15.8287C41.4214 15.0785 41 14.0611 41 13.0002C41 11.9394 41.4214 10.9219 42.1716 10.1718C42.9217 9.42165 43.9391 9.00023 45 9.00023ZM29 26.0002V19.0002H44V26.0002H29ZM52 67.0002V75.0002H48V67.0002H52ZM85 75.0002H81V67.0002H85V75.0002Z" fill="#666666"/>
<path d="M55.9762 38.0379C53.1388 35.7652 51.6551 34.6359 50.0178 31.4253C48.3711 34.6312 46.8831 35.755 44.0374 38.018C39.5921 41.555 42.0468 46.1858 45.5163 46.4146C47.6783 46.5566 48.9917 45.0148 49.5974 44.0464C49.4136 45.2911 49.0476 47.4683 48.5904 48.5751H51.3864C50.9336 47.4654 50.5756 45.2911 50.3977 44.0478C50.9993 45.0173 52.3076 46.5642 54.47 46.4295C57.9399 46.2131 60.4105 41.591 55.9762 38.0379Z" fill="#666666"/>
<path d="M54.3321 37.6722C54.2837 37.5731 54.2044 37.4923 54.1062 37.442C54.0081 37.3917 53.8962 37.3745 53.7875 37.393L51.4919 37.877C51.2428 37.9406 51.011 38.0586 50.8128 38.2223L49.4581 39.4413C49.2969 39.5865 49.2369 39.8672 49.3252 40.0655L50.55 42.8226C50.5985 42.9217 50.6777 43.0023 50.7759 43.0526C50.8741 43.1029 50.9859 43.12 51.0946 43.1015L53.3899 42.6174C53.6391 42.5541 53.8711 42.4361 54.0692 42.2721L55.4236 41.0535C55.5849 40.9083 55.6448 40.6272 55.5565 40.429L54.3321 37.6722Z" fill="url(#paint0_radial_35_560)"/>
<path d="M51.5221 38.5109C51.4154 38.2706 51.5385 38.0298 51.7955 37.9753L53.6111 37.5923C53.7431 37.5691 53.8791 37.5896 53.9985 37.6506C54.1178 37.7116 54.2141 37.8098 54.2727 37.9303L55.2989 40.2401C55.4056 40.4801 55.2825 40.7212 55.0254 40.7753L53.2099 41.1584C53.0778 41.1815 52.9419 41.161 52.8225 41.1C52.7032 41.039 52.6069 40.9409 52.5483 40.8203L51.5221 38.5109Z" fill="url(#paint1_radial_35_560)"/>
<path d="M54.0933 38.4532C54.0239 38.2967 53.8558 38.1936 53.7175 38.2227C53.5791 38.2517 53.5239 38.402 53.5936 38.5589C53.6634 38.7158 53.8315 38.8185 53.9695 38.7895C54.1074 38.7604 54.163 38.6097 54.0933 38.4532Z" fill="white"/>
<path d="M52.5973 38.769C52.5276 38.6122 52.3595 38.5091 52.2211 38.5381C52.0828 38.5671 52.0276 38.7197 52.0973 38.8743C52.167 39.029 52.3348 39.1343 52.4731 39.1049C52.6115 39.0755 52.6667 38.9255 52.5973 38.769Z" fill="white"/>
<path d="M54.7249 39.8738C54.6552 39.7173 54.4871 39.6138 54.3491 39.6432C54.2111 39.6726 54.1556 39.8226 54.2249 39.9794C54.2943 40.1363 54.4631 40.239 54.6011 40.21C54.7391 40.1809 54.7947 40.0306 54.7249 39.8738Z" fill="white"/>
<path d="M53.2273 40.1899C53.1576 40.0331 52.9895 39.93 52.8515 39.959C52.7135 39.988 52.6576 40.1384 52.7273 40.2952C52.797 40.4521 52.9651 40.5549 53.1031 40.5258C53.2411 40.4968 53.297 40.3464 53.2273 40.1899Z" fill="white"/>
<path d="M52.369 41.9029C52.5643 41.7271 52.9343 41.5397 53.1918 41.4846L54.7074 41.1646C54.9649 41.1105 55.0153 41.21 54.82 41.3858L54.0574 42.0717C53.8621 42.2475 53.4921 42.4348 53.2346 42.49L51.719 42.8099C51.4619 42.864 51.4111 42.7645 51.6064 42.5888L52.369 41.9029Z" fill="url(#paint2_radial_35_560)"/>
<path d="M53.4203 41.943C53.4929 41.878 53.4588 41.845 53.3444 41.8704C53.2211 41.8985 53.1056 41.9537 53.0063 42.032C52.9337 42.097 52.9682 42.13 53.0826 42.1046C53.2057 42.0763 53.321 42.0211 53.4203 41.943Z" fill="white"/>
<path d="M54.3675 41.5172C54.4401 41.4522 54.406 41.4192 54.2916 41.4446C54.1684 41.4728 54.0531 41.528 53.9539 41.6062C53.8813 41.6712 53.9176 41.7042 54.0298 41.6788C54.1529 41.6504 54.2681 41.5952 54.3675 41.5172Z" fill="white"/>
<path d="M53.1294 41.7791C53.202 41.7141 53.1679 41.6807 53.0535 41.7065C52.9303 41.7347 52.8149 41.7898 52.7154 41.8677C52.6428 41.9327 52.6769 41.9661 52.7913 41.9403C52.9145 41.9123 53.03 41.8572 53.1294 41.7791Z" fill="white"/>
<path d="M53.7118 42.1083C53.7845 42.0429 53.7503 42.0099 53.636 42.0356C53.5128 42.0638 53.3973 42.1188 53.2979 42.1969C53.2253 42.2622 53.2616 42.2953 53.3738 42.2695C53.497 42.2413 53.6124 42.1862 53.7118 42.1083Z" fill="white"/>
<path d="M52.4725 42.3695C52.5451 42.3041 52.511 42.2711 52.3966 42.2969C52.2735 42.3251 52.1582 42.3803 52.0589 42.4584C51.9863 42.5234 52.0204 42.5569 52.1348 42.5311C52.2579 42.5029 52.3732 42.4479 52.4725 42.3698" fill="white"/>
<path d="M49.549 40.183C49.4422 39.943 49.5127 39.602 49.7098 39.4266L50.6939 38.5414C50.8892 38.3656 51.1365 38.4183 51.2429 38.6587L52.2654 40.9597C52.3722 41.1997 52.3017 41.5407 52.1046 41.7161L51.1205 42.6013C50.9252 42.7771 50.6779 42.7244 50.5715 42.484L49.549 40.183Z" fill="url(#paint3_radial_35_560)"/>
<path d="M49.8842 40.0948C49.8711 40.3079 49.9749 40.5334 50.1166 40.5995C50.2582 40.6656 50.3831 40.5465 50.3965 40.3334C50.41 40.1202 50.3054 39.8943 50.1641 39.8286C50.0229 39.7629 49.8972 39.882 49.8842 40.0948Z" fill="white"/>
<path d="M51.4174 40.8091C51.4043 41.0223 51.5081 41.2478 51.6498 41.3139C51.7914 41.38 51.9166 41.2609 51.9297 41.0477C51.9428 40.8346 51.8389 40.6087 51.6973 40.543C51.5557 40.4773 51.4304 40.5964 51.4174 40.8091Z" fill="white"/>
<path d="M49.9954 40.2693C49.9249 40.0127 49.7933 39.777 49.612 39.5823L48.1007 38.0986C47.9398 37.9407 47.6457 37.8986 47.4471 38.0053L44.7157 39.4708C44.6155 39.5303 44.5359 39.619 44.4876 39.7251C44.4394 39.8312 44.4248 39.9496 44.446 40.0642L44.9543 42.2864C45.025 42.5429 45.1567 42.7785 45.3381 42.9731L46.849 44.4567C47.0099 44.6147 47.304 44.6568 47.5026 44.5501L50.234 43.0845C50.3343 43.0252 50.4141 42.9365 50.4623 42.8304C50.5106 42.7242 50.525 42.6058 50.5038 42.4912L49.9954 40.2693Z" fill="url(#paint4_radial_35_560)"/>
<path d="M44.9207 39.9905C44.7598 39.8329 44.7907 39.6165 44.9893 39.5097L47.4175 38.2065C47.6161 38.0997 47.9102 38.1419 48.0711 38.2998L49.3369 39.5431C49.4977 39.7011 49.4669 39.9175 49.2682 40.0239L46.8397 41.3271C46.6411 41.4338 46.347 41.3917 46.1861 41.2338L44.9207 39.9905Z" fill="url(#paint5_radial_35_560)"/>
<path d="M48.2299 40.159C48.3856 40.0755 48.4354 39.9324 48.3388 39.8395C48.2422 39.7465 48.0411 39.7393 47.8856 39.8228C47.7302 39.9063 47.6801 40.0494 47.7745 40.1423C47.8689 40.2353 48.0719 40.2425 48.2281 40.159" fill="white"/>
<path d="M47.7543 39.6922C47.91 39.6087 47.9598 39.4656 47.8654 39.3727C47.771 39.2797 47.5676 39.2725 47.4118 39.356C47.2561 39.4395 47.2063 39.5826 47.3007 39.6755C47.3951 39.7685 47.5985 39.7757 47.7543 39.6922Z" fill="white"/>
<path d="M47.2778 39.2241C47.4336 39.1406 47.4834 38.9975 47.389 38.9046C47.2945 38.8116 47.0912 38.804 46.9354 38.8879C46.7797 38.9717 46.7299 39.1144 46.8247 39.2074C46.9195 39.3004 47.1221 39.3076 47.2778 39.2241Z" fill="white"/>
<path d="M47.3226 40.6457C47.4787 40.5618 47.5285 40.4188 47.4337 40.3258C47.3389 40.2329 47.1363 40.2256 46.9802 40.3091C46.8241 40.3926 46.7747 40.5361 46.8694 40.6286C46.9642 40.7212 47.1668 40.7292 47.3226 40.6457Z" fill="white"/>
<path d="M46.8467 40.1784C47.0025 40.0945 47.0523 39.9515 46.9578 39.8585C46.8634 39.7656 46.6601 39.7583 46.504 39.8418C46.3478 39.9253 46.2988 40.0688 46.3932 40.1614C46.4876 40.254 46.691 40.2619 46.8467 40.1784Z" fill="white"/>
<path d="M46.3709 39.7113C46.5267 39.6278 46.5768 39.4847 46.482 39.3917C46.3872 39.2988 46.1842 39.2915 46.0285 39.375C45.8727 39.4585 45.8226 39.6016 45.9174 39.6946C46.0121 39.7875 46.2151 39.7951 46.3709 39.7113Z" fill="white"/>
<path d="M45.4861 42.8892C45.3049 42.6944 45.1733 42.4589 45.1022 42.2025L44.7301 40.5732C44.6796 40.3532 44.77 40.3027 44.9312 40.4607L46.0086 41.5188C46.1899 41.7135 46.3215 41.949 46.3924 42.2054L46.7635 43.8347C46.8136 44.0548 46.7232 44.1052 46.5623 43.9473L45.4861 42.8892Z" fill="url(#paint6_radial_35_560)"/>
<path d="M45.9964 42.4483C45.951 42.2504 45.8032 41.981 45.6659 41.8463C45.5287 41.7116 45.4542 41.7624 45.4996 41.9603C45.545 42.1582 45.6925 42.4276 45.8297 42.5624C45.967 42.6971 46.0414 42.6459 45.9964 42.4483Z" fill="white"/>
<path d="M46.7294 42.207C46.7083 42.0924 46.7228 41.9741 46.7711 41.868C46.8193 41.7619 46.8989 41.6731 46.9992 41.6137L49.432 40.309C49.6307 40.2023 49.8344 40.2949 49.8845 40.5145L50.317 42.4053C50.338 42.5199 50.3234 42.6383 50.2751 42.7444C50.2268 42.8505 50.1471 42.9392 50.0468 42.9986L47.6139 44.3036C47.4153 44.41 47.2116 44.3174 47.1611 44.0977L46.7294 42.207Z" fill="url(#paint7_radial_35_560)"/>
<path d="M47.4415 41.9236C47.5407 41.7631 47.7288 41.6712 47.8624 41.7184C47.996 41.7656 48.0236 41.9338 47.9245 42.0943C47.8253 42.2548 47.6373 42.3466 47.5036 42.2994C47.37 42.2522 47.3424 42.0841 47.4415 41.9236Z" fill="white"/>
<path d="M48.2807 42.221C48.3799 42.0605 48.568 41.9686 48.7016 42.0158C48.8352 42.063 48.8628 42.2311 48.764 42.3916C48.6653 42.5521 48.4765 42.6458 48.3432 42.5968C48.2099 42.5478 48.182 42.3815 48.2807 42.221Z" fill="white"/>
<path d="M49.12 42.5172C49.2191 42.3567 49.4075 42.2652 49.5408 42.3121C49.6741 42.3589 49.7024 42.5274 49.6033 42.6879C49.5041 42.8484 49.316 42.9421 49.1824 42.893C49.0488 42.844 49.0212 42.6777 49.12 42.5172Z" fill="white"/>
</g>
<defs>
<radialGradient id="paint0_radial_35_560" cx="0" cy="0" r="1" gradientUnits="userSpaceOnUse" gradientTransform="translate(52.4403 40.2474) scale(5.15547 5.15547)">
<stop offset="0.14" stop-color="#404040"/>
<stop offset="0.24" stop-color="#393939"/>
<stop offset="0.39" stop-color="#262626"/>
<stop offset="0.55" stop-color="#0B0B0B"/>
<stop offset="0.69" stop-color="#050505"/>
<stop offset="0.94"/>
</radialGradient>
<radialGradient id="paint1_radial_35_560" cx="0" cy="0" r="1" gradientUnits="userSpaceOnUse" gradientTransform="translate(54.4005 37.496) scale(4.83666 4.83666)">
<stop offset="0.14" stop-color="#404040"/>
<stop offset="0.24" stop-color="#393939"/>
<stop offset="0.39" stop-color="#262626"/>
<stop offset="0.55" stop-color="#0B0B0B"/>
<stop offset="0.69" stop-color="#050505"/>
<stop offset="0.94"/>
</radialGradient>
<radialGradient id="paint2_radial_35_560" cx="0" cy="0" r="1" gradientUnits="userSpaceOnUse" gradientTransform="translate(53.5774 39.3545) scale(3.1914 3.1914)">
<stop offset="0.14" stop-color="#404040"/>
<stop offset="0.24" stop-color="#393939"/>
<stop offset="0.39" stop-color="#262626"/>
<stop offset="0.55" stop-color="#0B0B0B"/>
<stop offset="0.69" stop-color="#050505"/>
<stop offset="0.94"/>
</radialGradient>
<radialGradient id="paint3_radial_35_560" cx="0" cy="0" r="1" gradientUnits="userSpaceOnUse" gradientTransform="translate(54.3744 39.3366) scale(3.08682)">
<stop offset="0.14" stop-color="#404040"/>
<stop offset="0.24" stop-color="#393939"/>
<stop offset="0.39" stop-color="#262626"/>
<stop offset="0.55" stop-color="#0B0B0B"/>
<stop offset="0.69" stop-color="#050505"/>
<stop offset="0.94"/>
</radialGradient>
<radialGradient id="paint4_radial_35_560" cx="0" cy="0" r="1" gradientUnits="userSpaceOnUse" gradientTransform="translate(46.784 40.216) scale(4.89185)">
<stop offset="0.14" stop-color="#404040"/>
<stop offset="0.24" stop-color="#393939"/>
<stop offset="0.39" stop-color="#262626"/>
<stop offset="0.55" stop-color="#0B0B0B"/>
<stop offset="0.69" stop-color="#050505"/>
<stop offset="0.94"/>
</radialGradient>
<radialGradient id="paint5_radial_35_560" cx="0" cy="0" r="1" gradientUnits="userSpaceOnUse" gradientTransform="translate(44.1371 37.5598) scale(6.12462)">
<stop offset="0.14" stop-color="#404040"/>
<stop offset="0.24" stop-color="#393939"/>
<stop offset="0.39" stop-color="#262626"/>
<stop offset="0.55" stop-color="#0B0B0B"/>
<stop offset="0.69" stop-color="#050505"/>
<stop offset="0.94"/>
</radialGradient>
<radialGradient id="paint6_radial_35_560" cx="0" cy="0" r="1" gradientUnits="userSpaceOnUse" gradientTransform="translate(43.3648 38.9287) scale(6.93255 6.93254)">
<stop offset="0.14" stop-color="#404040"/>
<stop offset="0.24" stop-color="#393939"/>
<stop offset="0.39" stop-color="#262626"/>
<stop offset="0.55" stop-color="#0B0B0B"/>
<stop offset="0.69" stop-color="#050505"/>
<stop offset="0.94"/>
</radialGradient>
<radialGradient id="paint7_radial_35_560" cx="0" cy="0" r="1" gradientUnits="userSpaceOnUse" gradientTransform="translate(48.2465 40.1776) scale(4.55634 4.55634)">
<stop offset="0.14" stop-color="#404040"/>
<stop offset="0.24" stop-color="#393939"/>
<stop offset="0.39" stop-color="#262626"/>
<stop offset="0.55" stop-color="#0B0B0B"/>
<stop offset="0.69" stop-color="#050505"/>
<stop offset="0.94"/>
</radialGradient>
<clipPath id="clip0_35_560">
<rect width="100" height="100" fill="white"/>
</clipPath>
</defs>
</svg>
