<svg width="300" height="100" viewBox="0 0 300 100" fill="none" xmlns="http://www.w3.org/2000/svg">
<path d="M68.0558 40.9348C54.9476 30.4352 48.0933 25.2181 40.5294 10.3855C32.9219 25.1963 26.0474 30.3882 12.9007 40.8425C-7.63548 57.1832 3.70454 78.5765 19.7332 79.6334C29.7212 80.2893 35.7887 73.1666 38.5868 68.6926C37.738 74.4431 36.0471 84.5015 33.9351 89.6146H46.852C44.7601 84.4881 43.1061 74.4432 42.2841 68.6993C45.0637 73.1783 51.1078 80.3245 61.0974 79.7022C77.1278 78.7024 88.5416 57.3493 68.0558 40.9348Z" fill="url(#paint0_linear_15_1334)"/>
<path d="M60.4614 39.2439C60.2375 38.786 59.8714 38.4129 59.4178 38.1803C58.9642 37.9478 58.4476 37.8684 57.9451 37.9539L47.3398 40.19C46.1893 40.484 45.1181 41.0287 44.2029 41.7853L37.9441 47.4167C37.1993 48.0877 36.9225 49.3845 37.3301 50.3004L42.9884 63.0378C43.2125 63.4953 43.5787 63.8681 44.0323 64.1003C44.4858 64.3325 45.0024 64.4117 45.5046 64.3261L56.1082 62.09C57.2597 61.7972 58.3317 61.2523 59.2468 60.4946L65.504 54.8649C66.2488 54.1939 66.5256 52.8955 66.118 51.9796L60.4614 39.2439Z" fill="url(#paint1_radial_15_1334)"/>
<path d="M47.4791 43.116C46.9859 42.0054 47.5545 40.8933 48.7422 40.6416L57.1298 38.8718C57.7397 38.765 58.3679 38.8597 58.9193 39.1414C59.4707 39.4232 59.9154 39.8768 60.1863 40.4336L64.9269 51.1043C65.4201 52.2131 64.8514 53.327 63.6637 53.577L55.2762 55.3467C54.6662 55.4535 54.0381 55.3589 53.4867 55.0772C52.9353 54.7954 52.4906 54.3418 52.2197 53.785L47.4791 43.116Z" fill="url(#paint2_radial_15_1334)"/>
<path d="M59.3575 42.8505C59.0371 42.1275 58.2604 41.6511 57.6213 41.7853C56.9822 41.9195 56.7272 42.614 57.0493 43.3387C57.3713 44.0634 58.148 44.5381 58.7855 44.4039C59.4229 44.2697 59.6796 43.5736 59.3575 42.8505Z" fill="url(#paint3_linear_15_1334)"/>
<path d="M52.4464 44.3097C52.1243 43.5851 51.3476 43.1086 50.7085 43.2428C50.0693 43.377 49.8143 44.0816 50.1364 44.7962C50.4585 45.5108 51.2335 45.9973 51.8726 45.8614C52.5118 45.7256 52.7668 45.0328 52.4464 44.3097Z" fill="url(#paint4_linear_15_1334)"/>
<path d="M62.2748 49.4147C61.9527 48.6917 61.176 48.2136 60.5386 48.3495C59.9011 48.4854 59.6445 49.1782 59.9649 49.9029C60.2853 50.6276 61.0653 51.1023 61.7028 50.9681C62.3402 50.8339 62.5969 50.1394 62.2748 49.4147Z" fill="url(#paint5_linear_15_1334)"/>
<path d="M55.3556 50.8744C55.0335 50.1498 54.2568 49.6733 53.6194 49.8075C52.9819 49.9417 52.7236 50.6362 53.0457 51.3609C53.3678 52.0856 54.1444 52.5603 54.7819 52.4261C55.4194 52.2919 55.6777 51.5974 55.3556 50.8744Z" fill="url(#paint6_linear_15_1334)"/>
<path d="M51.3909 58.7837C52.2934 57.9718 54.0028 57.1062 55.1921 56.8512L62.1941 55.3733C63.3834 55.1234 63.6166 55.583 62.7141 56.3949L59.1913 59.5637C58.2888 60.3757 56.5794 61.2413 55.3901 61.4962L48.3881 62.9741C47.2004 63.2241 46.9656 62.7644 47.8681 61.9525L51.3909 58.7837Z" fill="url(#paint7_radial_15_1334)"/>
<path d="M56.2474 58.9713C56.5829 58.6711 56.4252 58.5184 55.8968 58.6358C55.3273 58.7657 54.7938 59.0207 54.335 59.3823C53.9995 59.6826 54.1589 59.8353 54.6873 59.7178C55.256 59.5869 55.7887 59.332 56.2474 58.9713Z" fill="url(#paint8_linear_15_1334)"/>
<path d="M60.6241 57.0036C60.9596 56.7033 60.8019 56.5506 60.2735 56.6681C59.7046 56.7983 59.1718 57.0533 58.7134 57.4146C58.3779 57.7148 58.5457 57.8675 59.064 57.7501C59.6326 57.6188 60.1652 57.3639 60.6241 57.0036Z" fill="url(#paint9_linear_15_1334)"/>
<path d="M54.9022 58.2132C55.2377 57.913 55.08 57.7586 54.5516 57.8777C53.9825 58.0081 53.4493 58.2625 52.9898 58.6226C52.6543 58.9228 52.812 59.0772 53.3404 58.9581C53.9097 58.8284 54.4431 58.574 54.9022 58.2132Z" fill="url(#paint10_linear_15_1334)"/>
<path d="M57.5926 59.733C57.9281 59.431 57.7704 59.2784 57.242 59.3975C56.6728 59.5275 56.1395 59.7819 55.6802 60.1423C55.3447 60.4442 55.5125 60.5969 56.0308 60.4778C56.5999 60.3474 57.1331 60.0931 57.5926 59.733Z" fill="url(#paint11_linear_15_1334)"/>
<path d="M51.869 60.941C52.2045 60.639 52.0468 60.4864 51.5184 60.6055C50.9496 60.7361 50.4168 60.991 49.9583 61.352C49.6228 61.6523 49.7805 61.8066 50.3089 61.6875C50.8776 61.5575 51.4104 61.3031 51.869 60.9427" fill="url(#paint12_linear_15_1334)"/>
<path d="M38.362 50.8408C37.8688 49.7319 38.1942 48.1567 39.1051 47.3465L43.6512 43.2567C44.5537 42.4448 45.6961 42.688 46.1876 43.7985L50.9115 54.429C51.4047 55.5378 51.0792 57.113 50.1683 57.9232L45.6223 62.013C44.7198 62.8249 43.5774 62.5817 43.0859 61.4712L38.362 50.8408Z" fill="url(#paint13_radial_15_1334)"/>
<path d="M39.9119 50.4347C39.8515 51.4194 40.3313 52.4612 40.9855 52.7665C41.6397 53.0718 42.2168 52.5216 42.2788 51.5369C42.3409 50.5521 41.8578 49.5087 41.2052 49.2051C40.5527 48.9015 39.9723 49.4517 39.9119 50.4347Z" fill="url(#paint14_linear_15_1334)"/>
<path d="M46.9946 53.7328C46.9342 54.7175 47.414 55.7593 48.0682 56.0646C48.7225 56.3699 49.3012 55.8196 49.3616 54.8349C49.422 53.8502 48.9422 52.8068 48.288 52.5032C47.6338 52.1996 47.055 52.7498 46.9946 53.7328Z" fill="url(#paint15_linear_15_1334)"/>
<path d="M40.4252 51.2384C40.0995 50.053 39.4917 48.9641 38.6537 48.0645L31.6719 41.2102C30.9288 40.4805 29.57 40.2859 28.6524 40.7791L16.0341 47.5495C15.5709 47.8241 15.2031 48.2341 14.9802 48.7242C14.7573 49.2144 14.6901 49.7611 14.7877 50.2906L17.1362 60.557C17.463 61.7418 18.0713 62.8301 18.9094 63.7292L25.8895 70.5835C26.6327 71.3132 27.9914 71.5078 28.909 71.0147L41.5273 64.2442C41.991 63.9702 42.3593 63.5603 42.5822 63.07C42.8052 62.5797 42.872 62.0327 42.7737 61.5031L40.4252 51.2384Z" fill="url(#paint16_radial_15_1334)"/>
<path d="M16.98 49.9521C16.2369 49.2241 16.3795 48.2243 17.2971 47.7311L28.5147 41.7105C29.4323 41.2173 30.791 41.4119 31.5342 42.1416L37.382 47.8854C38.1252 48.6151 37.9826 49.6149 37.065 50.1064L25.8457 56.1271C24.9281 56.6202 23.5693 56.4257 22.8262 55.6959L16.98 49.9521Z" fill="url(#paint17_radial_15_1334)"/>
<path d="M32.2696 50.7301C32.9893 50.3443 33.2191 49.6834 32.7729 49.2539C32.3267 48.8245 31.3973 48.7909 30.6793 49.1768C29.9614 49.5626 29.7299 50.2235 30.166 50.653C30.6022 51.0824 31.5399 51.116 32.2612 50.7301" fill="url(#paint18_linear_15_1334)"/>
<path d="M30.07 48.5712C30.7896 48.1854 31.0195 47.5244 30.5833 47.095C30.1471 46.6655 29.2077 46.632 28.4881 47.0178C27.7684 47.4037 27.5386 48.0646 27.9748 48.494C28.4109 48.9235 29.3503 48.957 30.07 48.5712Z" fill="url(#paint19_linear_15_1334)"/>
<path d="M27.8708 46.4122C28.5904 46.0264 28.8202 45.3654 28.3841 44.936C27.9479 44.5065 27.0085 44.4713 26.2889 44.8588C25.5692 45.2463 25.3394 45.9056 25.7772 46.335C26.2151 46.7645 27.1511 46.798 27.8708 46.4122Z" fill="url(#paint20_linear_15_1334)"/>
<path d="M28.077 52.9796C28.7983 52.5921 29.0281 51.9312 28.5903 51.5017C28.1525 51.0723 27.2164 51.0387 26.4951 51.4246C25.7738 51.8104 25.5456 52.473 25.9834 52.9008C26.4213 53.3285 27.3573 53.3654 28.077 52.9796Z" fill="url(#paint21_linear_15_1334)"/>
<path d="M25.8794 50.8207C26.5991 50.4332 26.8289 49.7722 26.3927 49.3428C25.9566 48.9133 25.0172 48.8798 24.2958 49.2656C23.5745 49.6515 23.3481 50.3141 23.7842 50.7418C24.2204 51.1696 25.1598 51.2065 25.8794 50.8207Z" fill="url(#paint22_linear_15_1334)"/>
<path d="M23.6803 48.6598C24.4 48.274 24.6315 47.6131 24.1937 47.1836C23.7558 46.7542 22.8181 46.7206 22.0984 47.1064C21.3788 47.4923 21.1473 48.1532 21.5851 48.5827C22.023 49.0121 22.9607 49.0473 23.6803 48.6598Z" fill="url(#paint23_linear_15_1334)"/>
<path d="M19.5934 63.3435C18.7565 62.4436 18.1484 61.3556 17.8202 60.1713L16.1008 52.6443C15.8676 51.6278 16.2853 51.3946 17.0301 52.1243L22.0073 57.0126C22.8448 57.9121 23.453 59.0002 23.7805 60.1848L25.4949 67.7118C25.7264 68.7284 25.3087 68.9615 24.5655 68.2318L19.5934 63.3435Z" fill="url(#paint24_radial_15_1334)"/>
<path d="M21.9489 61.305C21.7392 60.3908 21.0564 59.1461 20.4223 58.5237C19.7882 57.9013 19.4443 58.1362 19.654 59.0504C19.8637 59.9647 20.5448 61.2094 21.1789 61.8318C21.813 62.4541 22.1569 62.2176 21.9489 61.305Z" fill="url(#paint25_linear_15_1334)"/>
<path d="M25.3358 60.1934C25.2382 59.6638 25.3054 59.1171 25.5283 58.627C25.7512 58.1368 26.119 57.7268 26.5822 57.4523L37.8216 51.425C38.7392 50.9318 39.6803 51.3596 39.9117 52.3745L41.9097 61.1093C42.0071 61.639 41.9396 62.1858 41.7165 62.676C41.4933 63.1661 41.1251 63.576 40.6616 63.8503L29.4222 69.8793C28.5046 70.3709 27.5635 69.9431 27.3304 68.9282L25.3358 60.1934Z" fill="url(#paint26_radial_15_1334)"/>
<path d="M28.6272 58.8844C29.0852 58.143 29.9541 57.7185 30.5715 57.9366C31.1888 58.1547 31.3163 58.9314 30.8583 59.6728C30.4004 60.4143 29.5314 60.8387 28.9141 60.6206C28.2968 60.4026 28.1693 59.6259 28.6272 58.8844Z" fill="url(#paint27_linear_15_1334)"/>
<path d="M32.5038 60.2567C32.9618 59.5153 33.8307 59.0909 34.4481 59.3089C35.0654 59.527 35.1929 60.3037 34.7366 61.0452C34.2803 61.7866 33.408 62.2194 32.7924 61.993C32.1767 61.7665 32.0476 60.9982 32.5038 60.2567Z" fill="url(#paint28_linear_15_1334)"/>
<path d="M36.3805 61.6258C36.8385 60.8843 37.7091 60.4616 38.3248 60.678C38.9404 60.8944 39.0713 61.6727 38.6133 62.4142C38.1554 63.1557 37.2864 63.5884 36.6691 63.362C36.0517 63.1355 35.9243 62.3672 36.3805 61.6258Z" fill="url(#paint29_linear_15_1334)"/>
<path d="M99.7219 47.9807H92.3215V54.8434H100.567V56.9036H89.8638V37.874H100.142V39.9342H92.3215V45.9476H99.7219V47.9807Z" fill="#F0DF8F"/>
<path d="M106.494 36.8574H108.979V56.9035H106.494V36.8574Z" fill="#F0DF8F"/>
<path d="M116.886 43.2368L119.881 51.3149C120.193 52.2185 120.532 53.2893 120.758 54.107H120.812C121.065 53.2893 121.35 52.2456 121.688 51.2562L124.399 43.2368H127.024L123.297 52.9775C121.517 57.6671 120.306 60.0661 118.612 61.5345C117.752 62.3266 116.701 62.881 115.562 63.1429L114.939 61.0556C115.734 60.7941 116.472 60.3814 117.112 59.8402C118.014 59.0935 118.73 58.1468 119.204 57.0753C119.304 56.8896 119.371 56.6878 119.402 56.4789C119.379 56.256 119.321 56.038 119.231 55.8328L114.175 43.2368H116.886Z" fill="#F0DF8F"/>
<path d="M131.601 54.3643C132.585 54.9784 133.716 55.3185 134.876 55.3492C136.683 55.3492 137.528 54.4456 137.528 53.3161C137.528 52.1867 136.823 51.4818 134.989 50.8041C132.531 49.9277 131.375 48.5723 131.375 46.9368C131.375 44.7321 133.15 42.9249 136.087 42.9249C137.262 42.9136 138.42 43.2062 139.448 43.7742L138.829 45.5814C137.988 45.064 137.02 44.7903 136.033 44.7908C134.564 44.7908 133.747 45.6356 133.747 46.6522C133.747 47.7817 134.564 48.2922 136.344 48.9699C138.716 49.8735 139.927 51.0572 139.927 53.0902C139.927 55.4938 138.066 57.188 134.817 57.188C133.478 57.211 132.156 56.889 130.977 56.2528L131.601 54.3643Z" fill="#F0DF8F"/>
<path d="M148.71 39.3966C148.689 39.7902 148.517 40.1606 148.231 40.4317C147.945 40.7027 147.566 40.8539 147.172 40.8539C146.778 40.8539 146.398 40.7027 146.112 40.4317C145.826 40.1606 145.655 39.7902 145.633 39.3966C145.628 39.191 145.664 38.9864 145.74 38.7953C145.816 38.6042 145.931 38.4306 146.076 38.2852C146.222 38.1397 146.395 38.0255 146.586 37.9494C146.777 37.8732 146.982 37.8369 147.188 37.8425C147.392 37.8352 147.596 37.8707 147.786 37.9467C147.976 38.0227 148.148 38.1374 148.292 38.2837C148.435 38.4299 148.546 38.6044 148.618 38.796C148.69 38.9877 148.722 39.1922 148.71 39.3966ZM145.945 56.9036V43.2369H148.43V56.9036H145.945Z" fill="#F0DF8F"/>
<path d="M166.809 53.1763C166.809 54.5904 166.841 55.8328 166.922 56.9036H164.722L164.582 54.6718H164.523C164.063 55.458 163.402 56.1078 162.608 56.5547C161.814 57.0016 160.916 57.2297 160.005 57.2154C157.859 57.2154 155.288 56.0271 155.288 51.2291V43.2368H157.773V50.8044C157.773 53.4022 158.564 55.1551 160.823 55.1551C161.285 55.1558 161.744 55.0646 162.171 54.8868C162.598 54.7091 162.986 54.4484 163.311 54.1198C163.637 53.7912 163.894 53.4012 164.068 52.9724C164.242 52.5437 164.329 52.0848 164.324 51.6221V43.2368H166.809V53.1763Z" fill="#F0DF8F"/>
<path d="M173.757 46.9373C173.757 45.5232 173.73 44.3665 173.645 43.237H175.818L175.931 45.4418H176.016C176.426 44.6637 177.045 44.0156 177.803 43.5709C178.562 43.1262 179.43 42.9026 180.308 42.9253C181.16 42.9165 181.992 43.1769 182.687 43.6694C183.381 44.1619 183.903 44.8613 184.176 45.6677H184.235C184.611 44.9735 185.13 44.3668 185.757 43.8877C186.621 43.2225 187.69 42.8818 188.78 42.9253C190.587 42.9253 193.27 44.1136 193.27 48.8574V56.9038H190.84V49.1691C190.84 46.5397 189.882 44.9584 187.876 44.9584C187.214 44.9869 186.576 45.2191 186.05 45.6234C185.525 46.0277 185.137 46.5844 184.939 47.2174C184.809 47.6188 184.742 48.0379 184.741 48.4598V56.9038H182.314V48.7173C182.314 46.5397 181.352 44.9584 179.459 44.9584C177.909 44.9584 176.78 46.2008 176.382 47.4433C176.244 47.8333 176.177 48.2448 176.184 48.6586V56.9038H173.757V46.9373Z" fill="#F0DF8F"/>
<path d="M209.025 38.1272C210.581 37.8498 212.16 37.7167 213.741 37.7296C216.366 37.7296 218.061 38.213 219.244 39.2838C219.737 39.7447 220.126 40.3056 220.385 40.9289C220.643 41.5522 220.766 42.2236 220.744 42.8981C220.758 43.9881 220.415 45.0527 219.767 45.9296C219.119 46.8064 218.203 47.4475 217.157 47.7549V47.8408C218.625 48.3468 219.502 49.7022 219.954 51.681C220.572 54.3331 221.024 56.1718 221.422 56.9037H218.878C218.567 56.3661 218.146 54.7306 217.609 52.3587C217.044 49.7338 216.027 48.7443 213.796 48.6585H211.482V56.9037H209.025V38.1272ZM211.482 46.7971H213.994C216.619 46.7971 218.286 45.3559 218.286 43.1827C218.286 40.725 216.506 39.6497 213.909 39.6226C213.094 39.5996 212.279 39.6754 211.482 39.8485V46.7971Z" fill="#F0DF8F"/>
<path d="M239.435 49.9595C239.435 55.0105 235.933 57.2153 232.631 57.2153C228.93 57.2153 226.08 54.5045 226.08 50.1854C226.08 45.6087 229.07 42.925 232.856 42.925C236.783 42.925 239.435 45.7804 239.435 49.9595ZM228.592 50.0995C228.592 53.0904 230.313 55.3494 232.744 55.3494C235.174 55.3494 236.896 53.122 236.896 50.0408C236.896 47.7276 235.734 44.791 232.798 44.791C229.861 44.791 228.592 47.5017 228.592 50.0995Z" fill="#F0DF8F"/>
<path d="M246.099 43.2368L249.094 51.3149C249.401 52.2185 249.74 53.2893 249.966 54.107H250.025C250.278 53.2893 250.562 52.2456 250.901 51.2562L253.612 43.2368H256.237L252.51 52.9775C250.73 57.6671 249.514 60.0661 247.82 61.5345C246.962 62.3283 245.91 62.883 244.77 63.1429L244.151 61.0556C244.947 60.793 245.685 60.3805 246.325 59.8402C247.227 59.0935 247.943 58.1468 248.416 57.0753C248.516 56.8896 248.582 56.6877 248.611 56.4789C248.589 56.2561 248.533 56.038 248.443 55.8328L243.388 43.2368H246.099Z" fill="#F0DF8F"/>
<path d="M268.775 56.9037L268.576 55.1824H268.49C268.005 55.8289 267.373 56.3505 266.646 56.704C265.919 57.0576 265.119 57.2329 264.311 57.2155C261.546 57.2155 260.132 55.2682 260.132 53.2894C260.132 49.9867 263.069 48.1796 268.35 48.2067V47.9266C268.35 46.7971 268.038 44.764 265.246 44.764C263.988 44.7658 262.755 45.1178 261.686 45.7805L261.121 44.1405C262.476 43.3262 264.031 42.9054 265.612 42.9252C269.791 42.9252 270.808 45.7806 270.808 48.5184V53.6282C270.788 54.7245 270.864 55.8204 271.034 56.9037H268.775ZM268.409 49.928C265.698 49.8738 262.617 50.3527 262.617 53.0092C262.591 53.3249 262.634 53.6423 262.743 53.9397C262.851 54.2372 263.022 54.5078 263.245 54.733C263.468 54.9582 263.736 55.1326 264.033 55.2445C264.329 55.3564 264.646 55.403 264.962 55.3812C265.684 55.401 266.394 55.1895 266.988 54.7775C267.583 54.3654 268.03 53.7745 268.264 53.0906C268.354 52.8364 268.403 52.5695 268.409 52.3V49.928Z" fill="#F0DF8F"/>
<path d="M277.639 36.8574H280.124V56.9035H277.639V36.8574Z" fill="#F0DF8F"/>
<path d="M288.514 50.5242C288.568 53.881 290.714 55.268 293.199 55.268C294.497 55.3088 295.789 55.0668 296.985 54.5587L297.405 56.3388C295.967 56.9404 294.418 57.2299 292.86 57.1882C288.654 57.1882 286.142 54.4187 286.142 50.2983C286.142 46.1779 288.568 42.925 292.548 42.925C297.012 42.925 298.195 46.8511 298.195 49.3631C298.191 49.7514 298.164 50.1391 298.114 50.5242H288.514ZM295.796 48.7442C295.824 47.1629 295.146 44.7051 292.354 44.7051C289.837 44.7051 288.739 47.0228 288.541 48.7442H295.796Z" fill="#F0DF8F"/>
<defs>
<linearGradient id="paint0_linear_15_1334" x1="1.80391" y1="50.0051" x2="79.0888" y2="50.0051" gradientUnits="userSpaceOnUse">
<stop stop-color="#A2682A"/>
<stop offset="0.08" stop-color="#BE8C3C"/>
<stop offset="0.18" stop-color="#BE8C3C"/>
<stop offset="0.27" stop-color="#D3B15F"/>
<stop offset="0.34" stop-color="#FAF0A0"/>
<stop offset="0.41" stop-color="#FFFFC2"/>
<stop offset="0.48" stop-color="#FAF0A0"/>
<stop offset="0.59" stop-color="#D3B15F"/>
<stop offset="0.67" stop-color="#BE8C3C"/>
<stop offset="0.77" stop-color="#B17B32"/>
<stop offset="0.83" stop-color="#BB8332"/>
<stop offset="0.88" stop-color="#D4A245"/>
<stop offset="0.93" stop-color="#E1B453"/>
<stop offset="1" stop-color="#A4692A"/>
</linearGradient>
<radialGradient id="paint1_radial_15_1334" cx="0" cy="0" r="1" gradientUnits="userSpaceOnUse" gradientTransform="translate(51.7215 51.1408) scale(23.8174 23.8174)">
<stop offset="0.14" stop-color="#404040"/>
<stop offset="0.24" stop-color="#393939"/>
<stop offset="0.39" stop-color="#262626"/>
<stop offset="0.55" stop-color="#0B0B0B"/>
<stop offset="0.69" stop-color="#050505"/>
<stop offset="0.94"/>
</radialGradient>
<radialGradient id="paint2_radial_15_1334" cx="0" cy="0" r="1" gradientUnits="userSpaceOnUse" gradientTransform="translate(60.7767 38.4273) scale(22.3445 22.3445)">
<stop offset="0.14" stop-color="#404040"/>
<stop offset="0.24" stop-color="#393939"/>
<stop offset="0.39" stop-color="#262626"/>
<stop offset="0.55" stop-color="#0B0B0B"/>
<stop offset="0.69" stop-color="#050505"/>
<stop offset="0.94"/>
</radialGradient>
<linearGradient id="paint3_linear_15_1334" x1="55.9488" y1="61.2495" x2="58.2789" y2="42.4832" gradientUnits="userSpaceOnUse">
<stop stop-color="#663500"/>
<stop offset="0.08" stop-color="#764710"/>
<stop offset="0.24" stop-color="#9E7538"/>
<stop offset="0.41" stop-color="#D0AD6A"/>
<stop offset="0.5" stop-color="#D8B97C"/>
<stop offset="0.72" stop-color="#EAD3A2"/>
</linearGradient>
<linearGradient id="paint4_linear_15_1334" x1="49.3195" y1="60.424" x2="51.6495" y2="41.6593" gradientUnits="userSpaceOnUse">
<stop stop-color="#663500"/>
<stop offset="0.08" stop-color="#764710"/>
<stop offset="0.24" stop-color="#9E7538"/>
<stop offset="0.41" stop-color="#D0AD6A"/>
<stop offset="0.5" stop-color="#D8B97C"/>
<stop offset="0.72" stop-color="#EAD3A2"/>
</linearGradient>
<linearGradient id="paint5_linear_15_1334" x1="59.6243" y1="61.7042" x2="61.9544" y2="42.9395" gradientUnits="userSpaceOnUse">
<stop stop-color="#663500"/>
<stop offset="0.08" stop-color="#764710"/>
<stop offset="0.24" stop-color="#9E7538"/>
<stop offset="0.41" stop-color="#D0AD6A"/>
<stop offset="0.5" stop-color="#D8B97C"/>
<stop offset="0.72" stop-color="#EAD3A2"/>
</linearGradient>
<linearGradient id="paint6_linear_15_1334" x1="52.9953" y1="60.8825" x2="55.3254" y2="42.1161" gradientUnits="userSpaceOnUse">
<stop stop-color="#663500"/>
<stop offset="0.08" stop-color="#764710"/>
<stop offset="0.24" stop-color="#9E7538"/>
<stop offset="0.41" stop-color="#D0AD6A"/>
<stop offset="0.5" stop-color="#D8B97C"/>
<stop offset="0.72" stop-color="#EAD3A2"/>
</linearGradient>
<radialGradient id="paint7_radial_15_1334" cx="0" cy="0" r="1" gradientUnits="userSpaceOnUse" gradientTransform="translate(56.9736 47.0109) scale(14.7437 14.7437)">
<stop offset="0.14" stop-color="#404040"/>
<stop offset="0.24" stop-color="#393939"/>
<stop offset="0.39" stop-color="#262626"/>
<stop offset="0.55" stop-color="#0B0B0B"/>
<stop offset="0.69" stop-color="#050505"/>
<stop offset="0.94"/>
</radialGradient>
<linearGradient id="paint8_linear_15_1334" x1="54.4558" y1="60.3654" x2="60.0167" y2="52.4341" gradientUnits="userSpaceOnUse">
<stop stop-color="#663500"/>
<stop offset="0.08" stop-color="#764710"/>
<stop offset="0.24" stop-color="#9E7538"/>
<stop offset="0.41" stop-color="#D0AD6A"/>
<stop offset="0.5" stop-color="#D8B97C"/>
<stop offset="0.72" stop-color="#EAD3A2"/>
</linearGradient>
<linearGradient id="paint9_linear_15_1334" x1="56.4656" y1="61.7744" x2="62.0265" y2="53.8431" gradientUnits="userSpaceOnUse">
<stop stop-color="#663500"/>
<stop offset="0.08" stop-color="#764710"/>
<stop offset="0.24" stop-color="#9E7538"/>
<stop offset="0.41" stop-color="#D0AD6A"/>
<stop offset="0.5" stop-color="#D8B97C"/>
<stop offset="0.72" stop-color="#EAD3A2"/>
</linearGradient>
<linearGradient id="paint10_linear_15_1334" x1="53.1961" y1="59.4831" x2="58.7571" y2="51.5501" gradientUnits="userSpaceOnUse">
<stop stop-color="#663500"/>
<stop offset="0.08" stop-color="#764710"/>
<stop offset="0.24" stop-color="#9E7538"/>
<stop offset="0.41" stop-color="#D0AD6A"/>
<stop offset="0.5" stop-color="#D8B97C"/>
<stop offset="0.72" stop-color="#EAD3A2"/>
</linearGradient>
<linearGradient id="paint11_linear_15_1334" x1="55.7155" y1="61.2478" x2="61.2764" y2="53.3165" gradientUnits="userSpaceOnUse">
<stop stop-color="#663500"/>
<stop offset="0.08" stop-color="#764710"/>
<stop offset="0.24" stop-color="#9E7538"/>
<stop offset="0.41" stop-color="#D0AD6A"/>
<stop offset="0.5" stop-color="#D8B97C"/>
<stop offset="0.72" stop-color="#EAD3A2"/>
</linearGradient>
<linearGradient id="paint12_linear_15_1334" x1="52.4461" y1="58.9565" x2="58.0054" y2="51.0252" gradientUnits="userSpaceOnUse">
<stop stop-color="#663500"/>
<stop offset="0.08" stop-color="#764710"/>
<stop offset="0.24" stop-color="#9E7538"/>
<stop offset="0.41" stop-color="#D0AD6A"/>
<stop offset="0.5" stop-color="#D8B97C"/>
<stop offset="0.72" stop-color="#EAD3A2"/>
</linearGradient>
<radialGradient id="paint13_radial_15_1334" cx="0" cy="0" r="1" gradientUnits="userSpaceOnUse" gradientTransform="translate(60.6545 46.9305) scale(14.2606)">
<stop offset="0.14" stop-color="#404040"/>
<stop offset="0.24" stop-color="#393939"/>
<stop offset="0.39" stop-color="#262626"/>
<stop offset="0.55" stop-color="#0B0B0B"/>
<stop offset="0.69" stop-color="#050505"/>
<stop offset="0.94"/>
</radialGradient>
<linearGradient id="paint14_linear_15_1334" x1="47.6922" y1="51.1913" x2="68.6242" y2="51.8455" gradientUnits="userSpaceOnUse">
<stop stop-color="#663500"/>
<stop offset="0.08" stop-color="#764710"/>
<stop offset="0.24" stop-color="#9E7538"/>
<stop offset="0.41" stop-color="#D0AD6A"/>
<stop offset="0.5" stop-color="#D8B97C"/>
<stop offset="0.72" stop-color="#EAD3A2"/>
</linearGradient>
<linearGradient id="paint15_linear_15_1334" x1="47.5952" y1="54.2663" x2="68.5272" y2="54.9205" gradientUnits="userSpaceOnUse">
<stop stop-color="#663500"/>
<stop offset="0.08" stop-color="#764710"/>
<stop offset="0.24" stop-color="#9E7538"/>
<stop offset="0.41" stop-color="#D0AD6A"/>
<stop offset="0.5" stop-color="#D8B97C"/>
<stop offset="0.72" stop-color="#EAD3A2"/>
</linearGradient>
<radialGradient id="paint16_radial_15_1334" cx="0" cy="0" r="1" gradientUnits="userSpaceOnUse" gradientTransform="translate(25.5892 50.9918) scale(22.5995 22.5995)">
<stop offset="0.14" stop-color="#404040"/>
<stop offset="0.24" stop-color="#393939"/>
<stop offset="0.39" stop-color="#262626"/>
<stop offset="0.55" stop-color="#0B0B0B"/>
<stop offset="0.69" stop-color="#050505"/>
<stop offset="0.94"/>
</radialGradient>
<radialGradient id="paint17_radial_15_1334" cx="0" cy="0" r="1" gradientUnits="userSpaceOnUse" gradientTransform="translate(13.36 38.7228) scale(28.2947 28.2947)">
<stop offset="0.14" stop-color="#404040"/>
<stop offset="0.24" stop-color="#393939"/>
<stop offset="0.39" stop-color="#262626"/>
<stop offset="0.55" stop-color="#0B0B0B"/>
<stop offset="0.69" stop-color="#050505"/>
<stop offset="0.94"/>
</radialGradient>
<linearGradient id="paint18_linear_15_1334" x1="28.6764" y1="62.7596" x2="32.684" y2="44.4445" gradientUnits="userSpaceOnUse">
<stop stop-color="#663500"/>
<stop offset="0.08" stop-color="#764710"/>
<stop offset="0.24" stop-color="#9E7538"/>
<stop offset="0.41" stop-color="#D0AD6A"/>
<stop offset="0.5" stop-color="#D8B97C"/>
<stop offset="0.72" stop-color="#EAD3A2"/>
</linearGradient>
<linearGradient id="paint19_linear_15_1334" x1="26.1261" y1="62.2044" x2="30.1337" y2="43.8876" gradientUnits="userSpaceOnUse">
<stop stop-color="#663500"/>
<stop offset="0.08" stop-color="#764710"/>
<stop offset="0.24" stop-color="#9E7538"/>
<stop offset="0.41" stop-color="#D0AD6A"/>
<stop offset="0.5" stop-color="#D8B97C"/>
<stop offset="0.72" stop-color="#EAD3A2"/>
</linearGradient>
<linearGradient id="paint20_linear_15_1334" x1="23.578" y1="61.6458" x2="27.5839" y2="43.3289" gradientUnits="userSpaceOnUse">
<stop stop-color="#663500"/>
<stop offset="0.08" stop-color="#764710"/>
<stop offset="0.24" stop-color="#9E7538"/>
<stop offset="0.41" stop-color="#D0AD6A"/>
<stop offset="0.5" stop-color="#D8B97C"/>
<stop offset="0.72" stop-color="#EAD3A2"/>
</linearGradient>
<linearGradient id="paint21_linear_15_1334" x1="25.1464" y1="61.9879" x2="29.1523" y2="43.6728" gradientUnits="userSpaceOnUse">
<stop stop-color="#663500"/>
<stop offset="0.08" stop-color="#764710"/>
<stop offset="0.24" stop-color="#9E7538"/>
<stop offset="0.41" stop-color="#D0AD6A"/>
<stop offset="0.5" stop-color="#D8B97C"/>
<stop offset="0.72" stop-color="#EAD3A2"/>
</linearGradient>
<linearGradient id="paint22_linear_15_1334" x1="22.5965" y1="61.431" x2="26.6041" y2="43.1158" gradientUnits="userSpaceOnUse">
<stop stop-color="#663500"/>
<stop offset="0.08" stop-color="#764710"/>
<stop offset="0.24" stop-color="#9E7538"/>
<stop offset="0.41" stop-color="#D0AD6A"/>
<stop offset="0.5" stop-color="#D8B97C"/>
<stop offset="0.72" stop-color="#EAD3A2"/>
</linearGradient>
<linearGradient id="paint23_linear_15_1334" x1="20.0485" y1="60.8738" x2="24.0544" y2="42.557" gradientUnits="userSpaceOnUse">
<stop stop-color="#663500"/>
<stop offset="0.08" stop-color="#764710"/>
<stop offset="0.24" stop-color="#9E7538"/>
<stop offset="0.41" stop-color="#D0AD6A"/>
<stop offset="0.5" stop-color="#D8B97C"/>
<stop offset="0.72" stop-color="#EAD3A2"/>
</linearGradient>
<radialGradient id="paint24_radial_15_1334" cx="0" cy="0" r="1" gradientUnits="userSpaceOnUse" gradientTransform="translate(9.79332 45.0469) scale(32.0272 32.0271)">
<stop offset="0.14" stop-color="#404040"/>
<stop offset="0.24" stop-color="#393939"/>
<stop offset="0.39" stop-color="#262626"/>
<stop offset="0.55" stop-color="#0B0B0B"/>
<stop offset="0.69" stop-color="#050505"/>
<stop offset="0.94"/>
</radialGradient>
<linearGradient id="paint25_linear_15_1334" x1="19.3219" y1="62.5397" x2="27.6625" y2="49.2135" gradientUnits="userSpaceOnUse">
<stop stop-color="#663500"/>
<stop offset="0.08" stop-color="#764710"/>
<stop offset="0.24" stop-color="#9E7538"/>
<stop offset="0.41" stop-color="#D0AD6A"/>
<stop offset="0.5" stop-color="#D8B97C"/>
<stop offset="0.72" stop-color="#EAD3A2"/>
</linearGradient>
<radialGradient id="paint26_radial_15_1334" cx="0" cy="0" r="1" gradientUnits="userSpaceOnUse" gradientTransform="translate(32.3445 50.8177) scale(21.0495 21.0495)">
<stop offset="0.14" stop-color="#404040"/>
<stop offset="0.24" stop-color="#393939"/>
<stop offset="0.39" stop-color="#262626"/>
<stop offset="0.55" stop-color="#0B0B0B"/>
<stop offset="0.69" stop-color="#050505"/>
<stop offset="0.94"/>
</radialGradient>
<linearGradient id="paint27_linear_15_1334" x1="36.6474" y1="67.1881" x2="28.535" y2="57.8997" gradientUnits="userSpaceOnUse">
<stop stop-color="#663500"/>
<stop offset="0.08" stop-color="#764710"/>
<stop offset="0.24" stop-color="#9E7538"/>
<stop offset="0.41" stop-color="#D0AD6A"/>
<stop offset="0.5" stop-color="#D8B97C"/>
<stop offset="0.72" stop-color="#EAD3A2"/>
</linearGradient>
<linearGradient id="paint28_linear_15_1334" x1="38.6385" y1="66.3998" x2="30.5277" y2="57.1114" gradientUnits="userSpaceOnUse">
<stop stop-color="#663500"/>
<stop offset="0.08" stop-color="#764710"/>
<stop offset="0.24" stop-color="#9E7538"/>
<stop offset="0.41" stop-color="#D0AD6A"/>
<stop offset="0.5" stop-color="#D8B97C"/>
<stop offset="0.72" stop-color="#EAD3A2"/>
</linearGradient>
<linearGradient id="paint29_linear_15_1334" x1="40.6314" y1="65.6098" x2="32.5206" y2="56.3214" gradientUnits="userSpaceOnUse">
<stop stop-color="#663500"/>
<stop offset="0.08" stop-color="#764710"/>
<stop offset="0.24" stop-color="#9E7538"/>
<stop offset="0.41" stop-color="#D0AD6A"/>
<stop offset="0.5" stop-color="#D8B97C"/>
<stop offset="0.72" stop-color="#EAD3A2"/>
</linearGradient>
</defs>
</svg>
