<svg width="100" height="100" viewBox="0 0 100 100" fill="none" xmlns="http://www.w3.org/2000/svg">
<g clip-path="url(#clip0_35_619)">
<path d="M50 26C45.2533 26 40.6131 27.4076 36.6663 30.0447C32.7195 32.6819 29.6434 36.4302 27.8269 40.8156C26.0104 45.201 25.5351 50.0266 26.4612 54.6822C27.3872 59.3377 29.673 63.6141 33.0294 66.9706C36.3859 70.327 40.6623 72.6128 45.3178 73.5388C49.9734 74.4649 54.799 73.9896 59.1844 72.1731C63.5698 70.3566 67.3181 67.2805 69.9553 63.3337C72.5924 59.3869 74 54.7468 74 50C74 43.6348 71.4715 37.5303 66.9706 33.0294C62.4697 28.5286 56.3652 26 50 26ZM50 68C46.4399 68 42.9598 66.9443 39.9997 64.9665C37.0397 62.9886 34.7326 60.1774 33.3702 56.8883C32.0078 53.5992 31.6513 49.98 32.3459 46.4884C33.0404 42.9967 34.7547 39.7894 37.2721 37.2721C39.7894 34.7547 42.9967 33.0404 46.4884 32.3459C49.98 31.6513 53.5992 32.0078 56.8883 33.3702C60.1774 34.7325 62.9886 37.0397 64.9665 39.9997C66.9443 42.9598 68 46.4399 68 50C68 54.7739 66.1036 59.3523 62.7279 62.7279C59.3523 66.1036 54.7739 68 50 68Z" fill="#D6D6D6"/>
<path d="M50 31C46.2422 31 42.5687 32.1143 39.4442 34.2021C36.3196 36.2898 33.8844 39.2572 32.4463 42.729C31.0082 46.2008 30.632 50.0211 31.3651 53.7067C32.0982 57.3924 33.9078 60.7778 36.565 63.435C39.2222 66.0922 42.6077 67.9018 46.2933 68.6349C49.9789 69.368 53.7992 68.9918 57.271 67.5537C60.7428 66.1156 63.7102 63.6804 65.7979 60.5558C67.8857 57.4313 69 53.7578 69 50C68.9944 44.9626 66.9909 40.1331 63.4289 36.5711C59.8669 33.0091 55.0374 31.0056 50 31ZM50 67C46.6377 67 43.3509 66.003 40.5553 64.135C37.7597 62.267 35.5807 59.612 34.2941 56.5056C33.0074 53.3993 32.6707 49.9811 33.3267 46.6835C33.9826 43.3858 35.6017 40.3567 37.9792 37.9792C40.3567 35.6017 43.3858 33.9826 46.6835 33.3266C49.9811 32.6707 53.3993 33.0074 56.5056 34.294C59.612 35.5807 62.267 37.7597 64.135 40.5553C66.003 43.3509 67 46.6377 67 50C66.995 54.5071 65.2023 58.8282 62.0153 62.0153C58.8282 65.2023 54.5071 66.995 50 67Z" fill="#666666"/>
<path d="M58.0099 47.3699C54.2069 44.3237 52.2183 42.8101 50.0238 38.5068C47.8167 42.8038 45.8223 44.3101 42.0081 47.3431C36.0501 52.0839 39.3401 58.2906 43.9904 58.5972C46.8881 58.7875 48.6484 56.7211 49.4602 55.4231C49.214 57.0914 48.7234 60.0096 48.1107 61.493H51.8581C51.2512 60.0057 50.7714 57.0914 50.5329 55.425C51.3393 56.7245 53.0929 58.7978 55.9911 58.6172C60.6419 58.3271 63.9533 52.1321 58.0099 47.3699Z" fill="#666666"/>
<path d="M55.8065 46.8796C55.7416 46.7467 55.6354 46.6385 55.5038 46.571C55.3722 46.5036 55.2223 46.4805 55.0765 46.5053L51.9997 47.1541C51.6659 47.2393 51.3551 47.3974 51.0896 47.6169L49.2738 49.2507C49.0577 49.4454 48.9774 49.8216 49.0956 50.0873L50.7372 53.7827C50.8023 53.9155 50.9085 54.0236 51.0401 54.091C51.1717 54.1584 51.3215 54.1813 51.4673 54.1565L54.5436 53.5078C54.8777 53.4228 55.1887 53.2647 55.4542 53.0449L57.2695 51.4116C57.4856 51.2169 57.5659 50.8402 57.4477 50.5745L55.8065 46.8796Z" fill="url(#paint0_radial_35_619)"/>
<path d="M52.0401 48.0035C51.897 47.6813 52.062 47.3586 52.4066 47.2856L54.84 46.7722C55.017 46.7412 55.1992 46.7686 55.3592 46.8504C55.5192 46.9321 55.6482 47.0637 55.7268 47.2253L57.1021 50.3211C57.2452 50.6428 57.0802 50.9659 56.7357 51.0385L54.3022 51.5519C54.1253 51.5829 53.943 51.5554 53.7831 51.4737C53.6231 51.392 53.4941 51.2604 53.4155 51.0988L52.0401 48.0035Z" fill="url(#paint1_radial_35_619)"/>
<path d="M55.4862 47.9264C55.3933 47.7167 55.1679 47.5785 54.9825 47.6174C54.7971 47.6563 54.7231 47.8578 54.8165 48.0681C54.91 48.2783 55.1353 48.4161 55.3203 48.3771C55.5052 48.3382 55.5797 48.1362 55.4862 47.9264Z" fill="white"/>
<path d="M53.4813 48.3498C53.3879 48.1395 53.1626 48.0013 52.9771 48.0403C52.7917 48.0792 52.7177 48.2836 52.8112 48.4909C52.9046 48.6983 53.1295 48.8394 53.3149 48.8C53.5003 48.7606 53.5743 48.5595 53.4813 48.3498Z" fill="white"/>
<path d="M56.333 49.8304C56.2395 49.6206 56.0142 49.4819 55.8293 49.5213C55.6443 49.5608 55.5699 49.7618 55.6628 49.972C55.7558 50.1823 55.9821 50.32 56.167 50.2811C56.352 50.2421 56.4264 50.0406 56.333 49.8304Z" fill="white"/>
<path d="M54.3256 50.2541C54.2322 50.0438 54.0069 49.9056 53.8219 49.9446C53.637 49.9835 53.562 50.185 53.6555 50.3952C53.7489 50.6055 53.9742 50.7432 54.1592 50.7043C54.3441 50.6653 54.4191 50.4638 54.3256 50.2541Z" fill="white"/>
<path d="M53.1753 52.5497C53.4371 52.3142 53.9331 52.063 54.2781 51.9891L56.3095 51.5603C56.6546 51.4878 56.7223 51.6211 56.4604 51.8567L55.4384 52.776C55.1765 53.0116 54.6806 53.2627 54.3355 53.3367L52.3041 53.7655C51.9595 53.838 51.8914 53.7046 52.1532 53.4691L53.1753 52.5497Z" fill="url(#paint2_radial_35_619)"/>
<path d="M54.5843 52.6035C54.6817 52.5164 54.6359 52.4721 54.4826 52.5061C54.3174 52.5438 54.1626 52.6178 54.0295 52.7227C53.9322 52.8098 53.9784 52.8541 54.1317 52.82C54.2967 52.7821 54.4513 52.7081 54.5843 52.6035Z" fill="white"/>
<path d="M55.8538 52.0332C55.9511 51.946 55.9054 51.9018 55.7521 51.9358C55.587 51.9736 55.4324 52.0476 55.2995 52.1524C55.2021 52.2395 55.2508 52.2838 55.4012 52.2497C55.5661 52.2116 55.7207 52.1377 55.8538 52.0332Z" fill="white"/>
<path d="M54.1944 52.3839C54.2917 52.2968 54.2459 52.2521 54.0926 52.2866C53.9275 52.3244 53.7728 52.3982 53.6395 52.5027C53.5422 52.5898 53.5879 52.6346 53.7413 52.6C53.9064 52.5624 54.0612 52.4886 54.1944 52.3839Z" fill="white"/>
<path d="M54.9751 52.8254C55.0725 52.7378 55.0267 52.6935 54.8734 52.7281C54.7083 52.7658 54.5536 52.8396 54.4203 52.9442C54.323 53.0318 54.3717 53.0761 54.522 53.0415C54.6871 53.0037 54.8418 52.9299 54.9751 52.8254Z" fill="white"/>
<path d="M53.314 53.1755C53.4113 53.0879 53.3656 53.0436 53.2123 53.0782C53.0473 53.1161 52.8927 53.19 52.7597 53.2947C52.6623 53.3819 52.7081 53.4266 52.8614 53.3921C53.0264 53.3544 53.1809 53.2806 53.314 53.176" fill="white"/>
<path d="M49.3955 50.2448C49.2524 49.9231 49.3468 49.4661 49.6111 49.231L50.93 48.0445C51.1918 47.8089 51.5233 47.8795 51.6659 48.2017L53.0364 51.2858C53.1795 51.6075 53.0851 52.0645 52.8208 52.2996L51.5019 53.4861C51.24 53.7217 50.9086 53.6511 50.766 53.3289L49.3955 50.2448Z" fill="url(#paint3_radial_35_619)"/>
<path d="M49.8447 50.1266C49.8272 50.4123 49.9664 50.7145 50.1562 50.8031C50.346 50.8916 50.5135 50.732 50.5315 50.4463C50.5495 50.1606 50.4093 49.8579 50.22 49.7698C50.0307 49.6817 49.8623 49.8414 49.8447 50.1266Z" fill="white"/>
<path d="M51.8997 51.0841C51.8822 51.3698 52.0214 51.672 52.2112 51.7606C52.401 51.8492 52.5689 51.6895 52.5864 51.4038C52.6039 51.1182 52.4647 50.8154 52.2749 50.7274C52.0851 50.6393 51.9172 50.7989 51.8997 51.0841Z" fill="white"/>
<path d="M49.9939 50.3602C49.8994 50.0163 49.723 49.7004 49.4799 49.4394L47.4544 47.4508C47.2387 47.2391 46.8445 47.1826 46.5783 47.3257L42.9175 49.29C42.7831 49.3696 42.6764 49.4886 42.6117 49.6308C42.547 49.773 42.5275 49.9316 42.5559 50.0852L43.2372 53.0637C43.332 53.4075 43.5085 53.7232 43.7516 53.9841L45.7767 55.9727C45.9923 56.1844 46.3866 56.2408 46.6528 56.0977L50.3136 54.1335C50.4482 54.054 50.555 53.9351 50.6197 53.7928C50.6844 53.6506 50.7038 53.4919 50.6752 53.3382L49.9939 50.3602Z" fill="url(#paint4_radial_35_619)"/>
<path d="M43.1921 49.9868C42.9765 49.7756 43.0179 49.4855 43.2841 49.3424L46.5386 47.5957C46.8048 47.4526 47.199 47.5091 47.4146 47.7208L49.1112 49.3872C49.3268 49.5989 49.2854 49.889 49.0192 50.0316L45.7642 51.7783C45.498 51.9214 45.1038 51.8649 44.8882 51.6532L43.1921 49.9868Z" fill="url(#paint5_radial_35_619)"/>
<path d="M47.6274 50.2127C47.8362 50.1007 47.9029 49.909 47.7734 49.7844C47.6439 49.6598 47.3743 49.6501 47.166 49.762C46.9577 49.8739 46.8905 50.0657 47.0171 50.1903C47.1436 50.3149 47.4157 50.3246 47.625 50.2127" fill="white"/>
<path d="M46.9901 49.5867C47.1989 49.4748 47.2655 49.283 47.139 49.1584C47.0124 49.0338 46.7399 49.0241 46.5311 49.136C46.3223 49.248 46.2557 49.4397 46.3822 49.5643C46.5087 49.6889 46.7813 49.6986 46.9901 49.5867Z" fill="white"/>
<path d="M46.3515 48.9594C46.5603 48.8475 46.627 48.6557 46.5004 48.5312C46.3739 48.4066 46.1013 48.3963 45.8926 48.5088C45.6838 48.6212 45.6171 48.8125 45.7441 48.9371C45.8711 49.0616 46.1427 49.0714 46.3515 48.9594Z" fill="white"/>
<path d="M46.4114 50.865C46.6207 50.7526 46.6874 50.5608 46.5604 50.4362C46.4333 50.3116 46.1618 50.3019 45.9525 50.4139C45.7432 50.5258 45.677 50.718 45.804 50.8421C45.9311 50.9662 46.2026 50.9769 46.4114 50.865Z" fill="white"/>
<path d="M45.7738 50.2385C45.9825 50.1261 46.0492 49.9344 45.9227 49.8098C45.7961 49.6852 45.5236 49.6754 45.3143 49.7874C45.105 49.8993 45.0393 50.0916 45.1659 50.2157C45.2924 50.3398 45.565 50.3505 45.7738 50.2385Z" fill="white"/>
<path d="M45.1358 49.6126C45.3446 49.5006 45.4117 49.3089 45.2847 49.1843C45.1577 49.0597 44.8856 49.05 44.6768 49.1619C44.4681 49.2738 44.4009 49.4656 44.5279 49.5902C44.6549 49.7148 44.927 49.725 45.1358 49.6126Z" fill="white"/>
<path d="M43.95 53.8719C43.7072 53.6108 43.5308 53.2952 43.4356 52.9516L42.9367 50.7678C42.8691 50.4729 42.9903 50.4053 43.2063 50.617L44.6503 52.0352C44.8933 52.2961 45.0698 52.6118 45.1648 52.9555L45.6622 55.1393C45.7293 55.4342 45.6081 55.5018 45.3925 55.2901L43.95 53.8719Z" fill="url(#paint6_radial_35_619)"/>
<path d="M44.6338 53.2809C44.573 53.0157 44.3749 52.6545 44.1909 52.474C44.007 52.2934 43.9072 52.3616 43.968 52.6268C44.0289 52.892 44.2265 53.2532 44.4104 53.4337C44.5944 53.6143 44.6942 53.5457 44.6338 53.2809Z" fill="white"/>
<path d="M45.6164 52.9574C45.5881 52.8038 45.6076 52.6452 45.6723 52.5029C45.7369 52.3607 45.8436 52.2418 45.978 52.1621L49.2388 50.4135C49.505 50.2704 49.7781 50.3945 49.8452 50.6889L50.4249 53.2231C50.4531 53.3768 50.4336 53.5354 50.3688 53.6777C50.3041 53.8199 50.1972 53.9388 50.0628 54.0184L46.802 55.7675C46.5357 55.9101 46.2627 55.786 46.1951 55.4916L45.6164 52.9574Z" fill="url(#paint7_radial_35_619)"/>
<path d="M46.5709 52.5777C46.7038 52.3626 46.9559 52.2395 47.135 52.3027C47.3141 52.366 47.3511 52.5913 47.2182 52.8065C47.0853 53.0216 46.8332 53.1447 46.6541 53.0814C46.475 53.0182 46.438 52.7928 46.5709 52.5777Z" fill="white"/>
<path d="M47.6956 52.9761C47.8285 52.761 48.0806 52.6379 48.2597 52.7012C48.4388 52.7644 48.4758 52.9898 48.3434 53.2049C48.211 53.42 47.9579 53.5456 47.7793 53.4799C47.6007 53.4142 47.5632 53.1913 47.6956 52.9761Z" fill="white"/>
<path d="M48.8205 53.3734C48.9534 53.1583 49.206 53.0357 49.3846 53.0985C49.5632 53.1612 49.6012 53.3871 49.4683 53.6022C49.3354 53.8173 49.0833 53.9429 48.9042 53.8772C48.7251 53.8114 48.6881 53.5886 48.8205 53.3734Z" fill="white"/>
<path d="M83 56H85V60H83V56Z" fill="#666666"/>
<path d="M83 44H85V52H83V44Z" fill="#666666"/>
<path d="M15 48H17V56H15V48Z" fill="#666666"/>
<path d="M15 40H17V44H15V40Z" fill="#666666"/>
<path d="M95.1619 71.0001H84.9999V64.0001H82.9999V73.0001H90.8379L75.9999 90.4561L61.1619 73.0001H67.9999V71.0001H63.5389C68.7346 67.6579 72.5081 62.5097 74.1312 56.549C75.7543 50.5882 75.1119 44.2375 72.3279 38.7226C69.544 33.2077 64.8159 28.9194 59.0561 26.6855C53.2964 24.4516 46.9133 24.4305 41.1389 26.6261L23.9999 6.45605L4.83789 29.0001H14.9999V36.0001H16.9999V27.0001H9.16189L23.9999 9.54405L38.8379 27.0001H31.9999V29.0001H36.4609C31.2652 32.3422 27.4917 37.4904 25.8686 43.4512C24.2455 49.4119 24.8879 55.7626 27.6719 61.2775C30.4558 66.7924 35.1839 71.0807 40.9437 73.3146C46.7034 75.5485 53.0864 75.5697 58.8609 73.3741L75.9999 93.5441L95.1619 71.0001ZM26.9999 50.0001C26.9999 45.4511 28.3488 41.0043 30.8761 37.2219C33.4034 33.4396 36.9955 30.4916 41.1982 28.7508C45.4009 27.01 50.0254 26.5545 54.487 27.442C58.9485 28.3295 63.0467 30.52 66.2633 33.7366C69.48 36.9532 71.6705 41.0514 72.558 45.513C73.4454 49.9745 72.9899 54.5991 71.2491 58.8018C69.5083 63.0045 66.5603 66.5966 62.778 69.1239C58.9957 71.6511 54.5489 73.0001 49.9999 73.0001C43.902 72.9932 38.0559 70.5678 33.744 66.2559C29.4322 61.9441 27.0068 56.0979 26.9999 50.0001Z" fill="#666666"/>
</g>
<defs>
<radialGradient id="paint0_radial_35_619" cx="0" cy="0" r="1" gradientUnits="userSpaceOnUse" gradientTransform="translate(53.2709 50.3311) scale(6.90997 6.90997)">
<stop offset="0.14" stop-color="#404040"/>
<stop offset="0.24" stop-color="#393939"/>
<stop offset="0.39" stop-color="#262626"/>
<stop offset="0.55" stop-color="#0B0B0B"/>
<stop offset="0.69" stop-color="#050505"/>
<stop offset="0.94"/>
</radialGradient>
<radialGradient id="paint1_radial_35_619" cx="0" cy="0" r="1" gradientUnits="userSpaceOnUse" gradientTransform="translate(55.8981 46.6432) scale(6.48266 6.48266)">
<stop offset="0.14" stop-color="#404040"/>
<stop offset="0.24" stop-color="#393939"/>
<stop offset="0.39" stop-color="#262626"/>
<stop offset="0.55" stop-color="#0B0B0B"/>
<stop offset="0.69" stop-color="#050505"/>
<stop offset="0.94"/>
</radialGradient>
<radialGradient id="paint2_radial_35_619" cx="0" cy="0" r="1" gradientUnits="userSpaceOnUse" gradientTransform="translate(54.795 49.1342) scale(4.27749 4.27749)">
<stop offset="0.14" stop-color="#404040"/>
<stop offset="0.24" stop-color="#393939"/>
<stop offset="0.39" stop-color="#262626"/>
<stop offset="0.55" stop-color="#0B0B0B"/>
<stop offset="0.69" stop-color="#050505"/>
<stop offset="0.94"/>
</radialGradient>
<radialGradient id="paint3_radial_35_619" cx="0" cy="0" r="1" gradientUnits="userSpaceOnUse" gradientTransform="translate(55.8631 49.1103) scale(4.13732)">
<stop offset="0.14" stop-color="#404040"/>
<stop offset="0.24" stop-color="#393939"/>
<stop offset="0.39" stop-color="#262626"/>
<stop offset="0.55" stop-color="#0B0B0B"/>
<stop offset="0.69" stop-color="#050505"/>
<stop offset="0.94"/>
</radialGradient>
<radialGradient id="paint4_radial_35_619" cx="0" cy="0" r="1" gradientUnits="userSpaceOnUse" gradientTransform="translate(45.6896 50.2887) scale(6.55664 6.55664)">
<stop offset="0.14" stop-color="#404040"/>
<stop offset="0.24" stop-color="#393939"/>
<stop offset="0.39" stop-color="#262626"/>
<stop offset="0.55" stop-color="#0B0B0B"/>
<stop offset="0.69" stop-color="#050505"/>
<stop offset="0.94"/>
</radialGradient>
<radialGradient id="paint5_radial_35_619" cx="0" cy="0" r="1" gradientUnits="userSpaceOnUse" gradientTransform="translate(42.1418 46.7289) scale(8.20894)">
<stop offset="0.14" stop-color="#404040"/>
<stop offset="0.24" stop-color="#393939"/>
<stop offset="0.39" stop-color="#262626"/>
<stop offset="0.55" stop-color="#0B0B0B"/>
<stop offset="0.69" stop-color="#050505"/>
<stop offset="0.94"/>
</radialGradient>
<radialGradient id="paint6_radial_35_619" cx="0" cy="0" r="1" gradientUnits="userSpaceOnUse" gradientTransform="translate(41.1068 48.5636) scale(9.29182 9.29181)">
<stop offset="0.14" stop-color="#404040"/>
<stop offset="0.24" stop-color="#393939"/>
<stop offset="0.39" stop-color="#262626"/>
<stop offset="0.55" stop-color="#0B0B0B"/>
<stop offset="0.69" stop-color="#050505"/>
<stop offset="0.94"/>
</radialGradient>
<radialGradient id="paint7_radial_35_619" cx="0" cy="0" r="1" gradientUnits="userSpaceOnUse" gradientTransform="translate(47.6498 50.2373) scale(6.10694 6.10694)">
<stop offset="0.14" stop-color="#404040"/>
<stop offset="0.24" stop-color="#393939"/>
<stop offset="0.39" stop-color="#262626"/>
<stop offset="0.55" stop-color="#0B0B0B"/>
<stop offset="0.69" stop-color="#050505"/>
<stop offset="0.94"/>
</radialGradient>
<clipPath id="clip0_35_619">
<rect width="100" height="100" fill="white"/>
</clipPath>
</defs>
</svg>
