<svg width="100" height="100" viewBox="0 0 100 100" fill="none" xmlns="http://www.w3.org/2000/svg">
<g clip-path="url(#clip0_35_393)">
<path d="M45 18H55V27H45V18Z" fill="#413D4A"/>
<path d="M14 66H20V76H14V66Z" fill="#413D4A"/>
<path d="M80 66H86V76H80V66Z" fill="#413D4A"/>
<path d="M47 66H53V76H47V66Z" fill="#413D4A"/>
<path d="M67 40H69V44H67V40Z" fill="#A09EA5"/>
<path d="M50 74C50.5523 74 51 73.5523 51 73C51 72.4477 50.5523 72 50 72C49.4477 72 49 72.4477 49 73C49 73.5523 49.4477 74 50 74Z" fill="#A09EA5"/>
<path d="M83 74C83.5523 74 84 73.5523 84 73C84 72.4477 83.5523 72 83 72C82.4477 72 82 72.4477 82 73C82 73.5523 82.4477 74 83 74Z" fill="#A09EA5"/>
<path d="M32 58H36V60H32V58Z" fill="#A09EA5"/>
<path d="M16 65H13V68H7V72H9V70H13V77H21V70H25V91H9V76H7V93H27V68H21V65H18V60H28V58H16V65ZM19 67V75H15V67H19Z" fill="#A09EA5"/>
<path d="M17 74C17.5523 74 18 73.5523 18 73C18 72.4477 17.5523 72 17 72C16.4477 72 16 72.4477 16 73C16 73.5523 16.4477 74 17 74Z" fill="#A09EA5"/>
<path d="M87 68.0002V65.0002H84V58.0002H51V53.0002H69V48.0002H67V51.0002H33V28.0002H67V36.0002H69V28.0002H73V17.0002H59.46C60.0109 16.3869 60.4294 15.6665 60.6893 14.884C60.9491 14.1016 61.0448 13.274 60.9702 12.4529C60.8957 11.6318 60.6526 10.8349 60.2561 10.1121C59.8595 9.38924 59.3182 8.75596 58.6658 8.25185C58.0134 7.74774 57.2641 7.38363 56.4646 7.18229C55.6651 6.98095 54.8326 6.94671 54.0193 7.08171C53.206 7.21671 52.4292 7.51805 51.7377 7.96688C51.0461 8.41571 50.4545 9.00238 50 9.69023C49.5463 9.00033 48.955 8.41159 48.2631 7.96092C47.5712 7.51026 46.7937 7.20737 45.9793 7.07126C45.1649 6.93516 44.3311 6.96876 43.5303 7.16996C42.7294 7.37116 41.9788 7.73562 41.3254 8.2405C40.6721 8.74539 40.13 9.3798 39.7333 10.104C39.3366 10.8281 39.0938 11.6264 39.02 12.4489C38.9463 13.2713 39.0432 14.1001 39.3048 14.8833C39.5663 15.6664 39.9869 16.3872 40.54 17.0002H27V28.0002H31V53.0002H49V58.0002H40V60.0002H49V65.0002H46V68.0002H40V84.0002H42V70.0002H46V77.0002H54V70.0002H58V91.0002H42V88.0002H40V93.0002H60V68.0002H54V65.0002H51V60.0002H82V65.0002H79V68.0002H73V80.0002H75V70.0002H79V77.0002H87V70.0002H91V91.0002H75V84.0002H73V93.0002H93V68.0002H87ZM71 19.0002V26.0002H56V19.0002H71ZM51 13.0002C51 12.2091 51.2346 11.4357 51.6741 10.7779C52.1136 10.1201 52.7384 9.60746 53.4693 9.30471C54.2002 9.00196 55.0044 8.92274 55.7804 9.07708C56.5563 9.23143 57.269 9.61239 57.8284 10.1718C58.3878 10.7312 58.7688 11.4439 58.9231 12.2199C59.0775 12.9958 58.9983 13.8001 58.6955 14.531C58.3928 15.2619 57.8801 15.8866 57.2223 16.3261C56.5645 16.7656 55.7911 17.0002 55 17.0002H51V13.0002ZM51 19.0002H54V26.0002H46V19.0002H51ZM45 9.00023C46.0609 9.00023 47.0783 9.42165 47.8284 10.1718C48.5786 10.9219 49 11.9394 49 13.0002V17.0002H45C43.9391 17.0002 42.9217 16.5788 42.1716 15.8287C41.4214 15.0785 41 14.0611 41 13.0002C41 11.9394 41.4214 10.9219 42.1716 10.1718C42.9217 9.42165 43.9391 9.00023 45 9.00023ZM29 26.0002V19.0002H44V26.0002H29ZM52 67.0002V75.0002H48V67.0002H52ZM85 75.0002H81V67.0002H85V75.0002Z" fill="#A09EA5"/>
<path d="M56.3169 38.2541C53.7926 36.2322 52.4727 35.2275 51.016 32.3711C49.551 35.2233 48.2272 36.2231 45.6954 38.2363C41.7407 41.3831 43.9245 45.503 47.0112 45.7065C48.9346 45.8328 50.1031 44.4611 50.6419 43.5996C50.4785 44.707 50.1529 46.644 49.7461 47.6286H52.2336C51.8308 46.6414 51.5122 44.707 51.3539 43.6009C51.8892 44.4634 53.0532 45.8396 54.9769 45.7197C58.064 45.5272 60.262 41.4151 56.3169 38.2541Z" fill="#A09EA5"/>
<path d="M54.8543 37.9287C54.8112 37.8405 54.7407 37.7687 54.6533 37.7239C54.566 37.6791 54.4665 37.6638 54.3697 37.6803L52.3274 38.1109C52.1058 38.1675 51.8996 38.2724 51.7233 38.4181L50.518 39.5026C50.3746 39.6318 50.3213 39.8815 50.3998 40.0579L51.4894 42.5108C51.5326 42.5989 51.6031 42.6707 51.6905 42.7154C51.7778 42.7601 51.8773 42.7754 51.974 42.7589L54.016 42.3283C54.2377 42.2719 54.4442 42.167 54.6204 42.0211L55.8254 40.9369C55.9688 40.8077 56.0221 40.5577 55.9436 40.3813L54.8543 37.9287Z" fill="url(#paint0_radial_35_393)"/>
<path d="M52.3543 38.6747C52.2593 38.4608 52.3688 38.2466 52.5976 38.1982L54.2128 37.8574C54.3303 37.8368 54.4512 37.855 54.5574 37.9093C54.6636 37.9635 54.7492 38.0509 54.8014 38.1581L55.7143 40.213C55.8093 40.4265 55.6998 40.6411 55.4711 40.6892L53.8558 41.03C53.7384 41.0506 53.6174 41.0323 53.5112 40.9781C53.405 40.9238 53.3194 40.8365 53.2672 40.7292L52.3543 38.6747Z" fill="url(#paint1_radial_35_393)"/>
<path d="M54.6418 38.6231C54.5801 38.4838 54.4305 38.3921 54.3074 38.4179C54.1843 38.4438 54.1352 38.5775 54.1972 38.7171C54.2593 38.8566 54.4088 38.9481 54.5316 38.9222C54.6544 38.8964 54.7038 38.7623 54.6418 38.6231Z" fill="white"/>
<path d="M53.3108 38.9042C53.2488 38.7646 53.0992 38.6728 52.9761 38.6987C52.853 38.7245 52.8039 38.8602 52.8659 38.9978C52.928 39.1355 53.0772 39.2291 53.2003 39.203C53.3234 39.1768 53.3725 39.0434 53.3108 38.9042Z" fill="white"/>
<path d="M55.2036 39.8873C55.1416 39.7481 54.992 39.656 54.8692 39.6822C54.7465 39.7083 54.697 39.8418 54.7587 39.9813C54.8204 40.1209 54.9707 40.2123 55.0934 40.1865C55.2162 40.1606 55.2656 40.0269 55.2036 39.8873Z" fill="white"/>
<path d="M53.8712 40.1683C53.8092 40.0288 53.6596 39.937 53.5368 39.9629C53.4141 39.9887 53.3643 40.1224 53.4264 40.262C53.4884 40.4016 53.638 40.493 53.7607 40.4671C53.8835 40.4413 53.9332 40.3075 53.8712 40.1683Z" fill="white"/>
<path d="M53.1077 41.6918C53.2815 41.5355 53.6106 41.3688 53.8397 41.3197L55.1881 41.0351C55.4171 40.987 55.462 41.0755 55.2882 41.2318L54.6098 41.8421C54.436 41.9984 54.1068 42.1651 53.8778 42.2142L52.5294 42.4988C52.3007 42.547 52.2555 42.4584 52.4293 42.3021L53.1077 41.6918Z" fill="url(#paint2_radial_35_393)"/>
<path d="M54.043 41.728C54.1076 41.6702 54.0772 41.6408 53.9755 41.6634C53.8658 41.6884 53.7631 41.7375 53.6747 41.8072C53.6101 41.865 53.6408 41.8944 53.7426 41.8718C53.8521 41.8466 53.9547 41.7975 54.043 41.728Z" fill="white"/>
<path d="M54.8858 41.3491C54.9504 41.2913 54.9201 41.2619 54.8183 41.2845C54.7087 41.3096 54.6061 41.3587 54.5179 41.4282C54.4533 41.4861 54.4856 41.5155 54.5854 41.4929C54.6949 41.4676 54.7974 41.4185 54.8858 41.3491Z" fill="white"/>
<path d="M53.7841 41.5817C53.8487 41.5238 53.8183 41.4941 53.7165 41.517C53.607 41.5422 53.5043 41.5911 53.4158 41.6605C53.3512 41.7183 53.3815 41.748 53.4833 41.7251C53.5929 41.7001 53.6957 41.6511 53.7841 41.5817Z" fill="white"/>
<path d="M54.3022 41.8747C54.3668 41.8165 54.3364 41.7871 54.2346 41.8101C54.125 41.8351 54.0223 41.8841 53.9339 41.9535C53.8693 42.0116 53.9016 42.041 54.0014 42.0181C54.111 41.993 54.2137 41.944 54.3022 41.8747Z" fill="white"/>
<path d="M53.1998 42.1071C53.2644 42.0489 53.234 42.0195 53.1322 42.0425C53.0227 42.0676 52.9201 42.1167 52.8318 42.1862C52.7672 42.2441 52.7976 42.2738 52.8993 42.2508C53.0088 42.2258 53.1114 42.1768 53.1998 42.1074" fill="white"/>
<path d="M50.5987 40.1618C50.5037 39.9483 50.5664 39.6449 50.7418 39.4889L51.6172 38.7013C51.791 38.5449 52.011 38.5918 52.1057 38.8056L53.0154 40.8528C53.1104 41.0663 53.0477 41.3697 52.8723 41.5257L51.9968 42.3133C51.823 42.4696 51.603 42.4228 51.5084 42.2089L50.5987 40.1618Z" fill="url(#paint3_radial_35_393)"/>
<path d="M50.897 40.0834C50.8854 40.2731 50.9777 40.4737 51.1037 40.5325C51.2297 40.5913 51.3409 40.4853 51.3528 40.2957C51.3648 40.1061 51.2717 39.9051 51.1461 39.8466C51.0204 39.7882 50.9086 39.8941 50.897 40.0834Z" fill="white"/>
<path d="M52.261 40.7192C52.2494 40.9088 52.3418 41.1094 52.4677 41.1682C52.5937 41.227 52.7052 41.1211 52.7168 40.9314C52.7284 40.7418 52.6361 40.5409 52.5101 40.4824C52.3841 40.4239 52.2726 40.5299 52.261 40.7192Z" fill="white"/>
<path d="M50.9961 40.2386C50.9333 40.0103 50.8163 39.8006 50.6549 39.6274L49.3104 38.3074C49.1673 38.1669 48.9056 38.1294 48.7289 38.2244L46.299 39.5282C46.2098 39.5811 46.1389 39.66 46.096 39.7544C46.0531 39.8488 46.0401 39.9541 46.0589 40.0561L46.5112 42.0331C46.5741 42.2613 46.6913 42.4709 46.8527 42.644L48.1969 43.964C48.34 44.1045 48.6016 44.142 48.7783 44.047L51.2083 42.7432C51.2976 42.6904 51.3685 42.6115 51.4114 42.5171C51.4544 42.4226 51.4673 42.3173 51.4483 42.2153L50.9961 40.2386Z" fill="url(#paint4_radial_35_393)"/>
<path d="M46.4811 39.9907C46.338 39.8505 46.3654 39.658 46.5422 39.563L48.7024 38.4036C48.8791 38.3086 49.1407 38.3461 49.2839 38.4866L50.41 39.5927C50.5531 39.7333 50.5256 39.9258 50.3489 40.0204L48.1884 41.1799C48.0117 41.2748 47.75 41.2374 47.6069 41.0968L46.4811 39.9907Z" fill="url(#paint5_radial_35_393)"/>
<path d="M49.4253 40.1409C49.5639 40.0666 49.6082 39.9393 49.5223 39.8566C49.4363 39.7739 49.2574 39.7675 49.1191 39.8418C48.9808 39.9161 48.9362 40.0433 49.0202 40.126C49.1042 40.2087 49.2848 40.2152 49.4237 40.1409" fill="white"/>
<path d="M49.0019 39.7254C49.1405 39.6511 49.1848 39.5238 49.1008 39.4411C49.0168 39.3584 48.8359 39.3519 48.6973 39.4262C48.5587 39.5005 48.5144 39.6278 48.5984 39.7105C48.6824 39.7932 48.8633 39.7997 49.0019 39.7254Z" fill="white"/>
<path d="M48.5782 39.309C48.7168 39.2347 48.7611 39.1074 48.6771 39.0247C48.5931 38.942 48.4122 38.9352 48.2736 39.0099C48.135 39.0845 48.0908 39.2114 48.1751 39.2941C48.2594 39.3768 48.4397 39.3833 48.5782 39.309Z" fill="white"/>
<path d="M48.6181 40.5738C48.757 40.4992 48.8013 40.3719 48.717 40.2892C48.6327 40.2065 48.4524 40.2001 48.3135 40.2744C48.1746 40.3487 48.1306 40.4763 48.215 40.5587C48.2993 40.641 48.4795 40.6481 48.6181 40.5738Z" fill="white"/>
<path d="M48.1947 40.1583C48.3333 40.0837 48.3776 39.9564 48.2936 39.8737C48.2096 39.791 48.0287 39.7845 47.8898 39.8588C47.7508 39.9331 47.7072 40.0608 47.7912 40.1431C47.8752 40.2255 48.0561 40.2326 48.1947 40.1583Z" fill="white"/>
<path d="M47.7714 39.742C47.9099 39.6677 47.9545 39.5404 47.8702 39.4577C47.7859 39.375 47.6053 39.3685 47.4667 39.4428C47.3281 39.5171 47.2836 39.6444 47.3679 39.7271C47.4522 39.8098 47.6328 39.8166 47.7714 39.742Z" fill="white"/>
<path d="M46.9844 42.5695C46.8232 42.3962 46.7061 42.1867 46.6429 41.9587L46.3118 40.5092C46.2669 40.3134 46.3473 40.2685 46.4907 40.409L47.4492 41.3504C47.6105 41.5236 47.7276 41.7331 47.7907 41.9613L48.1208 43.4108C48.1654 43.6065 48.085 43.6514 47.9419 43.5109L46.9844 42.5695Z" fill="url(#paint6_radial_35_393)"/>
<path d="M47.4381 42.1773C47.3978 42.0013 47.2663 41.7616 47.1442 41.6417C47.0221 41.5219 46.9558 41.5671 46.9962 41.7431C47.0366 41.9192 47.1678 42.1589 47.2899 42.2788C47.412 42.3986 47.4782 42.3531 47.4381 42.1773Z" fill="white"/>
<path d="M48.0902 41.9629C48.0714 41.8609 48.0843 41.7557 48.1272 41.6613C48.1702 41.5669 48.241 41.4879 48.3302 41.4351L50.4946 40.2743C50.6713 40.1794 50.8526 40.2617 50.8971 40.4572L51.2819 42.1393C51.3006 42.2413 51.2877 42.3466 51.2447 42.441C51.2017 42.5354 51.1308 42.6143 51.0415 42.6672L48.8771 43.8282C48.7004 43.9228 48.5192 43.8405 48.4743 43.645L48.0902 41.9629Z" fill="url(#paint7_radial_35_393)"/>
<path d="M48.724 41.7106C48.8122 41.5678 48.9796 41.4861 49.0985 41.5281C49.2173 41.5701 49.2419 41.7197 49.1537 41.8625C49.0655 42.0053 48.8982 42.087 48.7793 42.045C48.6604 42.003 48.6358 41.8534 48.724 41.7106Z" fill="white"/>
<path d="M49.4705 41.9753C49.5587 41.8325 49.726 41.7508 49.8449 41.7928C49.9638 41.8348 49.9884 41.9843 49.9005 42.1271C49.8126 42.2699 49.6446 42.3532 49.5261 42.3096C49.4075 42.266 49.3826 42.1181 49.4705 41.9753Z" fill="white"/>
<path d="M50.217 42.2388C50.3051 42.096 50.4728 42.0146 50.5914 42.0563C50.7099 42.098 50.7351 42.2479 50.6469 42.3907C50.5587 42.5335 50.3914 42.6168 50.2725 42.5732C50.1536 42.5296 50.1291 42.3816 50.217 42.2388Z" fill="white"/>
</g>
<defs>
<radialGradient id="paint0_radial_35_393" cx="0" cy="0" r="1" gradientUnits="userSpaceOnUse" gradientTransform="translate(53.1712 40.2197) scale(4.58663 4.58662)">
<stop offset="0.14" stop-color="#404040"/>
<stop offset="0.24" stop-color="#393939"/>
<stop offset="0.39" stop-color="#262626"/>
<stop offset="0.55" stop-color="#0B0B0B"/>
<stop offset="0.69" stop-color="#050505"/>
<stop offset="0.94"/>
</radialGradient>
<radialGradient id="paint1_radial_35_393" cx="0" cy="0" r="1" gradientUnits="userSpaceOnUse" gradientTransform="translate(54.9151 37.7717) scale(4.30299 4.30299)">
<stop offset="0.14" stop-color="#404040"/>
<stop offset="0.24" stop-color="#393939"/>
<stop offset="0.39" stop-color="#262626"/>
<stop offset="0.55" stop-color="#0B0B0B"/>
<stop offset="0.69" stop-color="#050505"/>
<stop offset="0.94"/>
</radialGradient>
<radialGradient id="paint2_radial_35_393" cx="0" cy="0" r="1" gradientUnits="userSpaceOnUse" gradientTransform="translate(54.1828 39.4247) scale(2.83926 2.83926)">
<stop offset="0.14" stop-color="#404040"/>
<stop offset="0.24" stop-color="#393939"/>
<stop offset="0.39" stop-color="#262626"/>
<stop offset="0.55" stop-color="#0B0B0B"/>
<stop offset="0.69" stop-color="#050505"/>
<stop offset="0.94"/>
</radialGradient>
<radialGradient id="paint3_radial_35_393" cx="0" cy="0" r="1" gradientUnits="userSpaceOnUse" gradientTransform="translate(54.8916 39.4088) scale(2.74623)">
<stop offset="0.14" stop-color="#404040"/>
<stop offset="0.24" stop-color="#393939"/>
<stop offset="0.39" stop-color="#262626"/>
<stop offset="0.55" stop-color="#0B0B0B"/>
<stop offset="0.69" stop-color="#050505"/>
<stop offset="0.94"/>
</radialGradient>
<radialGradient id="paint4_radial_35_393" cx="0" cy="0" r="1" gradientUnits="userSpaceOnUse" gradientTransform="translate(48.139 40.1911) scale(4.35209)">
<stop offset="0.14" stop-color="#404040"/>
<stop offset="0.24" stop-color="#393939"/>
<stop offset="0.39" stop-color="#262626"/>
<stop offset="0.55" stop-color="#0B0B0B"/>
<stop offset="0.69" stop-color="#050505"/>
<stop offset="0.94"/>
</radialGradient>
<radialGradient id="paint5_radial_35_393" cx="0" cy="0" r="1" gradientUnits="userSpaceOnUse" gradientTransform="translate(45.784 37.8282) scale(5.44884)">
<stop offset="0.14" stop-color="#404040"/>
<stop offset="0.24" stop-color="#393939"/>
<stop offset="0.39" stop-color="#262626"/>
<stop offset="0.55" stop-color="#0B0B0B"/>
<stop offset="0.69" stop-color="#050505"/>
<stop offset="0.94"/>
</radialGradient>
<radialGradient id="paint6_radial_35_393" cx="0" cy="0" r="1" gradientUnits="userSpaceOnUse" gradientTransform="translate(45.0971 39.0461) scale(6.16762 6.16762)">
<stop offset="0.14" stop-color="#404040"/>
<stop offset="0.24" stop-color="#393939"/>
<stop offset="0.39" stop-color="#262626"/>
<stop offset="0.55" stop-color="#0B0B0B"/>
<stop offset="0.69" stop-color="#050505"/>
<stop offset="0.94"/>
</radialGradient>
<radialGradient id="paint7_radial_35_393" cx="0" cy="0" r="1" gradientUnits="userSpaceOnUse" gradientTransform="translate(49.4399 40.1574) scale(4.0536 4.0536)">
<stop offset="0.14" stop-color="#404040"/>
<stop offset="0.24" stop-color="#393939"/>
<stop offset="0.39" stop-color="#262626"/>
<stop offset="0.55" stop-color="#0B0B0B"/>
<stop offset="0.69" stop-color="#050505"/>
<stop offset="0.94"/>
</radialGradient>
<clipPath id="clip0_35_393">
<rect width="100" height="100" fill="white"/>
</clipPath>
</defs>
</svg>
